<?xml version="1.0" encoding="UTF-8"?>
<svg id="Layer_1" data-name="Layer 1" xmlns="http://www.w3.org/2000/svg" width="940" height="800" viewBox="0 0 940 800">
  <rect x="7.3" y="15" width="925.4" height="770" rx="19.02" ry="19.02" style="fill: #223654;"/>
  <g>
    <g>
      <path d="M301.25,76.98h11.5c7.36,0,13.3,2.63,13.3,10.77s-6.01,11.35-13.1,11.35h-4.14v11.36h-7.57v-33.47ZM312.5,93.09c4.16,0,6.13-1.85,6.13-5.34s-2.24-4.76-6.34-4.76h-3.49v10.1h3.69Z" style="fill: #fff;"/>
      <path d="M331.23,84.97h6.16l.54,4.45h.19c1.85-3.4,4.64-5.07,7.24-5.07,1.46,0,2.3.19,3.04.51l-1.26,6.52c-.91-.22-1.66-.41-2.75-.41-1.92,0-4.25,1.24-5.61,4.71v14.77h-7.55v-25.48Z" style="fill: #fff;"/>
      <path d="M349.68,97.72c0-8.47,5.96-13.36,12.41-13.36s12.41,4.89,12.41,13.36-5.96,13.35-12.41,13.35-12.41-4.89-12.41-13.35ZM366.76,97.72c0-4.41-1.55-7.27-4.67-7.27s-4.67,2.86-4.67,7.27,1.55,7.25,4.67,7.25,4.67-2.84,4.67-7.25Z" style="fill: #fff;"/>
      <path d="M379.35,101.19v-10.29h-3.48v-5.63l3.9-.29.88-6.77h6.24v6.77h6.11v5.92h-6.11v10.2c0,2.89,1.31,4.05,3.3,4.05.84,0,1.75-.24,2.42-.48l1.19,5.48c-1.35.43-3.19.92-5.66.92-6.3,0-8.8-3.98-8.8-9.88Z" style="fill: #fff;"/>
      <path d="M395.6,97.72c0-8.27,5.9-13.36,12.02-13.36,7.26,0,10.85,5.28,10.85,12.23,0,1.36-.17,2.72-.31,3.34h-15.24c.68,3.7,3.21,5.39,6.61,5.39,1.93,0,3.66-.59,5.51-1.67l2.5,4.55c-2.61,1.81-6.02,2.87-9.04,2.87-7.26,0-12.89-4.91-12.89-13.35ZM412.02,94.93c0-2.8-1.22-4.82-4.23-4.82-2.39,0-4.44,1.6-4.96,4.82h9.19Z" style="fill: #fff;"/>
      <path d="M422.2,97.72c0-8.47,6.24-13.36,13.27-13.36,3.14,0,5.55,1.12,7.44,2.74l-3.57,4.85c-1.22-1.03-2.24-1.5-3.45-1.5-3.63,0-5.96,2.86-5.96,7.27s2.43,7.25,5.71,7.25c1.67,0,3.27-.83,4.6-1.88l2.96,4.94c-2.48,2.19-5.64,3.03-8.4,3.03-7.11,0-12.6-4.89-12.6-13.35Z" style="fill: #fff;"/>
      <path d="M448.17,101.19v-10.29h-3.48v-5.63l3.9-.29.88-6.77h6.24v6.77h6.11v5.92h-6.11v10.2c0,2.89,1.31,4.05,3.3,4.05.84,0,1.75-.24,2.42-.48l1.19,5.48c-1.35.43-3.19.92-5.66.92-6.3,0-8.8-3.98-8.8-9.88Z" style="fill: #fff;"/>
      <path d="M466.24,77.3c0-2.32,1.84-3.95,4.37-3.95s4.37,1.63,4.37,3.95-1.84,3.95-4.37,3.95-4.37-1.65-4.37-3.95ZM466.82,84.97h7.55v25.48h-7.55v-25.48Z" style="fill: #fff;"/>
      <path d="M478.3,84.97h7.58l3.32,12.03c.65,2.53,1.32,5.17,1.97,7.83h.21c.65-2.66,1.32-5.3,1.98-7.83l3.32-12.03h7.23l-8.31,25.48h-8.7l-8.58-25.48Z" style="fill: #fff;"/>
      <path d="M505.97,97.72c0-8.27,5.9-13.36,12.02-13.36,7.26,0,10.85,5.28,10.85,12.23,0,1.36-.17,2.72-.31,3.34h-15.24c.68,3.7,3.21,5.39,6.61,5.39,1.93,0,3.66-.59,5.51-1.67l2.5,4.55c-2.61,1.81-6.02,2.87-9.04,2.87-7.26,0-12.89-4.91-12.89-13.35ZM522.39,94.93c0-2.8-1.22-4.82-4.23-4.82-2.39,0-4.45,1.6-4.96,4.82h9.19Z" style="fill: #fff;"/>
      <path d="M544.96,76.98h8.26l5.43,14.87c.67,1.98,1.26,4.12,1.93,6.18h.21c.67-2.06,1.24-4.2,1.91-6.18l5.26-14.87h8.25v33.47h-6.89v-12.28c0-3.26.61-8.13.97-11.37h-.21l-2.75,7.92-4.73,12.82h-4.2l-4.74-12.82-2.67-7.92h-.21c.36,3.24.97,8.11.97,11.37v12.28h-6.79v-33.47Z" style="fill: #fff;"/>
      <path d="M584.1,76.98h11.46c6.95,0,12.34,1.91,12.34,8.3,0,3-1.68,6.2-4.41,7.23v.21c3.42.89,6.06,3.41,6.06,7.88,0,6.81-5.76,9.86-13.04,9.86h-12.41v-33.47ZM595.2,90.38c3.67,0,5.3-1.55,5.3-3.99,0-2.58-1.71-3.58-5.24-3.58h-3.59v7.57h3.54ZM595.89,104.61c4.12,0,6.26-1.47,6.26-4.51s-2.1-4.13-6.26-4.13h-4.23v8.64h4.23Z" style="fill: #fff;"/>
      <path d="M615.17,76.98h12.05c7.1,0,12.92,2.47,12.92,10.42s-5.82,11-12.92,11h-4.49v12.05h-7.57v-33.47ZM626.61,92.4c3.98,0,6.12-1.7,6.12-4.99s-2.14-4.42-6.12-4.42h-3.87v9.41h3.87ZM625.84,96.41l5.23-4.84,10.68,18.88h-8.47l-7.45-14.04Z" style="fill: #fff;"/>
    </g>
    <g>
      <path d="M244.03,230.75h11.5c7.36,0,13.3,2.63,13.3,10.77s-6.01,11.35-13.1,11.35h-4.14v11.36h-7.57v-33.47ZM255.29,246.86c4.16,0,6.13-1.85,6.13-5.34s-2.24-4.76-6.34-4.76h-3.49v10.1h3.69Z" style="fill: #fff;"/>
      <path d="M274.01,238.74h6.16l.54,4.45h.19c1.85-3.4,4.64-5.07,7.24-5.07,1.46,0,2.3.19,3.04.51l-1.26,6.52c-.91-.22-1.66-.41-2.75-.41-1.92,0-4.25,1.24-5.61,4.71v14.77h-7.55v-25.48Z" style="fill: #fff;"/>
      <path d="M293.87,231.07c0-2.32,1.84-3.95,4.37-3.95s4.37,1.63,4.37,3.95-1.84,3.95-4.37,3.95-4.37-1.65-4.37-3.95ZM294.45,238.74h7.55v25.48h-7.55v-25.48Z" style="fill: #fff;"/>
      <path d="M308.63,238.74h6.16l.54,3.27h.19c2.09-2.1,4.37-3.88,7.72-3.88,3.58,0,5.75,1.55,7.03,4.29,2.24-2.34,4.63-4.29,8-4.29,5.5,0,7.97,3.91,7.97,10.28v15.82h-7.55v-14.85c0-3.67-1-4.81-3.15-4.81-1.28,0-2.73.8-4.34,2.48v17.19h-7.55v-14.85c0-3.67-1-4.81-3.15-4.81-1.26,0-2.73.8-4.34,2.48v17.19h-7.55v-25.48Z" style="fill: #fff;"/>
      <path d="M351.48,257.15c0-5.37,4.27-8.27,14.35-9.34-.15-2.23-1.26-3.68-4.03-3.68-2.14,0-4.27.9-6.74,2.3l-2.68-4.96c3.23-1.98,6.88-3.35,10.88-3.35,6.51,0,10.12,3.72,10.12,11.53v14.57h-6.16l-.54-2.61h-.19c-2.14,1.88-4.55,3.23-7.41,3.23-4.65,0-7.59-3.39-7.59-7.68ZM365.82,256.82v-4.45c-5.37.72-7.12,2.26-7.12,4.18,0,1.64,1.13,2.45,2.92,2.45s2.86-.85,4.2-2.18Z" style="fill: #fff;"/>
      <path d="M379.71,238.74h6.16l.54,4.45h.19c1.85-3.4,4.64-5.07,7.24-5.07,1.46,0,2.3.19,3.04.51l-1.26,6.52c-.91-.22-1.66-.41-2.75-.41-1.92,0-4.25,1.24-5.61,4.71v14.77h-7.55v-25.48Z" style="fill: #fff;"/>
      <path d="M399.74,273.67l1.34-5.75c.47.12,1.17.33,1.72.33,2.49,0,3.8-1.37,4.46-3.35l.38-1.33-9.83-24.83h7.59l3.64,10.96c.74,2.31,1.34,4.72,2.01,7.22h.21c.57-2.41,1.14-4.83,1.77-7.22l3.09-10.96h7.23l-8.84,25.75c-2.42,6.38-5.14,9.69-11.12,9.69-1.58,0-2.59-.21-3.63-.51Z" style="fill: #fff;"/>
      <path d="M436.6,247.68c0-11.1,7.38-17.55,16.31-17.55,4.86,0,8.31,2.07,10.56,4.34l-3.99,4.85c-1.66-1.53-3.45-2.66-6.32-2.66-5.15,0-8.81,4.05-8.81,10.76s3.12,10.88,9.42,10.88c1.34,0,2.73-.35,3.54-1v-5.78h-5.55v-6.18h12.27v15.43c-2.31,2.26-6.37,4.05-11.05,4.05-9.22,0-16.39-5.88-16.39-17.16Z" style="fill: #fff;"/>
      <path d="M470.95,230.75h11.5c7.37,0,13.3,2.63,13.3,10.77s-6.01,11.35-13.1,11.35h-4.14v11.36h-7.57v-33.47ZM482.2,246.86c4.16,0,6.13-1.85,6.13-5.34s-2.24-4.76-6.34-4.76h-3.49v10.1h3.69Z" style="fill: #fff;"/>
      <path d="M507.39,237.1h-9.21v-6.35h25.99v6.35h-9.21v27.13h-7.57v-27.13Z" style="fill: #fff;"/>
      <path d="M539.67,230.75h7.57v12.9h11.55v-12.9h7.57v33.47h-7.57v-13.97h-11.55v13.97h-7.57v-33.47Z" style="fill: #fff;"/>
      <path d="M572.18,251.49c0-8.27,5.9-13.36,12.02-13.36,7.26,0,10.85,5.28,10.85,12.23,0,1.36-.17,2.72-.31,3.34h-15.24c.68,3.7,3.21,5.39,6.61,5.39,1.93,0,3.66-.59,5.51-1.67l2.5,4.55c-2.61,1.81-6.02,2.87-9.04,2.87-7.26,0-12.89-4.91-12.89-13.35ZM588.6,248.7c0-2.8-1.22-4.82-4.23-4.82-2.39,0-4.45,1.6-4.96,4.82h9.19Z" style="fill: #fff;"/>
      <path d="M598.53,257.15c0-5.37,4.27-8.27,14.35-9.34-.15-2.23-1.26-3.68-4.03-3.68-2.14,0-4.27.9-6.74,2.3l-2.68-4.96c3.23-1.98,6.88-3.35,10.88-3.35,6.51,0,10.12,3.72,10.12,11.53v14.57h-6.16l-.54-2.61h-.19c-2.14,1.88-4.55,3.23-7.41,3.23-4.65,0-7.6-3.39-7.6-7.68ZM612.87,256.82v-4.45c-5.37.72-7.12,2.26-7.12,4.18,0,1.64,1.13,2.45,2.92,2.45s2.86-.85,4.2-2.18Z" style="fill: #fff;"/>
      <path d="M625.45,251.49c0-8.33,5.2-13.36,10.57-13.36,2.81,0,4.52,1.05,6.25,2.66l-.27-3.86v-8.68h7.55v35.98h-6.16l-.54-2.53h-.19c-1.8,1.8-4.32,3.14-6.78,3.14-6.33,0-10.42-5.03-10.42-13.35ZM642,256.38v-10.46c-1.33-1.2-2.83-1.61-4.22-1.61-2.45,0-4.59,2.26-4.59,7.1s1.73,7.25,4.65,7.25c1.61,0,2.91-.61,4.16-2.28Z" style="fill: #fff;"/>
      <path d="M654.72,251.49c0-8.27,5.9-13.36,12.02-13.36,7.26,0,10.85,5.28,10.85,12.23,0,1.36-.17,2.72-.31,3.34h-15.24c.68,3.7,3.21,5.39,6.61,5.39,1.93,0,3.66-.59,5.51-1.67l2.5,4.55c-2.61,1.81-6.02,2.87-9.04,2.87-7.26,0-12.89-4.91-12.89-13.35ZM671.14,248.7c0-2.8-1.22-4.82-4.23-4.82-2.39,0-4.45,1.6-4.96,4.82h9.19Z" style="fill: #fff;"/>
      <path d="M682.8,238.74h6.16l.54,4.45h.19c1.85-3.4,4.64-5.07,7.24-5.07,1.46,0,2.3.19,3.04.51l-1.26,6.52c-.91-.22-1.66-.41-2.75-.41-1.92,0-4.25,1.24-5.61,4.71v14.77h-7.55v-25.48Z" style="fill: #fff;"/>
    </g>
    <g>
      <path d="M252.19,538.29h11.46c6.95,0,12.34,1.91,12.34,8.3,0,3-1.68,6.2-4.41,7.23v.21c3.42.89,6.06,3.41,6.06,7.88,0,6.81-5.76,9.86-13.04,9.86h-12.41v-33.47ZM263.3,551.7c3.67,0,5.3-1.55,5.3-3.99,0-2.58-1.72-3.58-5.24-3.58h-3.59v7.57h3.54ZM263.99,565.92c4.13,0,6.26-1.47,6.26-4.51s-2.1-4.13-6.26-4.13h-4.23v8.64h4.23Z" style="fill: #fff;"/>
      <path d="M281.47,564.7c0-5.37,4.27-8.27,14.35-9.34-.15-2.23-1.26-3.68-4.03-3.68-2.14,0-4.27.9-6.74,2.3l-2.68-4.96c3.23-1.98,6.88-3.35,10.88-3.35,6.51,0,10.12,3.72,10.12,11.53v14.57h-6.16l-.54-2.61h-.19c-2.14,1.88-4.55,3.23-7.41,3.23-4.65,0-7.59-3.39-7.59-7.68ZM295.82,564.36v-4.45c-5.37.73-7.12,2.26-7.12,4.19,0,1.64,1.13,2.44,2.92,2.44s2.86-.85,4.2-2.18Z" style="fill: #fff;"/>
      <path d="M308.23,559.03c0-8.47,6.24-13.36,13.28-13.36,3.14,0,5.55,1.12,7.44,2.74l-3.57,4.85c-1.22-1.03-2.24-1.5-3.45-1.5-3.63,0-5.96,2.86-5.96,7.27s2.43,7.25,5.71,7.25c1.67,0,3.27-.83,4.6-1.88l2.96,4.94c-2.48,2.19-5.64,3.03-8.4,3.03-7.11,0-12.6-4.9-12.6-13.35Z" style="fill: #fff;"/>
      <path d="M333.69,535.78h7.38v20.61h.19l8.08-10.11h8.2l-8.92,10.5,9.6,14.98h-8.18l-5.73-9.94-3.23,3.67v6.27h-7.38v-35.98Z" style="fill: #fff;"/>
      <path d="M360.67,562.1v-15.82h7.55v14.85c0,3.67.98,4.81,3.16,4.81,1.9,0,3.06-.8,4.53-2.8v-16.86h7.55v25.48h-6.16l-.54-3.53h-.19c-2.13,2.54-4.52,4.15-8,4.15-5.54,0-7.9-3.91-7.9-10.28Z" style="fill: #fff;"/>
      <path d="M390.09,546.28h6.16l.54,2.51h.19c2-1.78,4.6-3.12,7.26-3.12,6.17,0,9.94,5.1,9.94,12.95,0,8.74-5.2,13.76-10.72,13.76-2.19,0-4.25-.96-6.08-2.66l.25,4.03v7.47h-7.55v-34.93ZM406.44,558.71c0-4.57-1.41-6.86-4.43-6.86-1.55,0-2.89.69-4.38,2.28v10.46c1.37,1.2,2.79,1.61,4.06,1.61,2.63,0,4.74-2.22,4.74-7.5Z" style="fill: #fff;"/>
      <path d="M428.43,555.22c0-11.1,7.38-17.55,16.31-17.55,4.86,0,8.31,2.07,10.56,4.35l-3.99,4.85c-1.66-1.53-3.45-2.66-6.32-2.66-5.15,0-8.81,4.05-8.81,10.76s3.12,10.88,9.42,10.88c1.34,0,2.73-.35,3.54-1v-5.78h-5.55v-6.18h12.27v15.43c-2.31,2.26-6.37,4.05-11.05,4.05-9.22,0-16.39-5.88-16.39-17.16Z" style="fill: #fff;"/>
      <path d="M462.78,538.29h11.5c7.37,0,13.3,2.63,13.3,10.77s-6.01,11.35-13.1,11.35h-4.14v11.36h-7.57v-33.47ZM474.04,554.4c4.16,0,6.13-1.85,6.13-5.34s-2.24-4.76-6.34-4.76h-3.49v10.1h3.69Z" style="fill: #fff;"/>
      <path d="M499.22,544.64h-9.21v-6.35h25.99v6.35h-9.21v27.13h-7.57v-27.13Z" style="fill: #fff;"/>
      <path d="M531.5,538.29h7.57v12.9h11.55v-12.9h7.57v33.47h-7.57v-13.97h-11.55v13.97h-7.57v-33.47Z" style="fill: #fff;"/>
      <path d="M564.01,559.03c0-8.27,5.9-13.36,12.02-13.36,7.26,0,10.85,5.28,10.85,12.23,0,1.36-.17,2.72-.31,3.34h-15.24c.68,3.7,3.21,5.39,6.61,5.39,1.93,0,3.66-.59,5.51-1.67l2.5,4.55c-2.61,1.81-6.02,2.87-9.04,2.87-7.26,0-12.89-4.91-12.89-13.35ZM580.43,556.24c0-2.8-1.22-4.82-4.23-4.82-2.39,0-4.45,1.6-4.96,4.82h9.19Z" style="fill: #fff;"/>
      <path d="M590.36,564.7c0-5.37,4.27-8.27,14.35-9.34-.15-2.23-1.26-3.68-4.03-3.68-2.14,0-4.27.9-6.74,2.3l-2.68-4.96c3.23-1.98,6.88-3.35,10.88-3.35,6.51,0,10.12,3.72,10.12,11.53v14.57h-6.16l-.54-2.61h-.19c-2.14,1.88-4.55,3.23-7.41,3.23-4.65,0-7.59-3.39-7.59-7.68ZM604.71,564.36v-4.45c-5.37.73-7.12,2.26-7.12,4.19,0,1.64,1.13,2.44,2.92,2.44s2.86-.85,4.2-2.18Z" style="fill: #fff;"/>
      <path d="M617.29,559.03c0-8.33,5.2-13.36,10.57-13.36,2.81,0,4.52,1.05,6.25,2.66l-.27-3.86v-8.68h7.55v35.98h-6.16l-.54-2.53h-.19c-1.8,1.8-4.32,3.14-6.78,3.14-6.33,0-10.42-5.03-10.42-13.35ZM633.83,563.92v-10.46c-1.33-1.2-2.83-1.61-4.22-1.61-2.45,0-4.59,2.26-4.59,7.1s1.73,7.25,4.65,7.25c1.61,0,2.91-.61,4.16-2.28Z" style="fill: #fff;"/>
      <path d="M646.55,559.03c0-8.27,5.9-13.36,12.02-13.36,7.26,0,10.85,5.28,10.85,12.23,0,1.36-.17,2.72-.31,3.34h-15.24c.68,3.7,3.21,5.39,6.61,5.39,1.93,0,3.66-.59,5.51-1.67l2.5,4.55c-2.61,1.81-6.02,2.87-9.04,2.87-7.26,0-12.89-4.91-12.89-13.35ZM662.97,556.24c0-2.8-1.22-4.82-4.23-4.82-2.39,0-4.45,1.6-4.96,4.82h9.19Z" style="fill: #fff;"/>
      <path d="M674.63,546.28h6.16l.54,4.45h.19c1.86-3.4,4.64-5.07,7.24-5.07,1.46,0,2.3.19,3.04.51l-1.26,6.52c-.91-.22-1.66-.41-2.75-.41-1.92,0-4.25,1.24-5.61,4.71v14.77h-7.55v-25.48Z" style="fill: #fff;"/>
    </g>
    <g>
      <path d="M238.97,384.52h11.5c7.36,0,13.3,2.63,13.3,10.77s-6.01,11.35-13.1,11.35h-4.14v11.36h-7.57v-33.47ZM250.23,400.63c4.16,0,6.13-1.85,6.13-5.34s-2.24-4.76-6.34-4.76h-3.49v10.1h3.69Z" style="fill: #fff;"/>
      <path d="M266.04,410.93c0-5.37,4.27-8.27,14.35-9.34-.15-2.23-1.26-3.68-4.03-3.68-2.14,0-4.27.9-6.74,2.3l-2.68-4.96c3.23-1.98,6.88-3.35,10.88-3.35,6.51,0,10.12,3.72,10.12,11.53v14.57h-6.16l-.54-2.61h-.19c-2.14,1.88-4.55,3.23-7.41,3.23-4.65,0-7.59-3.39-7.59-7.68ZM280.38,410.59v-4.45c-5.37.72-7.12,2.26-7.12,4.18,0,1.64,1.13,2.45,2.92,2.45s2.86-.85,4.2-2.18Z" style="fill: #fff;"/>
      <path d="M294.28,392.51h6.16l.54,4.45h.19c1.85-3.4,4.64-5.07,7.24-5.07,1.46,0,2.3.19,3.04.51l-1.26,6.52c-.91-.22-1.66-.41-2.75-.41-1.92,0-4.25,1.24-5.61,4.71v14.77h-7.55v-25.48Z" style="fill: #fff;"/>
      <path d="M315.74,408.73v-10.29h-3.48v-5.63l3.9-.29.88-6.77h6.24v6.77h6.11v5.92h-6.11v10.2c0,2.89,1.31,4.05,3.3,4.05.84,0,1.75-.24,2.42-.48l1.19,5.48c-1.35.43-3.19.92-5.66.92-6.3,0-8.8-3.98-8.8-9.88Z" style="fill: #fff;"/>
      <path d="M333.8,384.84c0-2.32,1.84-3.95,4.37-3.95s4.37,1.63,4.37,3.95-1.84,3.95-4.37,3.95-4.37-1.65-4.37-3.95ZM334.39,392.51h7.55v25.48h-7.55v-25.48Z" style="fill: #fff;"/>
      <path d="M349.59,408.73v-10.29h-3.48v-5.63l3.9-.29.88-6.77h6.24v6.77h6.11v5.92h-6.11v10.2c0,2.89,1.31,4.05,3.3,4.05.84,0,1.75-.24,2.42-.48l1.19,5.48c-1.35.43-3.19.92-5.66.92-6.3,0-8.8-3.98-8.8-9.88Z" style="fill: #fff;"/>
      <path d="M367.65,384.84c0-2.32,1.84-3.95,4.37-3.95s4.37,1.63,4.37,3.95-1.84,3.95-4.37,3.95-4.37-1.65-4.37-3.95ZM368.24,392.51h7.55v25.48h-7.55v-25.48Z" style="fill: #fff;"/>
      <path d="M380.93,405.26c0-8.47,5.96-13.36,12.41-13.36s12.41,4.89,12.41,13.36-5.96,13.35-12.41,13.35-12.41-4.89-12.41-13.35ZM398.02,405.26c0-4.41-1.55-7.27-4.67-7.27s-4.67,2.86-4.67,7.27,1.55,7.25,4.67,7.25,4.67-2.84,4.67-7.25Z" style="fill: #fff;"/>
      <path d="M410.92,392.51h6.16l.54,3.23h.19c2.14-2.06,4.71-3.84,8.19-3.84,5.54,0,7.9,3.91,7.9,10.28v15.82h-7.55v-14.85c0-3.67-.98-4.81-3.16-4.81-1.9,0-3.06.88-4.72,2.48v17.19h-7.55v-25.48Z" style="fill: #fff;"/>
      <path d="M451.2,384.52h20.97v6.35h-13.41v6.72h11.41v6.35h-11.41v7.71h13.92v6.35h-21.49v-33.47Z" style="fill: #fff;"/>
      <path d="M478.71,392.51h6.16l.54,3.23h.19c2.14-2.06,4.71-3.84,8.19-3.84,5.54,0,7.9,3.91,7.9,10.28v15.82h-7.55v-14.85c0-3.67-.98-4.81-3.16-4.81-1.9,0-3.06.88-4.72,2.48v17.19h-7.55v-25.48Z" style="fill: #fff;"/>
      <path d="M509.12,408.73v-10.29h-3.48v-5.63l3.9-.29.88-6.77h6.24v6.77h6.11v5.92h-6.11v10.2c0,2.89,1.31,4.05,3.3,4.05.84,0,1.75-.24,2.42-.48l1.19,5.48c-1.35.43-3.19.92-5.66.92-6.3,0-8.8-3.98-8.8-9.88Z" style="fill: #fff;"/>
      <path d="M527.77,392.51h6.16l.54,4.45h.19c1.86-3.4,4.64-5.07,7.24-5.07,1.46,0,2.3.19,3.04.51l-1.26,6.52c-.91-.22-1.66-.41-2.75-.41-1.92,0-4.25,1.24-5.61,4.71v14.77h-7.55v-25.48Z" style="fill: #fff;"/>
      <path d="M547.79,427.44l1.34-5.75c.47.12,1.17.33,1.72.33,2.49,0,3.8-1.37,4.46-3.35l.38-1.33-9.83-24.83h7.58l3.64,10.96c.74,2.31,1.34,4.72,2.01,7.22h.21c.57-2.41,1.14-4.83,1.77-7.22l3.09-10.96h7.23l-8.84,25.75c-2.42,6.38-5.14,9.69-11.13,9.69-1.58,0-2.59-.21-3.63-.51Z" style="fill: #fff;"/>
      <path d="M592.45,384.52h9.05l10.51,33.47h-8.01l-4.38-16.95c-.93-3.35-1.82-7.3-2.72-10.8h-.21c-.81,3.53-1.7,7.45-2.63,10.8l-4.4,16.95h-7.74l10.51-33.47ZM588.87,404.14h16.1v5.88h-16.1v-5.88Z" style="fill: #fff;"/>
      <path d="M615.03,392.51h6.16l.54,4.45h.19c1.85-3.4,4.64-5.07,7.24-5.07,1.46,0,2.3.19,3.04.51l-1.26,6.52c-.91-.22-1.66-.41-2.75-.41-1.92,0-4.25,1.24-5.61,4.71v14.77h-7.55v-25.48Z" style="fill: #fff;"/>
      <path d="M635.47,392.51h6.16l.54,4.45h.19c1.86-3.4,4.64-5.07,7.24-5.07,1.46,0,2.3.19,3.04.51l-1.26,6.52c-.91-.22-1.66-.41-2.75-.41-1.92,0-4.25,1.24-5.61,4.71v14.77h-7.55v-25.48Z" style="fill: #fff;"/>
      <path d="M653.3,410.93c0-5.37,4.27-8.27,14.35-9.34-.15-2.23-1.26-3.68-4.03-3.68-2.14,0-4.27.9-6.74,2.3l-2.68-4.96c3.23-1.98,6.88-3.35,10.88-3.35,6.51,0,10.12,3.72,10.12,11.53v14.57h-6.16l-.54-2.61h-.19c-2.14,1.88-4.55,3.23-7.41,3.23-4.65,0-7.59-3.39-7.59-7.68ZM667.65,410.59v-4.45c-5.37.72-7.12,2.26-7.12,4.18,0,1.64,1.13,2.45,2.92,2.45s2.86-.85,4.2-2.18Z" style="fill: #fff;"/>
      <path d="M680.77,427.44l1.34-5.75c.47.12,1.17.33,1.72.33,2.49,0,3.8-1.37,4.46-3.35l.38-1.33-9.83-24.83h7.58l3.64,10.96c.74,2.31,1.34,4.72,2.01,7.22h.21c.57-2.41,1.14-4.83,1.77-7.22l3.09-10.96h7.23l-8.84,25.75c-2.42,6.38-5.14,9.69-11.13,9.69-1.58,0-2.59-.21-3.63-.51Z" style="fill: #fff;"/>
    </g>
    <g>
      <path d="M150.06,692.06h11.46c6.95,0,12.34,1.91,12.34,8.3,0,3-1.68,6.2-4.41,7.23v.21c3.42.89,6.06,3.41,6.06,7.88,0,6.81-5.76,9.86-13.04,9.86h-12.41v-33.47ZM161.17,705.47c3.67,0,5.3-1.55,5.3-3.99,0-2.58-1.72-3.58-5.24-3.58h-3.59v7.57h3.54ZM161.86,719.69c4.13,0,6.26-1.47,6.26-4.51s-2.1-4.13-6.26-4.13h-4.23v8.64h4.23Z" style="fill: #fff;"/>
      <path d="M179.34,718.47c0-5.37,4.27-8.28,14.35-9.34-.15-2.23-1.26-3.68-4.03-3.68-2.14,0-4.27.9-6.74,2.3l-2.68-4.96c3.23-1.98,6.88-3.35,10.88-3.35,6.51,0,10.12,3.72,10.12,11.53v14.57h-6.16l-.54-2.61h-.19c-2.14,1.88-4.55,3.23-7.41,3.23-4.65,0-7.59-3.39-7.59-7.68ZM193.69,718.13v-4.45c-5.37.72-7.12,2.26-7.12,4.18,0,1.64,1.13,2.45,2.92,2.45s2.86-.85,4.2-2.18Z" style="fill: #fff;"/>
      <path d="M206.1,712.8c0-8.47,6.24-13.36,13.28-13.36,3.14,0,5.55,1.12,7.44,2.74l-3.57,4.85c-1.22-1.03-2.24-1.5-3.45-1.5-3.63,0-5.96,2.86-5.96,7.27s2.43,7.25,5.71,7.25c1.67,0,3.27-.83,4.6-1.88l2.96,4.94c-2.48,2.19-5.64,3.03-8.4,3.03-7.11,0-12.6-4.89-12.6-13.35Z" style="fill: #fff;"/>
      <path d="M231.56,689.55h7.38v20.61h.19l8.08-10.11h8.2l-8.92,10.5,9.6,14.98h-8.18l-5.73-9.94-3.23,3.67v6.27h-7.38v-35.98Z" style="fill: #fff;"/>
      <path d="M258.54,715.87v-15.82h7.55v14.85c0,3.67.98,4.81,3.16,4.81,1.9,0,3.06-.8,4.53-2.8v-16.86h7.55v25.48h-6.16l-.54-3.53h-.19c-2.13,2.54-4.52,4.15-8,4.15-5.54,0-7.9-3.91-7.9-10.28Z" style="fill: #fff;"/>
      <path d="M287.96,700.05h6.16l.54,2.51h.19c2-1.78,4.6-3.12,7.26-3.12,6.17,0,9.94,5.1,9.94,12.95,0,8.74-5.2,13.76-10.72,13.76-2.19,0-4.25-.96-6.08-2.66l.25,4.03v7.47h-7.55v-34.93ZM304.31,712.48c0-4.57-1.41-6.86-4.43-6.86-1.55,0-2.89.69-4.38,2.28v10.46c1.37,1.2,2.79,1.61,4.06,1.61,2.63,0,4.74-2.22,4.74-7.49Z" style="fill: #fff;"/>
      <path d="M327.88,692.06h11.5c7.36,0,13.3,2.64,13.3,10.77s-6.01,11.35-13.1,11.35h-4.14v11.36h-7.57v-33.47ZM339.14,708.17c4.16,0,6.13-1.85,6.13-5.34s-2.24-4.76-6.34-4.76h-3.49v10.1h3.69Z" style="fill: #fff;"/>
      <path d="M354.94,718.47c0-5.37,4.27-8.28,14.35-9.34-.15-2.23-1.26-3.68-4.03-3.68-2.14,0-4.27.9-6.74,2.3l-2.68-4.96c3.23-1.98,6.88-3.35,10.88-3.35,6.51,0,10.12,3.72,10.12,11.53v14.57h-6.16l-.54-2.61h-.19c-2.14,1.88-4.55,3.23-7.41,3.23-4.65,0-7.59-3.39-7.59-7.68ZM369.29,718.13v-4.45c-5.37.72-7.12,2.26-7.12,4.18,0,1.64,1.13,2.45,2.92,2.45s2.86-.85,4.2-2.18Z" style="fill: #fff;"/>
      <path d="M383.18,700.05h6.16l.54,4.45h.19c1.85-3.4,4.64-5.07,7.24-5.07,1.46,0,2.3.19,3.04.51l-1.26,6.52c-.91-.22-1.66-.41-2.75-.41-1.92,0-4.25,1.24-5.61,4.71v14.77h-7.55v-25.48Z" style="fill: #fff;"/>
      <path d="M404.65,716.27v-10.29h-3.48v-5.63l3.9-.29.88-6.77h6.24v6.77h6.11v5.92h-6.11v10.2c0,2.89,1.31,4.05,3.3,4.05.84,0,1.75-.24,2.42-.48l1.19,5.48c-1.35.43-3.19.92-5.66.92-6.3,0-8.8-3.98-8.8-9.88Z" style="fill: #fff;"/>
      <path d="M422.71,692.38c0-2.32,1.84-3.95,4.37-3.95s4.37,1.63,4.37,3.95-1.84,3.95-4.37,3.95-4.37-1.65-4.37-3.95ZM423.3,700.05h7.55v25.48h-7.55v-25.48Z" style="fill: #fff;"/>
      <path d="M438.49,716.27v-10.29h-3.48v-5.63l3.9-.29.88-6.77h6.24v6.77h6.11v5.92h-6.11v10.2c0,2.89,1.31,4.05,3.3,4.05.84,0,1.75-.24,2.42-.48l1.19,5.48c-1.35.43-3.19.92-5.66.92-6.3,0-8.8-3.98-8.8-9.88Z" style="fill: #fff;"/>
      <path d="M456.56,692.38c0-2.32,1.84-3.95,4.37-3.95s4.37,1.63,4.37,3.95-1.84,3.95-4.37,3.95-4.37-1.65-4.37-3.95ZM457.14,700.05h7.55v25.48h-7.55v-25.48Z" style="fill: #fff;"/>
      <path d="M469.84,712.8c0-8.47,5.97-13.36,12.41-13.36s12.41,4.89,12.41,13.36-5.96,13.35-12.41,13.35-12.41-4.89-12.41-13.35ZM486.92,712.8c0-4.41-1.55-7.27-4.67-7.27s-4.67,2.86-4.67,7.27,1.55,7.25,4.67,7.25,4.67-2.85,4.67-7.25Z" style="fill: #fff;"/>
      <path d="M499.82,700.05h6.16l.54,3.23h.19c2.14-2.06,4.71-3.84,8.19-3.84,5.54,0,7.9,3.91,7.9,10.28v15.82h-7.55v-14.85c0-3.67-.98-4.81-3.16-4.81-1.9,0-3.06.88-4.72,2.48v17.19h-7.55v-25.48Z" style="fill: #fff;"/>
      <path d="M540.1,692.06h20.97v6.35h-13.41v6.72h11.41v6.35h-11.41v7.71h13.92v6.35h-21.49v-33.47Z" style="fill: #fff;"/>
      <path d="M567.62,700.05h6.16l.54,3.23h.19c2.14-2.06,4.71-3.84,8.19-3.84,5.54,0,7.9,3.91,7.9,10.28v15.82h-7.55v-14.85c0-3.67-.98-4.81-3.16-4.81-1.9,0-3.06.88-4.72,2.48v17.19h-7.55v-25.48Z" style="fill: #fff;"/>
      <path d="M598.02,716.27v-10.29h-3.48v-5.63l3.9-.29.88-6.77h6.24v6.77h6.11v5.92h-6.11v10.2c0,2.89,1.31,4.05,3.3,4.05.84,0,1.75-.24,2.42-.48l1.19,5.48c-1.35.43-3.19.92-5.66.92-6.3,0-8.8-3.98-8.8-9.88Z" style="fill: #fff;"/>
      <path d="M616.67,700.05h6.16l.54,4.45h.19c1.86-3.4,4.64-5.07,7.24-5.07,1.46,0,2.3.19,3.04.51l-1.26,6.52c-.91-.22-1.66-.41-2.75-.41-1.92,0-4.25,1.24-5.61,4.71v14.77h-7.55v-25.48Z" style="fill: #fff;"/>
      <path d="M636.7,734.98l1.34-5.75c.47.12,1.17.33,1.72.33,2.49,0,3.8-1.37,4.46-3.35l.38-1.33-9.83-24.83h7.58l3.64,10.96c.74,2.31,1.34,4.72,2.01,7.22h.21c.57-2.41,1.14-4.83,1.77-7.22l3.09-10.96h7.23l-8.84,25.75c-2.42,6.38-5.14,9.69-11.13,9.69-1.58,0-2.59-.21-3.63-.51Z" style="fill: #fff;"/>
      <path d="M681.36,692.06h9.05l10.51,33.47h-8.01l-4.38-16.95c-.93-3.35-1.82-7.31-2.72-10.8h-.21c-.81,3.53-1.7,7.45-2.63,10.8l-4.4,16.95h-7.74l10.51-33.47ZM677.78,711.68h16.1v5.88h-16.1v-5.88Z" style="fill: #fff;"/>
      <path d="M703.93,700.05h6.16l.54,4.45h.19c1.85-3.4,4.64-5.07,7.24-5.07,1.46,0,2.3.19,3.04.51l-1.26,6.52c-.91-.22-1.66-.41-2.75-.41-1.92,0-4.25,1.24-5.61,4.71v14.77h-7.55v-25.48Z" style="fill: #fff;"/>
      <path d="M724.38,700.05h6.16l.54,4.45h.19c1.86-3.4,4.64-5.07,7.24-5.07,1.46,0,2.3.19,3.04.51l-1.26,6.52c-.91-.22-1.66-.41-2.75-.41-1.92,0-4.25,1.24-5.61,4.71v14.77h-7.55v-25.48Z" style="fill: #fff;"/>
      <path d="M742.21,718.47c0-5.37,4.27-8.28,14.35-9.34-.15-2.23-1.26-3.68-4.03-3.68-2.14,0-4.27.9-6.74,2.3l-2.68-4.96c3.23-1.98,6.88-3.35,10.88-3.35,6.51,0,10.12,3.72,10.12,11.53v14.57h-6.16l-.54-2.61h-.19c-2.14,1.88-4.55,3.23-7.41,3.23-4.65,0-7.6-3.39-7.6-7.68ZM756.56,718.13v-4.45c-5.37.72-7.12,2.26-7.12,4.18,0,1.64,1.13,2.45,2.92,2.45s2.86-.85,4.2-2.18Z" style="fill: #fff;"/>
      <path d="M769.67,734.98l1.34-5.75c.47.12,1.17.33,1.72.33,2.49,0,3.8-1.37,4.46-3.35l.38-1.33-9.83-24.83h7.58l3.64,10.96c.74,2.31,1.34,4.72,2.01,7.22h.21c.57-2.41,1.14-4.83,1.77-7.22l3.09-10.96h7.23l-8.84,25.75c-2.42,6.38-5.14,9.69-11.13,9.69-1.58,0-2.59-.21-3.63-.51Z" style="fill: #fff;"/>
    </g>
    <rect x="7.3" y="167.73" width="925.4" height="3.23" style="fill: #a3ea2a;"/>
    <rect x="7.3" y="321.5" width="925.4" height="3.23" style="fill: #a3ea2a;"/>
    <rect x="7.3" y="475.27" width="925.4" height="3.23" style="fill: #a3ea2a;"/>
    <rect x="7.3" y="629.04" width="925.4" height="3.23" style="fill: #a3ea2a;"/>
  </g>
</svg>