<?xml version="1.0" encoding="UTF-8"?>
<svg id="Layer_1" data-name="Layer 1" xmlns="http://www.w3.org/2000/svg" width="450" height="1140" viewBox="0 0 450 1140">
  <g id="arrow_styles_for_diagrams_etc" data-name="arrow styles for diagrams etc">
    <g id="arrow_styles_for_diagrams_etc-2" data-name="arrow styles for diagrams etc">
      <g id="arrow_styles_for_diagrams_etc-3" data-name="arrow styles for diagrams etc">
        <path d="M223.45,198.06l-23.49-40.85c-.69-1.21.18-2.71,1.57-2.71h12.12v-76.6c0-3.62,2.93-6.55,6.55-6.55h9.62c3.61,0,6.54,2.93,6.54,6.54v76.62h12.12c1.4,0,2.26,1.51,1.57,2.71l-23.49,40.85c-.69,1.21-2.42,1.21-3.11,0Z" style="fill: #a3ea2a;"/>
      </g>
    </g>
  </g>
  <rect x="15.22" y="13.34" width="419.56" height="80.06" rx="12.46" ry="12.46" style="fill: #223654;"/>
  <g>
    <rect x="26.51" y="22.17" width="396.99" height="62.4" style="fill: none;"/>
    <path d="M72.27,43.23h7.53c4.82,0,8.71,1.73,8.71,7.05s-3.93,7.43-8.58,7.43h-2.71v7.44h-4.96v-21.92ZM79.64,53.78c2.72,0,4.01-1.21,4.01-3.5s-1.47-3.12-4.15-3.12h-2.28v6.61h2.42Z" style="fill: #fff;"/>
    <path d="M90.23,56.81c0-5.55,3.91-8.75,8.13-8.75s8.13,3.2,8.13,8.75-3.91,8.74-8.13,8.74-8.13-3.21-8.13-8.74ZM101.42,56.81c0-2.89-1.02-4.76-3.06-4.76s-3.06,1.87-3.06,4.76,1.02,4.75,3.06,4.75,3.06-1.86,3.06-4.75Z" style="fill: #fff;"/>
    <path d="M108.23,48.46h4.91l1.6,7.73c.29,1.65.47,3.27.76,4.96h.13c.29-1.69.59-3.37.99-4.96l1.82-7.73h4.29l1.87,7.73c.4,1.65.7,3.27,1.04,4.96h.13c.29-1.69.47-3.31.77-4.96l1.59-7.73h4.57l-3.99,16.69h-5.79l-1.53-6.67c-.3-1.55-.59-3.08-.89-4.88h-.13c-.29,1.8-.53,3.34-.85,4.89l-1.46,6.66h-5.66l-4.18-16.69Z" style="fill: #fff;"/>
    <path d="M134.45,56.81c0-5.41,3.86-8.75,7.87-8.75,4.75,0,7.11,3.45,7.11,8.01,0,.89-.11,1.78-.21,2.18h-9.98c.44,2.42,2.1,3.53,4.33,3.53,1.26,0,2.4-.38,3.61-1.09l1.63,2.98c-1.71,1.18-3.94,1.88-5.92,1.88-4.76,0-8.44-3.22-8.44-8.74ZM145.21,54.98c0-1.83-.8-3.16-2.77-3.16-1.56,0-2.91,1.05-3.25,3.16h6.02Z" style="fill: #fff;"/>
    <path d="M152.85,48.46h4.03l.36,2.92h.12c1.21-2.23,3.04-3.32,4.74-3.32.95,0,1.51.12,1.99.34l-.82,4.27c-.59-.15-1.08-.27-1.8-.27-1.26,0-2.79.81-3.68,3.09v9.67h-4.94v-16.69Z" style="fill: #fff;"/>
    <path d="M164.57,54.88h8.26v3.5h-8.26v-3.5Z" style="fill: #fff;"/>
    <path d="M175.49,56.81c0-5.55,3.91-8.75,8.13-8.75s8.13,3.2,8.13,8.75-3.91,8.74-8.13,8.74-8.13-3.21-8.13-8.74ZM186.68,56.81c0-2.89-1.02-4.76-3.06-4.76s-3.06,1.87-3.06,4.76,1.02,4.75,3.06,4.75,3.06-1.86,3.06-4.75Z" style="fill: #fff;"/>
    <path d="M195.12,48.46h4.03l.36,2.11h.12c1.4-1.35,3.09-2.52,5.36-2.52,3.63,0,5.18,2.56,5.18,6.73v10.36h-4.94v-9.73c0-2.4-.64-3.15-2.07-3.15-1.24,0-2,.58-3.09,1.62v11.26h-4.94v-16.69Z" style="fill: #fff;"/>
    <path d="M221.76,59.08v-6.74h-2.28v-3.69l2.56-.19.58-4.43h4.09v4.43h4v3.88h-4v6.68c0,1.89.86,2.65,2.16,2.65.55,0,1.15-.16,1.59-.32l.78,3.59c-.89.28-2.09.61-3.71.61-4.12,0-5.76-2.6-5.76-6.47Z" style="fill: #fff;"/>
    <path d="M233.97,41.59h4.94v5.76l-.22,3.02c1.25-1.14,2.88-2.31,5.15-2.31,3.63,0,5.17,2.56,5.17,6.73v10.36h-4.94v-9.73c0-2.4-.64-3.15-2.07-3.15-1.24,0-2,.58-3.09,1.62v11.26h-4.94v-23.56Z" style="fill: #fff;"/>
    <path d="M252.21,56.81c0-5.41,3.86-8.75,7.87-8.75,4.75,0,7.11,3.45,7.11,8.01,0,.89-.11,1.78-.21,2.18h-9.98c.44,2.42,2.1,3.53,4.33,3.53,1.26,0,2.4-.38,3.61-1.09l1.63,2.98c-1.71,1.18-3.94,1.88-5.92,1.88-4.76,0-8.44-3.22-8.44-8.74ZM262.96,54.98c0-1.83-.8-3.16-2.77-3.16-1.56,0-2.91,1.05-3.25,3.16h6.02Z" style="fill: #fff;"/>
    <path d="M275.85,63.22l2.22-3.08c1.51,1.14,2.91,1.75,4.3,1.75,1.47,0,2.11-.56,2.11-1.44,0-1.1-1.65-1.6-3.37-2.27-2.04-.79-4.42-2.15-4.42-4.91,0-3.11,2.52-5.22,6.38-5.22,2.56,0,4.46,1.03,5.88,2.11l-2.21,2.97c-1.19-.86-2.36-1.42-3.51-1.42-1.28,0-1.91.5-1.91,1.33,0,1.06,1.56,1.47,3.29,2.1,2.11.78,4.49,1.97,4.49,5.02s-2.38,5.38-6.85,5.38c-2.2,0-4.72-.95-6.41-2.33Z" style="fill: #fff;"/>
    <path d="M291.72,71.34l.88-3.77c.31.08.76.21,1.12.21,1.63,0,2.49-.9,2.92-2.19l.25-.87-6.44-16.26h4.97l2.38,7.18c.48,1.51.88,3.09,1.32,4.73h.13c.37-1.58.74-3.16,1.16-4.73l2.03-7.18h4.73l-5.79,16.87c-1.58,4.18-3.36,6.34-7.28,6.34-1.04,0-1.7-.13-2.38-.34Z" style="fill: #fff;"/>
    <path d="M308.27,63.22l2.22-3.08c1.51,1.14,2.91,1.75,4.3,1.75,1.47,0,2.11-.56,2.11-1.44,0-1.1-1.65-1.6-3.37-2.27-2.04-.79-4.42-2.15-4.42-4.91,0-3.11,2.52-5.22,6.38-5.22,2.56,0,4.46,1.03,5.88,2.11l-2.21,2.97c-1.19-.86-2.36-1.42-3.51-1.42-1.28,0-1.91.5-1.91,1.33,0,1.06,1.56,1.47,3.29,2.1,2.11.78,4.49,1.97,4.49,5.02s-2.38,5.38-6.85,5.38c-2.2,0-4.72-.95-6.41-2.33Z" style="fill: #fff;"/>
    <path d="M324.64,59.08v-6.74h-2.28v-3.69l2.56-.19.58-4.43h4.09v4.43h4v3.88h-4v6.68c0,1.89.86,2.65,2.16,2.65.55,0,1.15-.16,1.59-.32l.78,3.59c-.89.28-2.09.61-3.71.61-4.12,0-5.76-2.6-5.76-6.47Z" style="fill: #fff;"/>
    <path d="M335.28,56.81c0-5.41,3.86-8.75,7.87-8.75,4.75,0,7.11,3.45,7.11,8.01,0,.89-.11,1.78-.21,2.18h-9.98c.44,2.42,2.1,3.53,4.33,3.53,1.26,0,2.4-.38,3.61-1.09l1.63,2.98c-1.71,1.18-3.94,1.88-5.92,1.88-4.76,0-8.44-3.22-8.44-8.74ZM346.03,54.98c0-1.83-.8-3.16-2.77-3.16-1.56,0-2.91,1.05-3.25,3.16h6.02Z" style="fill: #fff;"/>
    <path d="M353.67,48.46h4.03l.36,2.14h.12c1.37-1.38,2.86-2.54,5.06-2.54,2.35,0,3.76,1.01,4.61,2.81,1.47-1.53,3.03-2.81,5.24-2.81,3.6,0,5.22,2.56,5.22,6.73v10.36h-4.94v-9.73c0-2.4-.66-3.15-2.06-3.15-.84,0-1.79.52-2.84,1.62v11.26h-4.94v-9.73c0-2.4-.66-3.15-2.06-3.15-.83,0-1.79.52-2.84,1.62v11.26h-4.94v-16.69Z" style="fill: #fff;"/>
  </g>
  <g id="arrow_styles_for_diagrams_etc-4" data-name="arrow styles for diagrams etc">
    <g id="arrow_styles_for_diagrams_etc-5" data-name="arrow styles for diagrams etc">
      <g id="arrow_styles_for_diagrams_etc-6" data-name="arrow styles for diagrams etc">
        <path d="M223.45,599l-23.49-40.85c-.69-1.21.18-2.71,1.57-2.71h12.12v-76.6c0-3.62,2.93-6.55,6.55-6.55h9.62c3.61,0,6.54,2.93,6.54,6.54v76.62h12.12c1.4,0,2.26,1.51,1.57,2.71l-23.49,40.85c-.69,1.21-2.42,1.21-3.11,0Z" style="fill: #a3ea2a;"/>
      </g>
    </g>
  </g>
  <rect x="15.22" y="414.28" width="419.56" height="80.06" rx="12.46" ry="12.46" style="fill: #223654;"/>
  <g>
    <rect x="26.51" y="423.11" width="396.99" height="62.4" style="fill: none;"/>
    <path d="M58.33,444.18h4.96v17.76h8.65v4.16h-13.61v-21.92Z" style="fill: #fff;"/>
    <path d="M73.9,457.76c0-5.55,3.91-8.75,8.13-8.75s8.13,3.2,8.13,8.75-3.91,8.74-8.13,8.74-8.13-3.2-8.13-8.74ZM85.09,457.76c0-2.89-1.02-4.76-3.06-4.76s-3.06,1.87-3.06,4.76,1.02,4.75,3.06,4.75,3.06-1.86,3.06-4.75Z" style="fill: #fff;"/>
    <path d="M92.56,457.76c0-5.55,4.08-8.75,8.69-8.75,2.05,0,3.63.73,4.87,1.8l-2.33,3.18c-.8-.68-1.47-.98-2.26-.98-2.38,0-3.9,1.87-3.9,4.76s1.59,4.75,3.74,4.75c1.1,0,2.14-.54,3.01-1.23l1.94,3.23c-1.62,1.43-3.69,1.99-5.5,1.99-4.66,0-8.25-3.2-8.25-8.74Z" style="fill: #fff;"/>
    <path d="M108.14,461.47c0-3.51,2.8-5.42,9.4-6.11-.1-1.46-.83-2.41-2.64-2.41-1.4,0-2.8.59-4.42,1.51l-1.76-3.25c2.12-1.29,4.5-2.2,7.13-2.2,4.27,0,6.63,2.44,6.63,7.55v9.54h-4.03l-.36-1.71h-.12c-1.4,1.23-2.98,2.11-4.85,2.11-3.04,0-4.97-2.22-4.97-5.03ZM117.53,461.25v-2.91c-3.52.47-4.66,1.48-4.66,2.74,0,1.08.74,1.6,1.91,1.6s1.87-.55,2.75-1.43Z" style="fill: #fff;"/>
    <path d="M126.69,460.03v-6.74h-2.28v-3.69l2.56-.19.58-4.43h4.09v4.43h4v3.88h-4v6.68c0,1.89.86,2.65,2.16,2.65.55,0,1.15-.16,1.59-.32l.78,3.59c-.89.28-2.09.61-3.71.61-4.12,0-5.76-2.6-5.76-6.47Z" style="fill: #fff;"/>
    <path d="M137.33,457.76c0-5.41,3.86-8.75,7.87-8.75,4.75,0,7.11,3.45,7.11,8.01,0,.89-.11,1.78-.21,2.18h-9.98c.44,2.42,2.1,3.53,4.33,3.53,1.26,0,2.4-.38,3.61-1.09l1.63,2.98c-1.71,1.18-3.94,1.88-5.92,1.88-4.76,0-8.44-3.22-8.44-8.74ZM148.08,455.93c0-1.83-.8-3.16-2.77-3.16-1.56,0-2.91,1.05-3.25,3.16h6.02Z" style="fill: #fff;"/>
    <path d="M166.85,464.31h-.12l-.41,1.78h-3.87v-23.56h4.94v5.76l-.12,2.56c1.27-1.14,2.84-1.85,4.41-1.85,4.04,0,6.54,3.34,6.54,8.46,0,5.75-3.41,9.04-7.02,9.04-1.49,0-3.03-.75-4.36-2.18ZM173.16,457.54c0-2.99-.93-4.49-2.9-4.49-1.02,0-1.9.45-2.87,1.5v6.85c.89.78,1.83,1.06,2.66,1.06,1.72,0,3.1-1.46,3.1-4.91Z" style="fill: #fff;"/>
    <path d="M180.75,457.76c0-5.55,3.91-8.75,8.13-8.75s8.13,3.2,8.13,8.75-3.91,8.74-8.13,8.74-8.13-3.2-8.13-8.74ZM191.94,457.76c0-2.89-1.02-4.76-3.06-4.76s-3.06,1.87-3.06,4.76,1.02,4.75,3.06,4.75,3.06-1.86,3.06-4.75Z" style="fill: #fff;"/>
    <path d="M199.42,457.76c0-5.55,3.91-8.75,8.13-8.75s8.13,3.2,8.13,8.75-3.91,8.74-8.13,8.74-8.13-3.2-8.13-8.74ZM210.61,457.76c0-2.89-1.02-4.76-3.06-4.76s-3.06,1.87-3.06,4.76,1.02,4.75,3.06,4.75,3.06-1.86,3.06-4.75Z" style="fill: #fff;"/>
    <path d="M218.85,460.03v-6.74h-2.28v-3.69l2.56-.19.58-4.43h4.09v4.43h4v3.88h-4v6.68c0,1.89.86,2.65,2.16,2.65.55,0,1.15-.16,1.59-.32l.78,3.59c-.89.28-2.09.61-3.71.61-4.12,0-5.76-2.6-5.76-6.47Z" style="fill: #fff;"/>
    <path d="M229.62,461.47c0-3.51,2.8-5.42,9.4-6.11-.1-1.46-.83-2.41-2.64-2.41-1.4,0-2.8.59-4.42,1.51l-1.76-3.25c2.12-1.29,4.5-2.2,7.13-2.2,4.27,0,6.63,2.44,6.63,7.55v9.54h-4.03l-.36-1.71h-.12c-1.41,1.23-2.98,2.11-4.85,2.11-3.04,0-4.97-2.22-4.97-5.03ZM239.02,461.25v-2.91c-3.52.47-4.66,1.48-4.66,2.74,0,1.08.74,1.6,1.91,1.6s1.87-.55,2.75-1.43Z" style="fill: #fff;"/>
    <path d="M252.51,464.31h-.12l-.41,1.78h-3.87v-23.56h4.94v5.76l-.12,2.56c1.27-1.14,2.84-1.85,4.42-1.85,4.04,0,6.54,3.34,6.54,8.46,0,5.75-3.41,9.04-7.02,9.04-1.49,0-3.03-.75-4.36-2.18ZM258.82,457.54c0-2.99-.92-4.49-2.9-4.49-1.02,0-1.9.45-2.87,1.5v6.85c.89.78,1.83,1.06,2.66,1.06,1.72,0,3.1-1.46,3.1-4.91Z" style="fill: #fff;"/>
    <path d="M267.12,460.91v-18.38h4.94v18.58c0,1.06.49,1.4.89,1.4.19,0,.32,0,.61-.07l.59,3.65c-.55.23-1.36.41-2.48.41-3.39,0-4.55-2.21-4.55-5.59Z" style="fill: #fff;"/>
    <path d="M275.77,457.76c0-5.41,3.86-8.75,7.87-8.75,4.75,0,7.11,3.45,7.11,8.01,0,.89-.11,1.78-.21,2.18h-9.98c.44,2.42,2.1,3.53,4.33,3.53,1.26,0,2.4-.38,3.61-1.09l1.63,2.98c-1.71,1.18-3.94,1.88-5.92,1.88-4.76,0-8.44-3.22-8.44-8.74ZM286.52,455.93c0-1.83-.8-3.16-2.77-3.16-1.56,0-2.91,1.05-3.25,3.16h6.02Z" style="fill: #fff;"/>
    <path d="M300.03,457.76c0-5.46,3.41-8.75,6.92-8.75,1.84,0,2.96.68,4.09,1.74l-.18-2.53v-5.68h4.94v23.56h-4.03l-.36-1.65h-.12c-1.18,1.18-2.83,2.06-4.44,2.06-4.15,0-6.83-3.29-6.83-8.74ZM310.86,460.96v-6.85c-.87-.78-1.85-1.06-2.76-1.06-1.6,0-3,1.48-3,4.65s1.13,4.75,3.04,4.75c1.05,0,1.9-.4,2.72-1.49Z" style="fill: #fff;"/>
    <path d="M319.19,457.76c0-5.41,3.86-8.75,7.87-8.75,4.75,0,7.11,3.45,7.11,8.01,0,.89-.11,1.78-.21,2.18h-9.98c.44,2.42,2.1,3.53,4.33,3.53,1.26,0,2.4-.38,3.61-1.09l1.63,2.98c-1.71,1.18-3.94,1.88-5.92,1.88-4.76,0-8.44-3.22-8.44-8.74ZM329.94,455.93c0-1.83-.8-3.16-2.77-3.16-1.56,0-2.91,1.05-3.25,3.16h6.02Z" style="fill: #fff;"/>
    <path d="M335.6,449.41h4.97l2.17,7.88c.43,1.66.87,3.38,1.29,5.13h.13c.43-1.75.87-3.47,1.29-5.13l2.17-7.88h4.73l-5.44,16.69h-5.7l-5.62-16.69Z" style="fill: #fff;"/>
    <path d="M354.58,444.38c0-1.52,1.2-2.58,2.86-2.58s2.86,1.07,2.86,2.58-1.2,2.58-2.86,2.58-2.86-1.08-2.86-2.58ZM354.97,449.41h4.94v16.69h-4.94v-16.69Z" style="fill: #fff;"/>
    <path d="M363.28,457.76c0-5.55,4.08-8.75,8.69-8.75,2.05,0,3.63.73,4.88,1.8l-2.33,3.18c-.8-.68-1.47-.98-2.26-.98-2.38,0-3.9,1.87-3.9,4.76s1.59,4.75,3.74,4.75c1.1,0,2.14-.54,3.01-1.23l1.94,3.23c-1.62,1.43-3.69,1.99-5.5,1.99-4.66,0-8.25-3.2-8.25-8.74Z" style="fill: #fff;"/>
    <path d="M378.04,457.76c0-5.41,3.86-8.75,7.87-8.75,4.75,0,7.11,3.45,7.11,8.01,0,.89-.11,1.78-.21,2.18h-9.98c.44,2.42,2.1,3.53,4.33,3.53,1.26,0,2.4-.38,3.61-1.09l1.63,2.98c-1.71,1.18-3.94,1.88-5.92,1.88-4.76,0-8.44-3.22-8.44-8.74ZM388.8,455.93c0-1.83-.8-3.16-2.77-3.16-1.56,0-2.91,1.05-3.25,3.16h6.02Z" style="fill: #fff;"/>
  </g>
  <g id="arrow_styles_for_diagrams_etc-7" data-name="arrow styles for diagrams etc">
    <g id="arrow_styles_for_diagrams_etc-8" data-name="arrow styles for diagrams etc">
      <g id="arrow_styles_for_diagrams_etc-9" data-name="arrow styles for diagrams etc">
        <path d="M223.45,394.11l-23.49-40.85c-.69-1.21.18-2.71,1.57-2.71h12.12v-76.6c0-3.62,2.93-6.55,6.55-6.55h9.62c3.61,0,6.54,2.93,6.54,6.54v76.62h12.12c1.4,0,2.26,1.51,1.57,2.71l-23.49,40.85c-.69,1.21-2.42,1.21-3.11,0Z" style="fill: #a3ea2a;"/>
      </g>
    </g>
  </g>
  <rect x="78.75" y="209.4" width="292.49" height="80.06" rx="12.46" ry="12.46" style="fill: #223654;"/>
  <g>
    <rect x="90.04" y="218.23" width="269.92" height="62.4" style="fill: none;"/>
    <path d="M148.52,239.29h7.53c4.82,0,8.71,1.73,8.71,7.05s-3.93,7.43-8.58,7.43h-2.71v7.44h-4.96v-21.92ZM155.89,249.84c2.72,0,4.01-1.21,4.01-3.5s-1.47-3.12-4.15-3.12h-2.28v6.61h2.42Z" style="fill: #fff;"/>
    <path d="M166.47,252.87c0-5.55,3.91-8.75,8.13-8.75s8.13,3.2,8.13,8.75-3.91,8.74-8.13,8.74-8.13-3.2-8.13-8.74ZM177.66,252.87c0-2.89-1.02-4.76-3.06-4.76s-3.06,1.87-3.06,4.76,1.02,4.75,3.06,4.75,3.06-1.86,3.06-4.75Z" style="fill: #fff;"/>
    <path d="M184.47,259.28l2.22-3.08c1.51,1.14,2.91,1.75,4.3,1.75,1.47,0,2.11-.56,2.11-1.44,0-1.1-1.65-1.6-3.37-2.27-2.05-.79-4.42-2.15-4.42-4.91,0-3.11,2.52-5.22,6.37-5.22,2.56,0,4.46,1.03,5.88,2.11l-2.21,2.97c-1.19-.86-2.36-1.42-3.51-1.42-1.28,0-1.91.5-1.91,1.33,0,1.06,1.56,1.47,3.29,2.1,2.11.78,4.49,1.97,4.49,5.02s-2.38,5.38-6.85,5.38c-2.2,0-4.72-.95-6.41-2.33Z" style="fill: #fff;"/>
    <path d="M200.84,255.14v-6.74h-2.28v-3.69l2.56-.19.58-4.43h4.09v4.43h4v3.88h-4v6.68c0,1.89.86,2.65,2.16,2.65.55,0,1.15-.16,1.59-.32l.78,3.59c-.89.28-2.09.6-3.71.6-4.12,0-5.76-2.6-5.76-6.47Z" style="fill: #fff;"/>
    <path d="M218.81,252.87c0-5.55,4.08-8.75,8.69-8.75,2.05,0,3.63.73,4.87,1.8l-2.33,3.18c-.8-.68-1.47-.98-2.26-.98-2.38,0-3.9,1.87-3.9,4.76s1.59,4.75,3.74,4.75c1.1,0,2.14-.54,3.01-1.23l1.93,3.23c-1.62,1.43-3.69,1.99-5.5,1.99-4.66,0-8.25-3.2-8.25-8.74Z" style="fill: #fff;"/>
    <path d="M235.48,237.65h4.94v5.76l-.22,3.02c1.25-1.14,2.88-2.31,5.15-2.31,3.63,0,5.17,2.56,5.17,6.73v10.36h-4.94v-9.72c0-2.4-.64-3.15-2.07-3.15-1.24,0-2,.58-3.09,1.62v11.26h-4.94v-23.56Z" style="fill: #fff;"/>
    <path d="M253.72,252.87c0-5.41,3.86-8.75,7.87-8.75,4.75,0,7.11,3.45,7.11,8.01,0,.89-.11,1.78-.21,2.18h-9.98c.44,2.42,2.1,3.53,4.33,3.53,1.26,0,2.4-.38,3.61-1.09l1.63,2.98c-1.71,1.18-3.94,1.88-5.92,1.88-4.76,0-8.44-3.22-8.44-8.74ZM264.47,251.04c0-1.83-.8-3.16-2.77-3.16-1.56,0-2.91,1.05-3.25,3.16h6.02Z" style="fill: #fff;"/>
    <path d="M271.14,252.87c0-5.55,4.08-8.75,8.69-8.75,2.05,0,3.63.73,4.88,1.8l-2.33,3.18c-.8-.68-1.47-.98-2.26-.98-2.38,0-3.9,1.87-3.9,4.76s1.59,4.75,3.74,4.75c1.1,0,2.14-.54,3.01-1.23l1.94,3.23c-1.62,1.43-3.69,1.99-5.5,1.99-4.66,0-8.25-3.2-8.25-8.74Z" style="fill: #fff;"/>
    <path d="M287.82,237.65h4.83v13.5h.12l5.29-6.62h5.37l-5.84,6.88,6.29,9.81h-5.36l-3.75-6.51-2.12,2.4v4.11h-4.83v-23.56Z" style="fill: #fff;"/>
  </g>
  <g id="arrow_styles_for_diagrams_etc-10" data-name="arrow styles for diagrams etc">
    <g id="arrow_styles_for_diagrams_etc-11" data-name="arrow styles for diagrams etc">
      <g id="arrow_styles_for_diagrams_etc-12" data-name="arrow styles for diagrams etc">
        <path d="M223.45,803.89l-23.49-40.85c-.69-1.21.18-2.71,1.57-2.71h12.12v-76.6c0-3.62,2.93-6.55,6.55-6.55h9.62c3.61,0,6.54,2.93,6.54,6.54v76.62h12.12c1.4,0,2.26,1.51,1.57,2.71l-23.49,40.85c-.69,1.21-2.42,1.21-3.11,0Z" style="fill: #a3ea2a;"/>
      </g>
    </g>
  </g>
  <rect x="78.75" y="619.17" width="292.49" height="80.06" rx="12.46" ry="12.46" style="fill: #223654;"/>
  <g>
    <rect x="90.04" y="628" width="269.92" height="62.4" style="fill: none;"/>
    <path d="M118.36,649.06h7.89c4.65,0,8.46,1.61,8.46,6.83s-3.81,7.21-8.46,7.21h-2.94v7.89h-4.96v-21.92ZM125.85,659.16c2.61,0,4.01-1.12,4.01-3.27s-1.4-2.89-4.01-2.89h-2.54v6.16h2.54ZM125.35,661.79l3.43-3.17,7,12.37h-5.54l-4.88-9.19Z" style="fill: #fff;"/>
    <path d="M137.26,662.65c0-5.41,3.86-8.75,7.87-8.75,4.75,0,7.11,3.46,7.11,8.01,0,.89-.11,1.78-.21,2.18h-9.98c.44,2.42,2.1,3.53,4.33,3.53,1.26,0,2.4-.38,3.61-1.09l1.63,2.98c-1.71,1.18-3.94,1.88-5.92,1.88-4.76,0-8.44-3.22-8.44-8.74ZM148.02,660.82c0-1.83-.8-3.16-2.77-3.16-1.56,0-2.91,1.05-3.25,3.16h6.02Z" style="fill: #fff;"/>
    <path d="M154.52,666.35c0-3.51,2.8-5.42,9.4-6.11-.1-1.46-.83-2.41-2.64-2.41-1.4,0-2.8.59-4.42,1.51l-1.76-3.25c2.12-1.29,4.5-2.2,7.13-2.2,4.27,0,6.63,2.44,6.63,7.55v9.54h-4.03l-.36-1.71h-.12c-1.4,1.23-2.98,2.11-4.85,2.11-3.04,0-4.97-2.22-4.97-5.03ZM163.91,666.13v-2.91c-3.52.47-4.66,1.48-4.66,2.74,0,1.08.74,1.6,1.91,1.6s1.87-.55,2.75-1.43Z" style="fill: #fff;"/>
    <path d="M172.15,662.65c0-5.46,3.41-8.75,6.92-8.75,1.84,0,2.96.68,4.09,1.74l-.18-2.53v-5.68h4.94v23.56h-4.03l-.36-1.65h-.12c-1.18,1.18-2.83,2.06-4.44,2.06-4.15,0-6.83-3.29-6.83-8.74ZM182.98,665.85v-6.85c-.87-.78-1.85-1.06-2.76-1.06-1.6,0-3.01,1.48-3.01,4.65s1.13,4.75,3.04,4.75c1.05,0,1.9-.4,2.72-1.5Z" style="fill: #fff;"/>
    <path d="M199.42,649.06h5.41l3.56,9.74c.44,1.29.82,2.7,1.26,4.05h.13c.44-1.35.81-2.75,1.25-4.05l3.45-9.74h5.41v21.92h-4.51v-8.04c0-2.14.4-5.33.63-7.45h-.13l-1.8,5.19-3.1,8.4h-2.75l-3.1-8.4-1.75-5.19h-.13c.23,2.12.63,5.31.63,7.45v8.04h-4.44v-21.92Z" style="fill: #fff;"/>
    <path d="M225.05,649.06h7.5c4.55,0,8.08,1.25,8.08,5.44,0,1.97-1.1,4.06-2.89,4.73v.13c2.24.58,3.97,2.23,3.97,5.16,0,4.46-3.77,6.46-8.54,6.46h-8.13v-21.92ZM232.32,657.84c2.41,0,3.47-1.02,3.47-2.61,0-1.69-1.12-2.35-3.43-2.35h-2.35v4.96h2.32ZM232.77,667.16c2.7,0,4.1-.96,4.1-2.95s-1.37-2.71-4.1-2.71h-2.77v5.66h2.77Z" style="fill: #fff;"/>
    <path d="M245.4,649.06h7.89c4.65,0,8.46,1.61,8.46,6.83s-3.81,7.21-8.46,7.21h-2.94v7.89h-4.96v-21.92ZM252.89,659.16c2.61,0,4.01-1.12,4.01-3.27s-1.4-2.89-4.01-2.89h-2.54v6.16h2.54ZM252.38,661.79l3.43-3.17,7,12.37h-5.55l-4.88-9.19Z" style="fill: #fff;"/>
    <path d="M270.63,647.1h3.23l-6.77,29.26h-3.23l6.77-29.26Z" style="fill: #fff;"/>
    <path d="M276.04,660.15c0-7.27,4.83-11.49,10.68-11.49,3.18,0,5.44,1.36,6.92,2.84l-2.61,3.18c-1.09-1-2.26-1.74-4.14-1.74-3.37,0-5.77,2.65-5.77,7.04s2.04,7.12,6.17,7.12c.88,0,1.79-.23,2.32-.65v-3.78h-3.63v-4.05h8.03v10.11c-1.51,1.48-4.17,2.65-7.23,2.65-6.04,0-10.73-3.85-10.73-11.24Z" style="fill: #fff;"/>
    <path d="M298.54,649.06h7.53c4.82,0,8.71,1.72,8.71,7.05s-3.93,7.43-8.58,7.43h-2.71v7.44h-4.96v-21.92ZM305.91,659.61c2.73,0,4.01-1.21,4.01-3.5s-1.47-3.12-4.15-3.12h-2.28v6.61h2.42Z" style="fill: #fff;"/>
    <path d="M322.4,653.22h-6.03v-4.16h17.02v4.16h-6.03v17.76h-4.96v-17.76Z" style="fill: #fff;"/>
  </g>
  <g id="arrow_styles_for_diagrams_etc-13" data-name="arrow styles for diagrams etc">
    <g id="arrow_styles_for_diagrams_etc-14" data-name="arrow styles for diagrams etc">
      <g id="arrow_styles_for_diagrams_etc-15" data-name="arrow styles for diagrams etc">
        <path d="M223.45,1017.61l-23.49-40.85c-.69-1.21.18-2.71,1.57-2.71h12.12v-76.6c0-3.62,2.93-6.55,6.55-6.55h9.62c3.61,0,6.54,2.93,6.54,6.54v76.62h12.12c1.4,0,2.26,1.51,1.57,2.71l-23.49,40.85c-.69,1.21-2.42,1.21-3.11,0Z" style="fill: #a3ea2a;"/>
      </g>
    </g>
  </g>
  <rect x="78.75" y="832.89" width="292.49" height="80.06" rx="12.46" ry="12.46" style="fill: #223654;"/>
  <g>
    <rect x="90.04" y="841.72" width="269.92" height="62.4" style="fill: none;"/>
    <path d="M105.94,862.78h4.96v17.76h8.65v4.16h-13.61v-21.92Z" style="fill: #fff;"/>
    <path d="M121.51,876.36c0-5.55,3.91-8.75,8.13-8.75s8.13,3.21,8.13,8.75-3.91,8.74-8.13,8.74-8.13-3.21-8.13-8.74ZM132.69,876.36c0-2.89-1.02-4.76-3.06-4.76s-3.06,1.88-3.06,4.76,1.02,4.75,3.06,4.75,3.06-1.86,3.06-4.75Z" style="fill: #fff;"/>
    <path d="M140,880.07c0-3.51,2.8-5.42,9.4-6.11-.1-1.46-.83-2.41-2.64-2.41-1.4,0-2.8.59-4.42,1.51l-1.76-3.25c2.12-1.29,4.5-2.2,7.13-2.2,4.27,0,6.63,2.44,6.63,7.55v9.54h-4.03l-.36-1.71h-.12c-1.4,1.23-2.98,2.11-4.85,2.11-3.04,0-4.97-2.22-4.97-5.03ZM149.4,879.85v-2.91c-3.52.47-4.66,1.48-4.66,2.74,0,1.08.74,1.6,1.91,1.6s1.87-.55,2.75-1.43Z" style="fill: #fff;"/>
    <path d="M157.64,876.36c0-5.46,3.41-8.75,6.92-8.75,1.84,0,2.96.68,4.09,1.74l-.18-2.53v-5.68h4.94v23.56h-4.03l-.36-1.65h-.12c-1.18,1.18-2.83,2.06-4.44,2.06-4.15,0-6.82-3.29-6.82-8.74ZM168.47,879.56v-6.85c-.87-.78-1.85-1.06-2.76-1.06-1.6,0-3.01,1.48-3.01,4.65s1.13,4.75,3.04,4.75c1.05,0,1.9-.4,2.72-1.5Z" style="fill: #fff;"/>
    <path d="M188.9,882.92h-.12l-.41,1.78h-3.87v-23.56h4.94v5.76l-.12,2.56c1.27-1.14,2.84-1.85,4.41-1.85,4.04,0,6.54,3.34,6.54,8.46,0,5.75-3.41,9.04-7.02,9.04-1.49,0-3.03-.75-4.36-2.18ZM195.2,876.15c0-3-.93-4.49-2.9-4.49-1.02,0-1.9.45-2.87,1.49v6.85c.89.78,1.83,1.06,2.66,1.06,1.72,0,3.1-1.46,3.1-4.91Z" style="fill: #fff;"/>
    <path d="M202.8,876.36c0-5.55,3.91-8.75,8.13-8.75s8.13,3.21,8.13,8.75-3.91,8.74-8.13,8.74-8.13-3.21-8.13-8.74ZM213.99,876.36c0-2.89-1.02-4.76-3.06-4.76s-3.06,1.88-3.06,4.76,1.02,4.75,3.06,4.75,3.06-1.86,3.06-4.75Z" style="fill: #fff;"/>
    <path d="M221.46,876.36c0-5.55,3.91-8.75,8.13-8.75s8.13,3.21,8.13,8.75-3.91,8.74-8.13,8.74-8.13-3.21-8.13-8.74ZM232.65,876.36c0-2.89-1.02-4.76-3.06-4.76s-3.06,1.88-3.06,4.76,1.02,4.75,3.06,4.75,3.06-1.86,3.06-4.75Z" style="fill: #fff;"/>
    <path d="M240.9,878.63v-6.74h-2.28v-3.69l2.56-.19.58-4.43h4.09v4.43h4v3.88h-4v6.68c0,1.89.86,2.65,2.16,2.65.55,0,1.15-.16,1.59-.32l.78,3.59c-.89.28-2.09.61-3.71.61-4.12,0-5.76-2.6-5.76-6.47Z" style="fill: #fff;"/>
    <path d="M253.11,879.51v-18.38h4.94v18.58c0,1.06.49,1.4.89,1.4.19,0,.32,0,.61-.07l.59,3.65c-.55.23-1.36.41-2.48.41-3.39,0-4.55-2.21-4.55-5.59Z" style="fill: #fff;"/>
    <path d="M261.76,876.36c0-5.55,3.91-8.75,8.13-8.75s8.13,3.21,8.13,8.75-3.91,8.74-8.13,8.74-8.13-3.21-8.13-8.74ZM272.95,876.36c0-2.89-1.02-4.76-3.06-4.76s-3.06,1.88-3.06,4.76,1.02,4.75,3.06,4.75,3.06-1.86,3.06-4.75Z" style="fill: #fff;"/>
    <path d="M280.26,880.07c0-3.51,2.8-5.42,9.4-6.11-.1-1.46-.83-2.41-2.64-2.41-1.4,0-2.8.59-4.42,1.51l-1.76-3.25c2.12-1.29,4.5-2.2,7.13-2.2,4.27,0,6.63,2.44,6.63,7.55v9.54h-4.03l-.36-1.71h-.12c-1.41,1.23-2.98,2.11-4.85,2.11-3.04,0-4.97-2.22-4.97-5.03ZM289.65,879.85v-2.91c-3.52.47-4.66,1.48-4.66,2.74,0,1.08.74,1.6,1.91,1.6s1.87-.55,2.75-1.43Z" style="fill: #fff;"/>
    <path d="M297.89,876.36c0-5.46,3.41-8.75,6.92-8.75,1.84,0,2.96.68,4.09,1.74l-.18-2.53v-5.68h4.94v23.56h-4.03l-.36-1.65h-.12c-1.18,1.18-2.83,2.06-4.44,2.06-4.15,0-6.83-3.29-6.83-8.74ZM308.72,879.56v-6.85c-.87-.78-1.85-1.06-2.76-1.06-1.6,0-3,1.48-3,4.65s1.13,4.75,3.04,4.75c1.05,0,1.9-.4,2.72-1.5Z" style="fill: #fff;"/>
    <path d="M317.05,876.36c0-5.41,3.86-8.75,7.87-8.75,4.75,0,7.11,3.46,7.11,8.01,0,.89-.11,1.78-.21,2.18h-9.98c.44,2.42,2.1,3.53,4.33,3.53,1.26,0,2.4-.38,3.61-1.09l1.63,2.98c-1.71,1.18-3.94,1.88-5.92,1.88-4.76,0-8.44-3.22-8.44-8.74ZM327.8,874.53c0-1.83-.8-3.16-2.77-3.16-1.56,0-2.91,1.05-3.25,3.16h6.02Z" style="fill: #fff;"/>
    <path d="M335.44,868.01h4.03l.36,2.92h.12c1.21-2.23,3.04-3.32,4.74-3.32.95,0,1.51.12,1.99.34l-.82,4.27c-.59-.15-1.08-.27-1.8-.27-1.26,0-2.79.81-3.67,3.09v9.67h-4.94v-16.68Z" style="fill: #fff;"/>
  </g>
  <rect x="78.75" y="1046.6" width="292.49" height="80.06" rx="12.46" ry="12.46" style="fill: #223654;"/>
  <g>
    <rect x="90.04" y="1055.43" width="269.92" height="62.4" style="fill: none;"/>
    <path d="M167.25,1076.5h4.96v17.76h8.65v4.16h-13.61v-21.92Z" style="fill: #fff;"/>
    <path d="M182.82,1090.08c0-5.55,3.91-8.75,8.13-8.75s8.13,3.21,8.13,8.75-3.91,8.74-8.13,8.74-8.13-3.2-8.13-8.74ZM194.01,1090.08c0-2.89-1.02-4.76-3.06-4.76s-3.06,1.88-3.06,4.76,1.02,4.75,3.06,4.75,3.06-1.86,3.06-4.75Z" style="fill: #fff;"/>
    <path d="M201.32,1093.79c0-3.51,2.8-5.42,9.4-6.11-.1-1.46-.83-2.41-2.64-2.41-1.4,0-2.8.59-4.42,1.51l-1.76-3.25c2.12-1.29,4.5-2.2,7.13-2.2,4.27,0,6.63,2.44,6.63,7.55v9.54h-4.03l-.36-1.71h-.12c-1.4,1.23-2.98,2.11-4.85,2.11-3.04,0-4.97-2.22-4.97-5.03ZM210.71,1093.57v-2.91c-3.52.47-4.66,1.48-4.66,2.74,0,1.08.74,1.6,1.91,1.6s1.87-.55,2.75-1.43Z" style="fill: #fff;"/>
    <path d="M218.95,1090.08c0-5.46,3.41-8.75,6.92-8.75,1.84,0,2.96.68,4.09,1.74l-.18-2.53v-5.68h4.94v23.56h-4.03l-.36-1.65h-.12c-1.18,1.18-2.83,2.06-4.44,2.06-4.15,0-6.83-3.29-6.83-8.74ZM229.78,1093.28v-6.85c-.87-.78-1.85-1.06-2.76-1.06-1.6,0-3,1.48-3,4.65s1.13,4.75,3.04,4.75c1.05,0,1.9-.4,2.72-1.5Z" style="fill: #fff;"/>
    <path d="M245.18,1087.36c0-7.16,4.04-11.27,9.96-11.27s9.96,4.13,9.96,11.27-4.04,11.46-9.96,11.46-9.96-4.3-9.96-11.46ZM260.02,1087.36c0-4.39-1.89-6.99-4.88-6.99s-4.88,2.59-4.88,6.99,1.89,7.18,4.88,7.18,4.88-2.79,4.88-7.18Z" style="fill: #fff;"/>
    <path d="M267.81,1095.65l2.85-3.4c1.56,1.36,3.58,2.29,5.38,2.29,2.07,0,3.08-.81,3.08-2.12,0-1.38-1.25-1.82-3.16-2.61l-2.85-1.21c-2.27-.92-4.42-2.79-4.42-5.97,0-3.63,3.25-6.53,7.81-6.53,2.52,0,5.16,1,7.05,2.87l-2.5,3.12c-1.44-1.11-2.82-1.72-4.55-1.72s-2.8.71-2.8,1.96c0,1.34,1.43,1.83,3.35,2.59l2.79,1.13c2.68,1.08,4.35,2.86,4.35,5.96,0,3.64-3.04,6.79-8.26,6.79-2.85,0-5.88-1.08-8.12-3.17Z" style="fill: #fff;"/>
  </g>
</svg>