<?xml version="1.0" encoding="UTF-8"?>
<svg id="Layer_1" data-name="Layer 1" xmlns="http://www.w3.org/2000/svg" width="1140" height="800" viewBox="0 0 1140 800">
  <path d="M792.14,99.64l-60.86,35c-1.8,1.03-4.04-.26-4.04-2.34v-18.05h-114.12c-5.39,0-9.77-4.37-9.77-9.77v-14.33c0-5.38,4.36-9.74,9.74-9.74h114.15v-18.05c0-2.08,2.25-3.37,4.04-2.34l60.86,35c1.8,1.03,1.8,3.6,0,4.63Z" style="fill: #a3ea2a;"/>
  <path d="M792.14,402.32l-60.86,35c-1.8,1.03-4.04-.26-4.04-2.34v-18.05h-114.12c-5.39,0-9.77-4.37-9.77-9.77v-14.33c0-5.38,4.36-9.74,9.74-9.74h114.15v-18.05c0-2.08,2.25-3.37,4.04-2.34l60.86,35c1.8,1.03,1.8,3.6,0,4.63Z" style="fill: #a3ea2a;"/>
  <path d="M792.14,704.99l-60.86,35c-1.8,1.03-4.04-.26-4.04-2.34v-18.05h-114.12c-5.39,0-9.77-4.37-9.77-9.77v-14.33c0-5.38,4.36-9.74,9.74-9.74h114.15v-18.05c0-2.08,2.25-3.37,4.04-2.34l60.86,35c1.8,1.03,1.8,3.6,0,4.63Z" style="fill: #a3ea2a;"/>
  <path d="M618.38,156.96H14.22V56.24c0-10.25,8.31-18.56,18.56-18.56h567.05c10.25,0,18.56,8.31,18.56,18.56v100.72Z" style="fill: #1c2538;"/>
  <path d="M14.22,643.04h604.16v100.72c0,10.25-8.31,18.56-18.56,18.56H32.78c-10.25,0-18.56-8.31-18.56-18.56v-100.72Z" style="fill: #1c2538;"/>
  <g>
    <rect x="30.9" y="50.84" width="570.8" height="92.97" style="fill: none;"/>
    <path d="M154.42,82.22h11.18c6.78,0,12.04,1.86,12.04,8.1,0,2.93-1.64,6.05-4.3,7.05v.2c3.34.87,5.91,3.33,5.91,7.69,0,6.64-5.62,9.62-12.72,9.62h-12.11v-32.66ZM165.26,95.3c3.58,0,5.17-1.51,5.17-3.89,0-2.52-1.67-3.49-5.11-3.49h-3.51v7.38h3.45ZM165.93,109.18c4.03,0,6.1-1.43,6.1-4.4s-2.04-4.03-6.1-4.03h-4.12v8.43h4.12Z" style="fill: #fff;"/>
    <path d="M182.68,102.45c0-8.27,5.82-13.04,12.11-13.04s12.11,4.77,12.11,13.04-5.82,13.02-12.11,13.02-12.11-4.78-12.11-13.02ZM199.35,102.45c0-4.3-1.51-7.1-4.56-7.1s-4.56,2.79-4.56,7.1,1.51,7.08,4.56,7.08,4.56-2.78,4.56-7.08Z" style="fill: #fff;"/>
    <path d="M210.49,102.45c0-8.27,5.82-13.04,12.11-13.04s12.11,4.77,12.11,13.04-5.82,13.02-12.11,13.02-12.11-4.78-12.11-13.02ZM227.16,102.45c0-4.3-1.51-7.1-4.56-7.1s-4.56,2.79-4.56,7.1,1.51,7.08,4.56,7.08,4.56-2.78,4.56-7.08Z" style="fill: #fff;"/>
    <path d="M239.44,105.84v-10.04h-3.4v-5.5l3.81-.28.86-6.6h6.09v6.6h5.96v5.78h-5.96v9.95c0,2.82,1.28,3.95,3.22,3.95.82,0,1.71-.24,2.36-.47l1.16,5.35c-1.32.42-3.11.9-5.52.9-6.14,0-8.58-3.88-8.58-9.64Z" style="fill: #fff;"/>
    <path d="M254.93,112l3.31-4.59c2.25,1.7,4.33,2.61,6.41,2.61,2.19,0,3.14-.84,3.14-2.14,0-1.64-2.46-2.38-5.02-3.38-3.05-1.18-6.58-3.2-6.58-7.31,0-4.63,3.76-7.78,9.5-7.78,3.81,0,6.64,1.54,8.76,3.15l-3.3,4.42c-1.77-1.29-3.51-2.12-5.23-2.12-1.9,0-2.84.74-2.84,1.99,0,1.58,2.33,2.19,4.9,3.13,3.15,1.16,6.7,2.94,6.7,7.48s-3.55,8.02-10.21,8.02c-3.28,0-7.03-1.42-9.54-3.47Z" style="fill: #fff;"/>
    <path d="M279.32,105.84v-10.04h-3.4v-5.5l3.81-.28.86-6.6h6.09v6.6h5.96v5.78h-5.96v9.95c0,2.82,1.28,3.95,3.22,3.95.82,0,1.71-.24,2.36-.47l1.16,5.35c-1.32.42-3.11.9-5.52.9-6.14,0-8.58-3.88-8.58-9.64Z" style="fill: #fff;"/>
    <path d="M297.52,90.01h6.01l.53,4.34h.18c1.81-3.32,4.53-4.95,7.06-4.95,1.42,0,2.25.18,2.97.5l-1.23,6.36c-.88-.22-1.62-.4-2.68-.4-1.87,0-4.15,1.21-5.48,4.6v14.41h-7.37v-24.86Z" style="fill: #fff;"/>
    <path d="M314.92,107.98c0-5.24,4.17-8.07,14-9.11-.15-2.17-1.23-3.59-3.93-3.59-2.09,0-4.17.88-6.58,2.25l-2.62-4.84c3.15-1.93,6.71-3.27,10.62-3.27,6.36,0,9.88,3.63,9.88,11.25v14.21h-6.01l-.53-2.55h-.18c-2.09,1.84-4.44,3.15-7.23,3.15-4.53,0-7.41-3.31-7.41-7.5ZM328.92,107.65v-4.34c-5.24.71-6.95,2.2-6.95,4.08,0,1.6,1.1,2.39,2.85,2.39s2.79-.83,4.09-2.13Z" style="fill: #fff;"/>
    <path d="M342.47,90.01h6.01l.53,2.45h.18c1.95-1.74,4.49-3.05,7.08-3.05,6.02,0,9.7,4.98,9.7,12.64,0,8.53-5.08,13.42-10.46,13.42-2.14,0-4.15-.94-5.93-2.59l.25,3.93v7.29h-7.37v-34.09ZM358.43,102.14c0-4.46-1.38-6.7-4.32-6.7-1.51,0-2.82.68-4.27,2.23v10.21c1.34,1.17,2.72,1.57,3.97,1.57,2.57,0,4.63-2.17,4.63-7.31Z" style="fill: #fff;"/>
    <path d="M379.36,102.45c0-8.27,6.08-13.04,12.95-13.04,3.06,0,5.41,1.09,7.26,2.68l-3.48,4.74c-1.19-1.01-2.19-1.47-3.37-1.47-3.54,0-5.82,2.79-5.82,7.1s2.37,7.08,5.57,7.08c1.63,0,3.19-.81,4.48-1.83l2.88,4.82c-2.42,2.13-5.5,2.96-8.19,2.96-6.94,0-12.29-4.78-12.29-13.02Z" style="fill: #fff;"/>
    <path d="M401.36,102.45c0-8.27,5.82-13.04,12.11-13.04s12.11,4.77,12.11,13.04-5.82,13.02-12.11,13.02-12.11-4.78-12.11-13.02ZM418.03,102.45c0-4.3-1.51-7.1-4.56-7.1s-4.56,2.79-4.56,7.1,1.51,7.08,4.56,7.08,4.56-2.78,4.56-7.08Z" style="fill: #fff;"/>
    <path d="M429.33,102.45c0-8.13,5.08-13.04,10.31-13.04,2.74,0,4.42,1.02,6.1,2.59l-.27-3.77v-8.47h7.37v35.11h-6.01l-.53-2.46h-.18c-1.76,1.76-4.21,3.07-6.61,3.07-6.18,0-10.17-4.91-10.17-13.02ZM445.47,107.22v-10.21c-1.3-1.17-2.76-1.57-4.11-1.57-2.39,0-4.48,2.2-4.48,6.93s1.69,7.08,4.54,7.08c1.57,0,2.83-.6,4.05-2.23Z" style="fill: #fff;"/>
    <path d="M457.88,102.45c0-8.06,5.75-13.04,11.73-13.04,7.08,0,10.59,5.15,10.59,11.93,0,1.33-.17,2.65-.31,3.26h-14.87c.66,3.61,3.13,5.26,6.45,5.26,1.88,0,3.57-.57,5.38-1.63l2.44,4.44c-2.55,1.76-5.87,2.8-8.82,2.8-7.09,0-12.58-4.79-12.58-13.02ZM473.9,99.73c0-2.73-1.19-4.7-4.13-4.7-2.33,0-4.34,1.56-4.84,4.7h8.97Z" style="fill: #fff;"/>
  </g>
  <rect x="14.22" y="143.98" width="604.16" height="512.05" style="fill: #223654;"/>
  <g>
    <rect x="30.9" y="151.73" width="570.8" height="92.97" style="fill: none;"/>
    <path d="M156.8,183.11h11.22c7.19,0,12.98,2.57,12.98,10.51s-5.86,11.07-12.78,11.07h-4.04v11.08h-7.38v-32.66ZM167.78,198.82c4.06,0,5.98-1.81,5.98-5.21s-2.19-4.64-6.18-4.64h-3.4v9.85h3.6Z" style="fill: #fff;"/>
    <path d="M183.2,208.87c0-5.24,4.17-8.07,14-9.11-.15-2.17-1.23-3.59-3.93-3.59-2.09,0-4.17.88-6.58,2.25l-2.62-4.84c3.15-1.93,6.71-3.27,10.62-3.27,6.36,0,9.88,3.63,9.88,11.25v14.21h-6.01l-.53-2.55h-.18c-2.09,1.84-4.44,3.15-7.23,3.15-4.53,0-7.41-3.31-7.41-7.5ZM197.21,208.54v-4.34c-5.24.71-6.95,2.2-6.95,4.08,0,1.6,1.1,2.39,2.85,2.39s2.79-.83,4.09-2.13Z" style="fill: #fff;"/>
    <path d="M210.76,190.91h6.01l.53,4.34h.18c1.81-3.32,4.53-4.95,7.06-4.95,1.42,0,2.25.18,2.97.5l-1.23,6.36c-.88-.22-1.62-.4-2.68-.4-1.87,0-4.15,1.21-5.48,4.6v14.41h-7.37v-24.86Z" style="fill: #fff;"/>
    <path d="M231.7,206.73v-10.04h-3.4v-5.5l3.81-.28.86-6.6h6.09v6.6h5.96v5.78h-5.96v9.95c0,2.82,1.28,3.95,3.22,3.95.82,0,1.71-.24,2.36-.47l1.16,5.35c-1.32.42-3.11.9-5.52.9-6.14,0-8.58-3.88-8.58-9.64Z" style="fill: #fff;"/>
    <path d="M249.32,183.42c0-2.26,1.79-3.85,4.26-3.85s4.26,1.59,4.26,3.85-1.79,3.85-4.26,3.85-4.26-1.61-4.26-3.85ZM249.89,190.91h7.37v24.86h-7.37v-24.86Z" style="fill: #fff;"/>
    <path d="M264.72,206.73v-10.04h-3.4v-5.5l3.81-.28.86-6.6h6.09v6.6h5.96v5.78h-5.96v9.95c0,2.82,1.28,3.95,3.22,3.95.82,0,1.71-.24,2.36-.47l1.16,5.35c-1.32.42-3.11.9-5.52.9-6.14,0-8.58-3.88-8.58-9.64Z" style="fill: #fff;"/>
    <path d="M282.34,183.42c0-2.26,1.79-3.85,4.26-3.85s4.26,1.59,4.26,3.85-1.79,3.85-4.26,3.85-4.26-1.61-4.26-3.85ZM282.91,190.91h7.37v24.86h-7.37v-24.86Z" style="fill: #fff;"/>
    <path d="M295.3,203.35c0-8.27,5.82-13.04,12.11-13.04s12.11,4.77,12.11,13.04-5.82,13.02-12.11,13.02-12.11-4.78-12.11-13.02ZM311.97,203.35c0-4.3-1.51-7.1-4.56-7.1s-4.56,2.79-4.56,7.1,1.51,7.08,4.56,7.08,4.56-2.78,4.56-7.08Z" style="fill: #fff;"/>
    <path d="M324.55,190.91h6.01l.53,3.15h.18c2.09-2.01,4.6-3.75,7.99-3.75,5.41,0,7.71,3.81,7.71,10.03v15.43h-7.37v-14.49c0-3.58-.96-4.7-3.09-4.7-1.85,0-2.98.86-4.6,2.42v16.77h-7.37v-24.86Z" style="fill: #fff;"/>
    <path d="M370.24,189.3h-8.99v-6.19h25.36v6.19h-8.99v26.47h-7.38v-26.47Z" style="fill: #fff;"/>
    <path d="M386.75,208.87c0-5.24,4.17-8.07,14-9.11-.15-2.17-1.23-3.59-3.93-3.59-2.09,0-4.17.88-6.58,2.25l-2.62-4.84c3.15-1.93,6.71-3.27,10.62-3.27,6.36,0,9.88,3.63,9.88,11.25v14.21h-6.01l-.53-2.55h-.18c-2.09,1.84-4.44,3.15-7.23,3.15-4.53,0-7.41-3.31-7.41-7.5ZM400.75,208.54v-4.34c-5.24.71-6.95,2.2-6.95,4.08,0,1.6,1.1,2.39,2.85,2.39s2.79-.83,4.09-2.13Z" style="fill: #fff;"/>
    <path d="M420.86,213.11h-.18l-.61,2.65h-5.76v-35.11h7.37v8.58l-.18,3.82c1.89-1.69,4.23-2.75,6.58-2.75,6.02,0,9.75,4.98,9.75,12.6,0,8.57-5.08,13.47-10.46,13.47-2.22,0-4.52-1.12-6.49-3.25ZM430.26,203.03c0-4.46-1.38-6.7-4.32-6.7-1.51,0-2.83.68-4.27,2.23v10.21c1.32,1.17,2.72,1.57,3.97,1.57,2.57,0,4.63-2.17,4.63-7.31Z" style="fill: #fff;"/>
    <path d="M442.61,208.04v-27.38h7.37v27.68c0,1.58.73,2.08,1.33,2.08.28,0,.48,0,.9-.1l.88,5.43c-.81.35-2.02.61-3.7.61-5.05,0-6.78-3.3-6.78-8.33Z" style="fill: #fff;"/>
    <path d="M455.5,203.35c0-8.06,5.75-13.04,11.73-13.04,7.08,0,10.59,5.15,10.59,11.93,0,1.33-.17,2.65-.31,3.26h-14.87c.66,3.61,3.13,5.26,6.45,5.26,1.88,0,3.57-.57,5.38-1.63l2.44,4.44c-2.55,1.76-5.87,2.8-8.82,2.8-7.09,0-12.58-4.79-12.58-13.02ZM471.52,200.62c0-2.73-1.19-4.7-4.13-4.7-2.33,0-4.34,1.56-4.84,4.7h8.97Z" style="fill: #fff;"/>
  </g>
  <g>
    <rect x="30.9" y="252.62" width="570.8" height="92.97" style="fill: none;"/>
    <path d="M203.4,284h11.22c7.19,0,12.98,2.57,12.98,10.51s-5.86,11.07-12.78,11.07h-4.04v11.08h-7.38v-32.66ZM214.39,299.72c4.06,0,5.98-1.81,5.98-5.21s-2.19-4.64-6.18-4.64h-3.4v9.85h3.6Z" style="fill: #fff;"/>
    <path d="M229.81,309.77c0-5.24,4.17-8.07,14-9.11-.15-2.17-1.23-3.59-3.93-3.59-2.09,0-4.17.88-6.58,2.25l-2.62-4.84c3.15-1.93,6.71-3.27,10.62-3.27,6.36,0,9.88,3.63,9.88,11.25v14.21h-6.01l-.53-2.55h-.18c-2.09,1.84-4.44,3.15-7.23,3.15-4.53,0-7.41-3.31-7.41-7.5ZM243.81,309.44v-4.34c-5.24.71-6.95,2.2-6.95,4.08,0,1.6,1.1,2.39,2.85,2.39s2.79-.83,4.09-2.13Z" style="fill: #fff;"/>
    <path d="M257.36,291.8h6.01l.53,4.34h.18c1.81-3.32,4.53-4.95,7.06-4.95,1.42,0,2.25.18,2.97.5l-1.23,6.36c-.88-.22-1.62-.4-2.68-.4-1.87,0-4.15,1.21-5.48,4.6v14.41h-7.37v-24.86Z" style="fill: #fff;"/>
    <path d="M278.3,307.62v-10.04h-3.4v-5.5l3.81-.28.86-6.6h6.09v6.6h5.96v5.78h-5.96v9.95c0,2.82,1.28,3.95,3.22,3.95.82,0,1.71-.24,2.36-.47l1.16,5.35c-1.32.42-3.11.9-5.52.9-6.14,0-8.58-3.88-8.58-9.64Z" style="fill: #fff;"/>
    <path d="M295.92,284.31c0-2.26,1.79-3.85,4.26-3.85s4.26,1.59,4.26,3.85-1.79,3.85-4.26,3.85-4.26-1.61-4.26-3.85ZM296.49,291.8h7.37v24.86h-7.37v-24.86Z" style="fill: #fff;"/>
    <path d="M311.32,307.62v-10.04h-3.4v-5.5l3.81-.28.86-6.6h6.09v6.6h5.96v5.78h-5.96v9.95c0,2.82,1.28,3.95,3.22,3.95.82,0,1.71-.24,2.36-.47l1.16,5.35c-1.32.42-3.11.9-5.52.9-6.14,0-8.58-3.88-8.58-9.64Z" style="fill: #fff;"/>
    <path d="M328.94,284.31c0-2.26,1.79-3.85,4.26-3.85s4.26,1.59,4.26,3.85-1.79,3.85-4.26,3.85-4.26-1.61-4.26-3.85ZM329.51,291.8h7.37v24.86h-7.37v-24.86Z" style="fill: #fff;"/>
    <path d="M341.9,304.24c0-8.27,5.82-13.04,12.11-13.04s12.11,4.77,12.11,13.04-5.82,13.02-12.11,13.02-12.11-4.78-12.11-13.02ZM358.57,304.24c0-4.3-1.51-7.1-4.56-7.1s-4.56,2.79-4.56,7.1,1.51,7.08,4.56,7.08,4.56-2.78,4.56-7.08Z" style="fill: #fff;"/>
    <path d="M371.15,291.8h6.01l.53,3.15h.18c2.09-2.01,4.6-3.75,7.99-3.75,5.41,0,7.71,3.81,7.71,10.03v15.43h-7.37v-14.49c0-3.58-.96-4.7-3.09-4.7-1.85,0-2.98.86-4.6,2.42v16.77h-7.37v-24.86Z" style="fill: #fff;"/>
    <path d="M410.08,310.72h6.96v-18.41h-5.96v-4.57c3.41-.65,5.67-1.52,7.9-2.9h5.43v25.88h5.96v5.94h-20.28v-5.94Z" style="fill: #fff;"/>
  </g>
  <g>
    <rect x="30.9" y="353.52" width="570.8" height="92.97" style="fill: none;"/>
    <path d="M203.4,384.89h11.22c7.19,0,12.98,2.57,12.98,10.51s-5.86,11.07-12.78,11.07h-4.04v11.08h-7.38v-32.66ZM214.39,400.61c4.06,0,5.98-1.81,5.98-5.21s-2.19-4.64-6.18-4.64h-3.4v9.85h3.6Z" style="fill: #fff;"/>
    <path d="M229.81,410.66c0-5.24,4.17-8.07,14-9.11-.15-2.17-1.23-3.59-3.93-3.59-2.09,0-4.17.88-6.58,2.25l-2.62-4.84c3.15-1.93,6.71-3.27,10.62-3.27,6.36,0,9.88,3.63,9.88,11.25v14.21h-6.01l-.53-2.55h-.18c-2.09,1.84-4.44,3.15-7.23,3.15-4.53,0-7.41-3.31-7.41-7.5ZM243.81,410.33v-4.34c-5.24.71-6.95,2.2-6.95,4.08,0,1.6,1.1,2.39,2.85,2.39s2.79-.83,4.09-2.13Z" style="fill: #fff;"/>
    <path d="M257.36,392.69h6.01l.53,4.34h.18c1.81-3.32,4.53-4.95,7.06-4.95,1.42,0,2.25.18,2.97.5l-1.23,6.36c-.88-.22-1.62-.4-2.68-.4-1.87,0-4.15,1.21-5.48,4.6v14.41h-7.37v-24.86Z" style="fill: #fff;"/>
    <path d="M278.3,408.51v-10.04h-3.4v-5.5l3.81-.28.86-6.6h6.09v6.6h5.96v5.78h-5.96v9.95c0,2.82,1.28,3.95,3.22,3.95.82,0,1.71-.24,2.36-.47l1.16,5.35c-1.32.42-3.11.9-5.52.9-6.14,0-8.58-3.88-8.58-9.64Z" style="fill: #fff;"/>
    <path d="M295.92,385.2c0-2.26,1.79-3.85,4.26-3.85s4.26,1.59,4.26,3.85-1.79,3.85-4.26,3.85-4.26-1.61-4.26-3.85ZM296.49,392.69h7.37v24.86h-7.37v-24.86Z" style="fill: #fff;"/>
    <path d="M311.32,408.51v-10.04h-3.4v-5.5l3.81-.28.86-6.6h6.09v6.6h5.96v5.78h-5.96v9.95c0,2.82,1.28,3.95,3.22,3.95.82,0,1.71-.24,2.36-.47l1.16,5.35c-1.32.42-3.11.9-5.52.9-6.14,0-8.58-3.88-8.58-9.64Z" style="fill: #fff;"/>
    <path d="M328.94,385.2c0-2.26,1.79-3.85,4.26-3.85s4.26,1.59,4.26,3.85-1.79,3.85-4.26,3.85-4.26-1.61-4.26-3.85ZM329.51,392.69h7.37v24.86h-7.37v-24.86Z" style="fill: #fff;"/>
    <path d="M341.9,405.13c0-8.27,5.82-13.04,12.11-13.04s12.11,4.77,12.11,13.04-5.82,13.02-12.11,13.02-12.11-4.78-12.11-13.02ZM358.57,405.13c0-4.3-1.51-7.1-4.56-7.1s-4.56,2.79-4.56,7.1,1.51,7.08,4.56,7.08,4.56-2.78,4.56-7.08Z" style="fill: #fff;"/>
    <path d="M371.15,392.69h6.01l.53,3.15h.18c2.09-2.01,4.6-3.75,7.99-3.75,5.41,0,7.71,3.81,7.71,10.03v15.43h-7.37v-14.49c0-3.58-.96-4.7-3.09-4.7-1.85,0-2.98.86-4.6,2.42v16.77h-7.37v-24.86Z" style="fill: #fff;"/>
    <path d="M408.45,413.33c8.1-7.66,13.81-13.09,13.81-17.65,0-3.08-1.71-4.77-4.51-4.77-2.26,0-4.06,1.56-5.65,3.24l-3.99-3.98c3.13-3.35,6.1-5.04,10.65-5.04,6.27,0,10.55,4,10.55,10.14,0,5.36-5,11.07-10.21,16.46,1.64-.18,3.86-.37,5.33-.37h6.41v6.19h-22.38v-4.22Z" style="fill: #fff;"/>
  </g>
  <g>
    <rect x="30.9" y="454.41" width="570.8" height="92.97" style="fill: none;"/>
    <path d="M203.4,485.79h11.22c7.19,0,12.98,2.57,12.98,10.51s-5.86,11.07-12.78,11.07h-4.04v11.08h-7.38v-32.66ZM214.39,501.5c4.06,0,5.98-1.81,5.98-5.21s-2.19-4.64-6.18-4.64h-3.4v9.85h3.6Z" style="fill: #fff;"/>
    <path d="M229.81,511.55c0-5.24,4.17-8.07,14-9.11-.15-2.17-1.23-3.59-3.93-3.59-2.09,0-4.17.88-6.58,2.25l-2.62-4.84c3.15-1.93,6.71-3.27,10.62-3.27,6.36,0,9.88,3.63,9.88,11.25v14.21h-6.01l-.53-2.55h-.18c-2.09,1.84-4.44,3.15-7.23,3.15-4.53,0-7.41-3.31-7.41-7.5ZM243.81,511.22v-4.34c-5.24.71-6.95,2.2-6.95,4.08,0,1.6,1.1,2.39,2.85,2.39s2.79-.83,4.09-2.13Z" style="fill: #fff;"/>
    <path d="M257.36,493.58h6.01l.53,4.34h.18c1.81-3.32,4.53-4.95,7.06-4.95,1.42,0,2.25.18,2.97.5l-1.23,6.36c-.88-.22-1.62-.4-2.68-.4-1.87,0-4.15,1.21-5.48,4.6v14.41h-7.37v-24.86Z" style="fill: #fff;"/>
    <path d="M278.3,509.41v-10.04h-3.4v-5.5l3.81-.28.86-6.6h6.09v6.6h5.96v5.78h-5.96v9.95c0,2.82,1.28,3.95,3.22,3.95.82,0,1.71-.24,2.36-.47l1.16,5.35c-1.32.42-3.11.9-5.52.9-6.14,0-8.58-3.88-8.58-9.64Z" style="fill: #fff;"/>
    <path d="M295.92,486.1c0-2.26,1.79-3.85,4.26-3.85s4.26,1.59,4.26,3.85-1.79,3.85-4.26,3.85-4.26-1.61-4.26-3.85ZM296.49,493.58h7.37v24.86h-7.37v-24.86Z" style="fill: #fff;"/>
    <path d="M311.32,509.41v-10.04h-3.4v-5.5l3.81-.28.86-6.6h6.09v6.6h5.96v5.78h-5.96v9.95c0,2.82,1.28,3.95,3.22,3.95.82,0,1.71-.24,2.36-.47l1.16,5.35c-1.32.42-3.11.9-5.52.9-6.14,0-8.58-3.88-8.58-9.64Z" style="fill: #fff;"/>
    <path d="M328.94,486.1c0-2.26,1.79-3.85,4.26-3.85s4.26,1.59,4.26,3.85-1.79,3.85-4.26,3.85-4.26-1.61-4.26-3.85ZM329.51,493.58h7.37v24.86h-7.37v-24.86Z" style="fill: #fff;"/>
    <path d="M341.9,506.02c0-8.26,5.82-13.04,12.11-13.04s12.11,4.78,12.11,13.04-5.82,13.02-12.11,13.02-12.11-4.78-12.11-13.02ZM358.57,506.02c0-4.3-1.51-7.1-4.56-7.1s-4.56,2.79-4.56,7.1,1.51,7.08,4.56,7.08,4.56-2.78,4.56-7.08Z" style="fill: #fff;"/>
    <path d="M371.15,493.58h6.01l.53,3.15h.18c2.09-2.01,4.6-3.75,7.99-3.75,5.41,0,7.71,3.81,7.71,10.03v15.43h-7.37v-14.49c0-3.58-.96-4.7-3.09-4.7-1.85,0-2.98.86-4.6,2.42v16.77h-7.37v-24.86Z" style="fill: #fff;"/>
    <path d="M407.69,514.54l3.4-4.65c1.95,1.86,4.3,3.22,6.97,3.22,3.11,0,5.17-1.35,5.17-3.8,0-2.79-1.63-4.51-8.55-4.51v-5.22c5.72,0,7.52-1.74,7.52-4.26,0-2.24-1.43-3.51-3.92-3.51-2.26,0-3.98,1.03-5.95,2.78l-3.73-4.49c2.93-2.52,6.13-4.07,10-4.07,6.61,0,10.98,3.14,10.98,8.73,0,3.28-1.88,5.63-5.31,7.07v.2c3.68,1.05,6.34,3.64,6.34,7.76,0,5.92-5.43,9.27-11.83,9.27-5.15,0-8.76-1.83-11.1-4.51Z" style="fill: #fff;"/>
  </g>
  <g>
    <rect x="30.9" y="555.3" width="570.8" height="92.97" style="fill: none;"/>
    <path d="M203.4,586.68h11.22c7.19,0,12.98,2.57,12.98,10.51s-5.86,11.07-12.78,11.07h-4.04v11.08h-7.38v-32.66ZM214.39,602.39c4.06,0,5.98-1.81,5.98-5.21s-2.19-4.64-6.18-4.64h-3.4v9.85h3.6Z" style="fill: #fff;"/>
    <path d="M229.81,612.44c0-5.24,4.17-8.07,14-9.11-.15-2.17-1.23-3.59-3.93-3.59-2.09,0-4.17.88-6.58,2.25l-2.62-4.84c3.15-1.93,6.71-3.27,10.62-3.27,6.36,0,9.88,3.63,9.88,11.25v14.21h-6.01l-.53-2.55h-.18c-2.09,1.84-4.44,3.15-7.23,3.15-4.53,0-7.41-3.31-7.41-7.5ZM243.81,612.12v-4.34c-5.24.71-6.95,2.2-6.95,4.08,0,1.6,1.1,2.39,2.85,2.39s2.79-.83,4.09-2.13Z" style="fill: #fff;"/>
    <path d="M257.36,594.48h6.01l.53,4.35h.18c1.81-3.32,4.53-4.95,7.06-4.95,1.42,0,2.25.18,2.97.5l-1.23,6.36c-.88-.22-1.62-.4-2.68-.4-1.87,0-4.15,1.21-5.48,4.6v14.41h-7.37v-24.86Z" style="fill: #fff;"/>
    <path d="M278.3,610.3v-10.04h-3.4v-5.5l3.81-.28.86-6.6h6.09v6.6h5.96v5.78h-5.96v9.95c0,2.82,1.28,3.95,3.22,3.95.82,0,1.71-.24,2.36-.47l1.16,5.35c-1.32.42-3.11.9-5.52.9-6.14,0-8.58-3.88-8.58-9.64Z" style="fill: #fff;"/>
    <path d="M295.92,586.99c0-2.26,1.79-3.85,4.26-3.85s4.26,1.59,4.26,3.85-1.79,3.85-4.26,3.85-4.26-1.61-4.26-3.85ZM296.49,594.48h7.37v24.86h-7.37v-24.86Z" style="fill: #fff;"/>
    <path d="M311.32,610.3v-10.04h-3.4v-5.5l3.81-.28.86-6.6h6.09v6.6h5.96v5.78h-5.96v9.95c0,2.82,1.28,3.95,3.22,3.95.82,0,1.71-.24,2.36-.47l1.16,5.35c-1.32.42-3.11.9-5.52.9-6.14,0-8.58-3.88-8.58-9.64Z" style="fill: #fff;"/>
    <path d="M328.94,586.99c0-2.26,1.79-3.85,4.26-3.85s4.26,1.59,4.26,3.85-1.79,3.85-4.26,3.85-4.26-1.61-4.26-3.85ZM329.51,594.48h7.37v24.86h-7.37v-24.86Z" style="fill: #fff;"/>
    <path d="M341.9,606.92c0-8.26,5.82-13.04,12.11-13.04s12.11,4.78,12.11,13.04-5.82,13.02-12.11,13.02-12.11-4.78-12.11-13.02ZM358.57,606.92c0-4.3-1.51-7.1-4.56-7.1s-4.56,2.79-4.56,7.1,1.51,7.08,4.56,7.08,4.56-2.78,4.56-7.08Z" style="fill: #fff;"/>
    <path d="M371.15,594.48h6.01l.53,3.15h.18c2.09-2.01,4.6-3.75,7.99-3.75,5.41,0,7.71,3.81,7.71,10.03v15.43h-7.37v-14.49c0-3.58-.96-4.7-3.09-4.7-1.85,0-2.98.86-4.6,2.42v16.77h-7.37v-24.86Z" style="fill: #fff;"/>
    <path d="M421.32,600.94c0-2.02.18-5.11.28-7.13h-.2c-.8,1.8-1.7,3.56-2.61,5.38l-4.18,6.95h17.24v5.61h-24.3v-5.1l11.62-19.13h9.01v31.82h-6.87v-18.4Z" style="fill: #fff;"/>
  </g>
  <g>
    <rect x="30.9" y="656.19" width="570.8" height="92.97" style="fill: none;"/>
    <path d="M157.7,687.57h8.06l5.3,14.51c.65,1.93,1.23,4.02,1.88,6.03h.2c.65-2.01,1.21-4.1,1.86-6.03l5.13-14.51h8.06v32.66h-6.72v-11.99c0-3.18.6-7.94.94-11.1h-.2l-2.68,7.73-4.62,12.51h-4.1l-4.63-12.51-2.61-7.73h-.2c.35,3.16.94,7.91.94,11.1v11.99h-6.62v-32.66Z" style="fill: #fff;"/>
    <path d="M195.88,687.57h11.18c6.78,0,12.04,1.86,12.04,8.1,0,2.93-1.64,6.05-4.3,7.05v.2c3.34.87,5.91,3.33,5.91,7.69,0,6.64-5.62,9.62-12.72,9.62h-12.11v-32.66ZM206.72,700.65c3.58,0,5.17-1.51,5.17-3.89,0-2.52-1.67-3.49-5.11-3.49h-3.51v7.38h3.45ZM207.39,714.53c4.03,0,6.1-1.43,6.1-4.4s-2.04-4.03-6.1-4.03h-4.12v8.43h4.12Z" style="fill: #fff;"/>
    <path d="M226.2,687.57h11.76c6.93,0,12.61,2.41,12.61,10.17s-5.68,10.74-12.61,10.74h-4.38v11.75h-7.38v-32.66ZM237.36,702.62c3.88,0,5.97-1.66,5.97-4.87s-2.09-4.31-5.97-4.31h-3.78v9.18h3.78ZM236.61,706.53l5.11-4.72,10.42,18.42h-8.26l-7.27-13.7Z" style="fill: #fff;"/>
    <path d="M264.83,716.11l4.24-5.07c2.32,2.02,5.33,3.41,8.02,3.41,3.08,0,4.59-1.21,4.59-3.15,0-2.06-1.86-2.72-4.71-3.89l-4.24-1.81c-3.38-1.38-6.59-4.16-6.59-8.9,0-5.41,4.83-9.73,11.63-9.73,3.76,0,7.69,1.48,10.51,4.28l-3.73,4.65c-2.15-1.65-4.2-2.56-6.78-2.56s-4.17,1.06-4.17,2.93c0,2,2.14,2.73,4.99,3.87l4.16,1.69c3.99,1.61,6.48,4.27,6.48,8.88,0,5.42-4.52,10.12-12.3,10.12-4.25,0-8.77-1.61-12.1-4.72Z" style="fill: #fff;"/>
    <path d="M293.62,687.88c0-2.26,1.79-3.85,4.26-3.85s4.26,1.59,4.26,3.85-1.79,3.85-4.26,3.85-4.26-1.61-4.26-3.85ZM294.19,695.37h7.37v24.86h-7.37v-24.86Z" style="fill: #fff;"/>
    <path d="M306.49,724.5c0-2.06,1.24-3.73,3.53-5v-.2c-1.29-.87-2.27-2.17-2.27-4.22,0-1.79,1.19-3.54,2.77-4.66v-.2c-1.75-1.22-3.34-3.54-3.34-6.45,0-5.97,4.93-9,10.28-9,1.39,0,2.74.22,3.85.6h9.09v5.37h-4c.47.74.84,1.97.84,3.28,0,5.72-4.35,8.35-9.79,8.35-.91,0-1.93-.15-3.04-.48-.61.53-.87.97-.87,1.85,0,1.23,1,1.82,3.72,1.82h4.03c6.1,0,9.49,1.87,9.49,6.32,0,5.17-5.38,8.93-13.91,8.93-5.78,0-10.4-1.88-10.4-6.3ZM323.75,723.13c0-1.57-1.34-1.93-3.79-1.93h-2.58c-1.7,0-2.68-.1-3.48-.32-.92.78-1.34,1.54-1.34,2.44,0,1.89,2.18,2.85,5.51,2.85s5.69-1.33,5.69-3.05ZM320.86,703.76c0-2.65-1.44-4.04-3.39-4.04s-3.39,1.38-3.39,4.04,1.46,4.14,3.39,4.14,3.39-1.42,3.39-4.14Z" style="fill: #fff;"/>
    <path d="M334.78,695.37h6.01l.53,3.15h.18c2.09-2.01,4.6-3.75,7.99-3.75,5.41,0,7.71,3.81,7.71,10.03v15.43h-7.37v-14.49c0-3.58-.96-4.7-3.09-4.7-1.85,0-2.98.86-4.6,2.42v16.77h-7.37v-24.86Z" style="fill: #fff;"/>
    <path d="M362.29,713.33c0-5.24,4.17-8.07,14-9.11-.15-2.17-1.23-3.59-3.93-3.59-2.09,0-4.17.88-6.58,2.25l-2.62-4.84c3.15-1.93,6.71-3.27,10.62-3.27,6.36,0,9.88,3.63,9.88,11.25v14.21h-6.01l-.53-2.55h-.18c-2.09,1.84-4.44,3.15-7.23,3.15-4.53,0-7.41-3.31-7.41-7.5ZM376.3,713.01v-4.34c-5.24.71-6.95,2.2-6.95,4.08,0,1.6,1.1,2.39,2.85,2.39s2.79-.83,4.09-2.13Z" style="fill: #fff;"/>
    <path d="M389.94,711.19v-10.04h-3.4v-5.5l3.81-.28.86-6.6h6.09v6.6h5.96v5.78h-5.96v9.95c0,2.82,1.28,3.95,3.22,3.95.82,0,1.71-.24,2.36-.47l1.16,5.35c-1.32.42-3.11.9-5.52.9-6.14,0-8.58-3.88-8.58-9.64Z" style="fill: #fff;"/>
    <path d="M407.9,710.8v-15.43h7.37v14.49c0,3.58.96,4.7,3.09,4.7,1.85,0,2.98-.78,4.42-2.73v-16.45h7.37v24.86h-6.01l-.53-3.45h-.18c-2.08,2.48-4.42,4.05-7.81,4.05-5.41,0-7.71-3.81-7.71-10.03Z" style="fill: #fff;"/>
    <path d="M436.6,695.37h6.01l.53,4.35h.18c1.81-3.32,4.53-4.95,7.06-4.95,1.42,0,2.25.18,2.97.5l-1.23,6.36c-.88-.22-1.62-.4-2.68-.4-1.87,0-4.15,1.21-5.48,4.6v14.41h-7.37v-24.86Z" style="fill: #fff;"/>
    <path d="M454.6,707.81c0-8.06,5.75-13.04,11.73-13.04,7.08,0,10.59,5.15,10.59,11.93,0,1.33-.17,2.65-.31,3.25h-14.87c.66,3.61,3.13,5.26,6.45,5.26,1.88,0,3.57-.57,5.38-1.63l2.44,4.44c-2.55,1.76-5.87,2.8-8.82,2.8-7.09,0-12.58-4.79-12.58-13.02ZM470.62,705.08c0-2.73-1.19-4.7-4.13-4.7-2.33,0-4.34,1.56-4.84,4.7h8.97Z" style="fill: #fff;"/>
  </g>
  <rect x="818.6" y="37.69" width="307.18" height="119.27" rx="18.56" ry="18.56" style="fill: #223654;"/>
  <g>
    <rect x="835.28" y="50.84" width="273.81" height="92.97" style="fill: none;"/>
    <path d="M881.79,96.47c0-2.02.18-5.11.28-7.13h-.2c-.8,1.8-1.7,3.56-2.61,5.38l-4.18,6.95h17.24v5.61h-24.3v-5.1l11.62-19.14h9.01v31.82h-6.87v-18.4Z" style="fill: #fff;"/>
    <path d="M908.25,96.47c0-2.02.18-5.11.28-7.13h-.2c-.8,1.8-1.7,3.56-2.61,5.38l-4.18,6.95h17.24v5.61h-24.3v-5.1l11.62-19.14h9.01v31.82h-6.87v-18.4Z" style="fill: #fff;"/>
    <path d="M922.02,99.7c0-11.9,6.17-17.25,12.86-17.25,4.21,0,7.29,1.78,9.3,3.83l-3.89,4.41c-1.08-1.23-3.08-2.29-4.93-2.29-3.7,0-6.62,2.82-6.62,11.3,0,7.9,2.48,10.24,5.17,10.24,2.17,0,4.01-1.54,4.01-5.13,0-3.37-1.77-4.64-4.18-4.64-1.66,0-3.51.93-4.95,3.43l-.33-4.81c1.64-2.41,4.61-3.82,6.7-3.82,5.45,0,9.48,3.09,9.48,9.84s-4.82,10.67-10.58,10.67c-6.17,0-12.04-4.6-12.04-15.78Z" style="fill: #fff;"/>
    <path d="M966.26,112.22h-.18l-.61,2.65h-5.76v-35.11h7.37v8.58l-.18,3.82c1.89-1.69,4.23-2.75,6.58-2.75,6.02,0,9.75,4.98,9.75,12.6,0,8.57-5.08,13.47-10.46,13.47-2.22,0-4.52-1.12-6.49-3.25ZM975.66,102.14c0-4.46-1.38-6.7-4.32-6.7-1.51,0-2.83.68-4.27,2.23v10.21c1.32,1.17,2.72,1.57,3.97,1.57,2.57,0,4.63-2.17,4.63-7.31Z" style="fill: #fff;"/>
    <path d="M987.26,124.09l1.31-5.61c.46.12,1.14.32,1.67.32,2.43,0,3.71-1.34,4.35-3.26l.37-1.3-9.59-24.22h7.4l3.55,10.7c.72,2.25,1.31,4.61,1.96,7.04h.2c.55-2.35,1.11-4.71,1.73-7.04l3.02-10.7h7.05l-8.63,25.13c-2.36,6.23-5.01,9.45-10.85,9.45-1.54,0-2.53-.2-3.54-.5Z" style="fill: #fff;"/>
    <path d="M1015.12,105.84v-10.04h-3.4v-5.5l3.81-.28.86-6.6h6.09v6.6h5.96v5.78h-5.96v9.95c0,2.82,1.28,3.95,3.22,3.95.82,0,1.71-.24,2.36-.47l1.16,5.35c-1.32.42-3.11.9-5.52.9-6.14,0-8.58-3.88-8.58-9.64Z" style="fill: #fff;"/>
    <path d="M1030.96,102.45c0-8.06,5.75-13.04,11.73-13.04,7.08,0,10.59,5.15,10.59,11.93,0,1.33-.17,2.65-.31,3.26h-14.87c.66,3.61,3.13,5.26,6.45,5.26,1.88,0,3.57-.57,5.38-1.63l2.44,4.44c-2.55,1.76-5.87,2.8-8.82,2.8-7.09,0-12.58-4.79-12.58-13.02ZM1046.99,99.73c0-2.73-1.19-4.7-4.13-4.7-2.33,0-4.34,1.56-4.84,4.7h8.97Z" style="fill: #fff;"/>
    <path d="M1056.17,112l3.31-4.59c2.25,1.7,4.33,2.61,6.41,2.61,2.19,0,3.14-.84,3.14-2.14,0-1.64-2.46-2.38-5.02-3.38-3.05-1.18-6.58-3.2-6.58-7.31,0-4.63,3.76-7.78,9.5-7.78,3.81,0,6.65,1.54,8.76,3.15l-3.3,4.42c-1.77-1.29-3.51-2.12-5.23-2.12-1.9,0-2.84.74-2.84,1.99,0,1.58,2.33,2.19,4.9,3.13,3.15,1.16,6.7,2.94,6.7,7.48s-3.55,8.02-10.21,8.02c-3.28,0-7.03-1.42-9.54-3.47Z" style="fill: #fff;"/>
  </g>
  <rect x="818.6" y="340.36" width="307.18" height="119.27" rx="18.56" ry="18.56" style="fill: #223654;"/>
  <g>
    <rect x="835.28" y="353.52" width="273.81" height="92.97" style="fill: none;"/>
    <path d="M882.33,402.38c0-11.9,6.17-17.25,12.86-17.25,4.21,0,7.29,1.78,9.3,3.83l-3.89,4.41c-1.08-1.23-3.08-2.29-4.93-2.29-3.7,0-6.62,2.82-6.62,11.3,0,7.9,2.48,10.24,5.17,10.24,2.17,0,4.01-1.54,4.01-5.13,0-3.37-1.77-4.64-4.18-4.64-1.66,0-3.51.92-4.95,3.43l-.33-4.81c1.64-2.41,4.61-3.82,6.7-3.82,5.45,0,9.48,3.09,9.48,9.84s-4.82,10.67-10.58,10.67c-6.17,0-12.04-4.6-12.04-15.78Z" style="fill: #fff;"/>
    <path d="M921.47,399.15c0-2.02.18-5.11.28-7.13h-.2c-.8,1.8-1.7,3.56-2.61,5.38l-4.18,6.95h17.24v5.61h-24.3v-5.1l11.62-19.14h9.01v31.82h-6.87v-18.4Z" style="fill: #fff;"/>
    <path d="M953.03,414.9h-.18l-.61,2.65h-5.76v-35.11h7.37v8.58l-.18,3.82c1.89-1.69,4.23-2.75,6.58-2.75,6.02,0,9.75,4.98,9.75,12.6,0,8.57-5.08,13.47-10.46,13.47-2.22,0-4.52-1.12-6.49-3.25ZM962.43,404.81c0-4.46-1.38-6.69-4.32-6.69-1.51,0-2.83.68-4.27,2.23v10.21c1.32,1.17,2.72,1.57,3.97,1.57,2.57,0,4.63-2.17,4.63-7.31Z" style="fill: #fff;"/>
    <path d="M974.03,426.77l1.31-5.61c.46.12,1.14.32,1.67.32,2.43,0,3.71-1.34,4.35-3.26l.37-1.3-9.59-24.22h7.4l3.55,10.7c.72,2.25,1.31,4.61,1.96,7.04h.2c.55-2.35,1.11-4.71,1.73-7.04l3.02-10.7h7.05l-8.63,25.13c-2.36,6.23-5.01,9.45-10.85,9.45-1.54,0-2.53-.2-3.54-.5Z" style="fill: #fff;"/>
    <path d="M1001.89,408.51v-10.04h-3.4v-5.5l3.81-.28.86-6.6h6.09v6.6h5.96v5.78h-5.96v9.95c0,2.82,1.28,3.95,3.22,3.95.82,0,1.71-.24,2.36-.47l1.16,5.35c-1.32.42-3.11.9-5.52.9-6.14,0-8.58-3.88-8.58-9.64Z" style="fill: #fff;"/>
    <path d="M1017.74,405.13c0-8.06,5.75-13.04,11.73-13.04,7.08,0,10.59,5.15,10.59,11.93,0,1.33-.17,2.65-.31,3.25h-14.87c.66,3.61,3.13,5.26,6.45,5.26,1.88,0,3.57-.57,5.38-1.63l2.44,4.44c-2.55,1.76-5.87,2.8-8.82,2.8-7.09,0-12.58-4.79-12.58-13.02ZM1033.76,402.41c0-2.73-1.19-4.7-4.13-4.7-2.33,0-4.34,1.56-4.84,4.7h8.97Z" style="fill: #fff;"/>
    <path d="M1042.94,414.68l3.31-4.59c2.25,1.7,4.33,2.61,6.41,2.61,2.19,0,3.14-.84,3.14-2.14,0-1.64-2.46-2.38-5.02-3.38-3.05-1.18-6.58-3.2-6.58-7.31,0-4.63,3.76-7.78,9.5-7.78,3.81,0,6.65,1.54,8.76,3.15l-3.3,4.42c-1.77-1.29-3.51-2.12-5.23-2.12-1.9,0-2.84.74-2.84,1.99,0,1.58,2.33,2.19,4.9,3.13,3.15,1.16,6.7,2.94,6.7,7.48s-3.55,8.02-10.21,8.02c-3.28,0-7.03-1.42-9.54-3.47Z" style="fill: #fff;"/>
  </g>
  <rect x="818.6" y="643.04" width="307.18" height="119.27" rx="18.56" ry="18.56" style="fill: #223654;"/>
  <g>
    <rect x="835.28" y="656.19" width="273.81" height="92.97" style="fill: none;"/>
    <path d="M895.38,716.01c8.1-7.66,13.81-13.09,13.81-17.65,0-3.08-1.71-4.77-4.51-4.77-2.26,0-4.06,1.56-5.65,3.24l-3.99-3.97c3.13-3.35,6.1-5.04,10.65-5.04,6.27,0,10.55,4,10.55,10.14,0,5.36-5,11.07-10.21,16.46,1.64-.18,3.86-.37,5.33-.37h6.41v6.19h-22.38v-4.22Z" style="fill: #fff;"/>
    <path d="M939.8,717.58h-.18l-.61,2.65h-5.76v-35.11h7.37v8.58l-.18,3.82c1.89-1.69,4.23-2.75,6.58-2.75,6.02,0,9.75,4.98,9.75,12.6,0,8.57-5.08,13.46-10.46,13.46-2.22,0-4.52-1.12-6.49-3.25ZM949.2,707.49c0-4.46-1.38-6.69-4.32-6.69-1.51,0-2.83.68-4.27,2.23v10.21c1.32,1.17,2.72,1.57,3.97,1.57,2.57,0,4.63-2.17,4.63-7.31Z" style="fill: #fff;"/>
    <path d="M960.8,729.45l1.31-5.61c.46.12,1.14.32,1.67.32,2.43,0,3.71-1.34,4.35-3.26l.37-1.3-9.59-24.22h7.4l3.55,10.7c.72,2.25,1.31,4.61,1.96,7.04h.2c.55-2.35,1.11-4.71,1.73-7.04l3.02-10.7h7.05l-8.63,25.13c-2.36,6.23-5.01,9.45-10.85,9.45-1.54,0-2.53-.2-3.54-.5Z" style="fill: #fff;"/>
    <path d="M988.66,711.19v-10.04h-3.4v-5.5l3.81-.28.86-6.6h6.09v6.6h5.96v5.78h-5.96v9.95c0,2.82,1.28,3.95,3.22,3.95.82,0,1.71-.24,2.36-.47l1.16,5.35c-1.32.42-3.11.9-5.52.9-6.14,0-8.58-3.88-8.58-9.64Z" style="fill: #fff;"/>
    <path d="M1004.51,707.81c0-8.06,5.75-13.04,11.73-13.04,7.08,0,10.59,5.15,10.59,11.93,0,1.33-.17,2.65-.31,3.25h-14.87c.66,3.61,3.13,5.26,6.45,5.26,1.88,0,3.57-.57,5.38-1.63l2.44,4.44c-2.55,1.76-5.87,2.8-8.82,2.8-7.09,0-12.58-4.79-12.58-13.02ZM1020.53,705.08c0-2.73-1.19-4.7-4.13-4.7-2.33,0-4.34,1.56-4.84,4.7h8.97Z" style="fill: #fff;"/>
    <path d="M1029.71,717.36l3.31-4.59c2.25,1.7,4.33,2.61,6.41,2.61,2.19,0,3.14-.84,3.14-2.14,0-1.64-2.46-2.38-5.02-3.38-3.05-1.18-6.58-3.2-6.58-7.31,0-4.63,3.76-7.78,9.5-7.78,3.81,0,6.65,1.54,8.76,3.15l-3.3,4.42c-1.77-1.29-3.51-2.12-5.23-2.12-1.9,0-2.84.75-2.84,1.99,0,1.58,2.33,2.19,4.9,3.13,3.15,1.16,6.7,2.94,6.7,7.48s-3.55,8.02-10.21,8.02c-3.28,0-7.03-1.42-9.54-3.47Z" style="fill: #fff;"/>
  </g>
  <line x1="14.22" y1="143.98" x2="618.38" y2="143.98" style="fill: none; stroke: #a3ea2a; stroke-miterlimit: 10; stroke-width: 2px;"/>
  <line x1="14.22" y1="656.02" x2="618.38" y2="656.02" style="fill: none; stroke: #a3ea2a; stroke-miterlimit: 10; stroke-width: 2px;"/>
</svg>