<?xml version="1.0" encoding="UTF-8"?>
<svg id="Layer_1" data-name="Layer 1" xmlns="http://www.w3.org/2000/svg" width="1140" height="800" xmlns:xlink="http://www.w3.org/1999/xlink" viewBox="0 0 1140 800">
  <defs>
    <linearGradient id="linear-gradient" x1="567.63" y1="43.62" x2="567.54" y2="36.22" gradientUnits="userSpaceOnUse">
      <stop offset="0" stop-color="#727c92"/>
      <stop offset="1" stop-color="#d4d8df"/>
    </linearGradient>
    <linearGradient id="linear-gradient-2" x1="567.58" y1="30.96" x2="567.58" y2="49.66" gradientUnits="userSpaceOnUse">
      <stop offset="0" stop-color="#727c92"/>
      <stop offset="1" stop-color="#1c2538"/>
    </linearGradient>
    <linearGradient id="linear-gradient-3" x1="567.63" y1="82.59" x2="567.54" y2="75.19" xlink:href="#linear-gradient"/>
    <linearGradient id="linear-gradient-4" x1="567.58" y1="69.92" x2="567.58" y2="88.63" xlink:href="#linear-gradient-2"/>
    <linearGradient id="linear-gradient-5" x1="567.63" y1="121.55" x2="567.54" y2="114.16" xlink:href="#linear-gradient"/>
    <linearGradient id="linear-gradient-6" x1="567.58" y1="108.89" x2="567.58" y2="127.6" xlink:href="#linear-gradient-2"/>
    <linearGradient id="linear-gradient-7" x1="567.63" y1="160.52" x2="567.54" y2="153.13" xlink:href="#linear-gradient"/>
    <linearGradient id="linear-gradient-8" x1="567.58" y1="147.86" x2="567.58" y2="166.56" xlink:href="#linear-gradient-2"/>
    <linearGradient id="linear-gradient-9" y1="199.49" x2="567.54" y2="192.09" xlink:href="#linear-gradient"/>
    <linearGradient id="linear-gradient-10" x1="567.58" y1="186.82" x2="567.58" y2="205.53" xlink:href="#linear-gradient-2"/>
    <linearGradient id="linear-gradient-11" x1="567.63" y1="238.45" x2="567.54" y2="231.06" xlink:href="#linear-gradient"/>
    <linearGradient id="linear-gradient-12" y1="225.79" y2="244.5" xlink:href="#linear-gradient-2"/>
    <linearGradient id="linear-gradient-13" x1="564.33" y1="-.16" x2="571.92" y2="320.63" gradientUnits="userSpaceOnUse">
      <stop offset="0" stop-color="#d4d8df"/>
      <stop offset="1" stop-color="#727c92"/>
    </linearGradient>
    <linearGradient id="linear-gradient-14" x1="564.61" y1="11.36" x2="570.56" y2="263.32" gradientUnits="userSpaceOnUse">
      <stop offset="0" stop-color="#d4d8df"/>
      <stop offset="1" stop-color="#9fa6b5"/>
    </linearGradient>
    <linearGradient id="linear-gradient-15" x1="-2149.07" y1="708.99" x2="-1924.41" y2="599.87" gradientTransform="translate(-1677.07 -581.1) rotate(-165.81) scale(1 -1)" gradientUnits="userSpaceOnUse">
      <stop offset="0" stop-color="#d4d8df"/>
      <stop offset="1" stop-color="#223654"/>
    </linearGradient>
    <linearGradient id="linear-gradient-16" x1="-2070.93" y1="763.46" x2="-2036.82" y2="763.46" gradientTransform="translate(-1677.07 -581.1) rotate(-165.81) scale(1 -1)" gradientUnits="userSpaceOnUse">
      <stop offset="0" stop-color="#fff"/>
      <stop offset="1" stop-color="#d6a60d"/>
    </linearGradient>
    <linearGradient id="linear-gradient-17" x1="-2049.85" y1="680.24" x2="-1996.02" y2="680.24" xlink:href="#linear-gradient-16"/>
    <linearGradient id="linear-gradient-18" x1="-2110.05" y1="623.19" x2="-2068.7" y2="623.19" xlink:href="#linear-gradient-16"/>
    <linearGradient id="linear-gradient-19" x1="-2128.27" y1="703.61" x2="-2007.13" y2="687.28" gradientTransform="translate(793.66 -1521.88) rotate(-92.69) scale(1 -1)" gradientUnits="userSpaceOnUse">
      <stop offset="0" stop-color="#fff"/>
      <stop offset="1" stop-color="#727c92"/>
    </linearGradient>
    <linearGradient id="linear-gradient-20" x1="-2083.01" y1="626.59" x2="-2028.4" y2="629.36" gradientTransform="translate(-1677.07 -581.1) rotate(-165.81) scale(1 -1)" xlink:href="#linear-gradient-19"/>
    <linearGradient id="linear-gradient-21" x1="-2026.72" y1="633.68" x2="-1965.71" y2="614.08" xlink:href="#linear-gradient-16"/>
    <linearGradient id="linear-gradient-22" x1="596.77" y1="571.92" x2="620.69" y2="549.24" gradientUnits="userSpaceOnUse">
      <stop offset=".26" stop-color="#727c92"/>
      <stop offset="1" stop-color="#d4d8df"/>
    </linearGradient>
    <linearGradient id="linear-gradient-23" x1="613.79" y1="570.35" x2="649.93" y2="570.35" xlink:href="#linear-gradient-22"/>
    <linearGradient id="linear-gradient-24" x1="736.78" y1="602.58" x2="464.78" y2="610.56" gradientUnits="userSpaceOnUse">
      <stop offset=".26" stop-color="#727c92"/>
      <stop offset=".57" stop-color="#d4d8df"/>
    </linearGradient>
    <linearGradient id="linear-gradient-25" x1="486.66" y1="628.24" x2="677.16" y2="628.24" xlink:href="#linear-gradient-24"/>
    <linearGradient id="linear-gradient-26" x1="885.57" y1="618.9" x2="1090.16" y2="618.9" gradientUnits="userSpaceOnUse">
      <stop offset="0" stop-color="#223654"/>
      <stop offset="1" stop-color="#2a59be"/>
    </linearGradient>
    <linearGradient id="linear-gradient-27" x1="1001.66" y1="639.52" x2="985.36" y2="591.19" xlink:href="#linear-gradient-26"/>
    <linearGradient id="linear-gradient-28" x1="950.95" y1="575.55" x2="782.81" y2="596.57" gradientUnits="userSpaceOnUse">
      <stop offset=".18" stop-color="#223654"/>
      <stop offset=".58" stop-color="#213451"/>
      <stop offset=".79" stop-color="#1f2f49"/>
      <stop offset=".96" stop-color="#1c273c"/>
      <stop offset="1" stop-color="#1c2538"/>
    </linearGradient>
    <linearGradient id="linear-gradient-29" x1="866.24" y1="579.02" x2="875.45" y2="546.12" gradientUnits="userSpaceOnUse">
      <stop offset=".27" stop-color="#223654"/>
      <stop offset="1" stop-color="#2a59be"/>
    </linearGradient>
    <linearGradient id="linear-gradient-30" x1="875.26" y1="611.33" x2="897.14" y2="611.33" gradientUnits="userSpaceOnUse">
      <stop offset=".27" stop-color="#ce9f09"/>
      <stop offset="1" stop-color="#ecbb0a"/>
    </linearGradient>
    <linearGradient id="linear-gradient-31" x1="882.94" y1="607.86" x2="906.1" y2="607.86" xlink:href="#linear-gradient-30"/>
    <linearGradient id="linear-gradient-32" x1="892.51" y1="604.08" x2="915.16" y2="604.08" xlink:href="#linear-gradient-30"/>
    <linearGradient id="linear-gradient-33" x1="901.62" y1="600.15" x2="925.11" y2="600.15" xlink:href="#linear-gradient-30"/>
    <linearGradient id="linear-gradient-34" x1="911.38" y1="596.48" x2="933.57" y2="596.48" xlink:href="#linear-gradient-30"/>
    <linearGradient id="linear-gradient-35" x1="918.95" y1="592.77" x2="942.65" y2="592.77" xlink:href="#linear-gradient-30"/>
    <linearGradient id="linear-gradient-36" x1="928.24" y1="589.27" x2="953.9" y2="589.27" xlink:href="#linear-gradient-30"/>
  </defs>
  <path d="M825.79,482.09l-14.91-55.27c-.44-1.63-2.48-2.18-3.68-.98l-10.41,10.41-211.72-211.72,18.77-18.77c3.1-3.1,3.1-8.13,0-11.23l-8.27-8.26c-3.11-3.11-8.15-3.11-11.26,0l-3.53,3.53v-62.63c0-4.39-3.56-7.94-7.94-7.94h-11.69c-4.4,0-7.96,3.57-7.96,7.96v65.45l-6.38-6.38-19.53,19.5,18.77,18.77-211.72,211.72-10.41-10.41c-1.2-1.2-3.24-.65-3.68.98l-14.91,55.27c-.44,1.63,1.04,3.11,2.67,2.67l55.27-14.91c1.63-.44,2.18-2.48.98-3.68l-10.41-10.41,199.34-199.34v180.37h-14.72c-1.7,0-2.75,1.83-1.91,3.3l28.54,49.63c.84,1.47,2.94,1.47,3.78,0l28.54-49.63c.84-1.47-.21-3.3-1.91-3.3h-14.72v-177.53l196.5,196.5-10.41,10.41c-1.2,1.2-.65,3.24.98,3.68l55.27,14.91c1.63.44,3.11-1.04,2.67-2.67Z" style="fill: #a3ea2a;"/>
  <g>
    <path d="M679.66,42.24h-224.16c-1.28,0-2.32-1.04-2.32-2.32s1.04-2.32,2.32-2.32h224.16c1.28,0,2.32,1.04,2.32,2.32s-1.04,2.32-2.32,2.32Z" style="fill: url(#linear-gradient);"/>
    <rect x="476.1" y="30.63" width="182.96" height="18.59" style="fill: url(#linear-gradient-2);"/>
    <path d="M679.66,81.21h-224.16c-1.28,0-2.32-1.04-2.32-2.32s1.04-2.32,2.32-2.32h224.16c1.28,0,2.32,1.04,2.32,2.32s-1.04,2.32-2.32,2.32Z" style="fill: url(#linear-gradient-3);"/>
    <rect x="476.1" y="69.6" width="182.96" height="18.59" style="fill: url(#linear-gradient-4);"/>
    <path d="M679.66,120.18h-224.16c-1.28,0-2.32-1.04-2.32-2.32s1.04-2.32,2.32-2.32h224.16c1.28,0,2.32,1.04,2.32,2.32s-1.04,2.32-2.32,2.32Z" style="fill: url(#linear-gradient-5);"/>
    <rect x="476.1" y="108.56" width="182.96" height="18.59" style="fill: url(#linear-gradient-6);"/>
    <path d="M679.66,159.14h-224.16c-1.28,0-2.32-1.04-2.32-2.32s1.04-2.32,2.32-2.32h224.16c1.28,0,2.32,1.04,2.32,2.32s-1.04,2.32-2.32,2.32Z" style="fill: url(#linear-gradient-7);"/>
    <rect x="476.1" y="147.53" width="182.96" height="18.59" style="fill: url(#linear-gradient-8);"/>
    <path d="M679.66,198.11h-224.16c-1.28,0-2.32-1.04-2.32-2.32s1.04-2.32,2.32-2.32h224.16c1.28,0,2.32,1.04,2.32,2.32s-1.04,2.32-2.32,2.32Z" style="fill: url(#linear-gradient-9);"/>
    <rect x="476.1" y="186.5" width="182.96" height="18.59" style="fill: url(#linear-gradient-10);"/>
    <path d="M679.66,237.08h-224.16c-1.28,0-2.32-1.04-2.32-2.32s1.04-2.32,2.32-2.32h224.16c1.28,0,2.32,1.04,2.32,2.32s-1.04,2.32-2.32,2.32Z" style="fill: url(#linear-gradient-11);"/>
    <rect x="476.1" y="225.46" width="182.96" height="18.59" style="fill: url(#linear-gradient-12);"/>
    <rect x="495.5" y="9.09" width="144.18" height="256.5" rx="5.97" ry="5.97" style="fill: #727c92;"/>
    <rect x="505.8" y="19.85" width="123.56" height="234.97" rx="2.49" ry="2.49" style="fill: url(#linear-gradient-13);"/>
    <rect x="499.71" y="13.26" width="135.76" height="248.17" rx="5.97" ry="5.97" style="fill: none; stroke: url(#linear-gradient-14); stroke-miterlimit: 10;"/>
  </g>
  <rect x="499.36" y="270.21" width="136.44" height="45" rx="7" ry="7" style="fill: #223654;"/>
  <g>
    <rect x="505.66" y="275.17" width="123.85" height="35.08" style="fill: none;"/>
    <path d="M526.28,287.01h4.22c2.56,0,4.54.7,4.54,3.06,0,1.11-.62,2.28-1.62,2.66v.08c1.26.33,2.23,1.25,2.23,2.9,0,2.51-2.12,3.63-4.8,3.63h-4.57v-12.32ZM530.37,291.95c1.35,0,1.95-.57,1.95-1.47,0-.95-.63-1.32-1.93-1.32h-1.32v2.79h1.3ZM530.62,297.19c1.52,0,2.3-.54,2.3-1.66s-.77-1.52-2.3-1.52h-1.56v3.18h1.56Z" style="fill: #fff;"/>
    <path d="M537.72,287.01h2.79v12.32h-2.79v-12.32Z" style="fill: #fff;"/>
    <path d="M542.83,293.12c0-4.03,2.27-6.33,5.6-6.33s5.6,2.32,5.6,6.33-2.27,6.44-5.6,6.44-5.6-2.42-5.6-6.44ZM551.16,293.12c0-2.47-1.06-3.93-2.74-3.93s-2.74,1.46-2.74,3.93,1.06,4.04,2.74,4.04,2.74-1.57,2.74-4.04Z" style="fill: #fff;"/>
    <path d="M555.55,297.78l1.6-1.91c.88.76,2.01,1.29,3.03,1.29,1.16,0,1.73-.46,1.73-1.19,0-.78-.7-1.02-1.78-1.47l-1.6-.68c-1.28-.52-2.49-1.57-2.49-3.36,0-2.04,1.82-3.67,4.39-3.67,1.42,0,2.9.56,3.96,1.61l-1.41,1.76c-.81-.62-1.58-.97-2.56-.97s-1.57.4-1.57,1.1c0,.76.81,1.03,1.88,1.46l1.57.64c1.5.61,2.44,1.61,2.44,3.35,0,2.05-1.71,3.82-4.64,3.82-1.6,0-3.31-.61-4.56-1.78Z" style="fill: #fff;"/>
    <path d="M569.45,285.91h1.81l-3.81,16.45h-1.81l3.81-16.45Z" style="fill: #fff;"/>
    <path d="M573.2,293.62v-6.61h2.79v6.9c0,2.41.76,3.25,2.14,3.25s2.18-.83,2.18-3.25v-6.9h2.69v6.61c0,4.14-1.68,5.94-4.87,5.94s-4.92-1.8-4.92-5.94Z" style="fill: #fff;"/>
    <path d="M585.84,287.01h7.72v2.34h-4.93v2.47h4.2v2.34h-4.2v2.84h5.12v2.34h-7.91v-12.32Z" style="fill: #fff;"/>
    <path d="M596.2,287.01h7.78v2.34h-4.99v2.86h4.26v2.34h-4.26v4.79h-2.79v-12.32Z" style="fill: #fff;"/>
    <path d="M606.11,287.01h2.79v12.32h-2.79v-12.32Z" style="fill: #fff;"/>
  </g>
  <g>
    <rect x="116" y="745.91" width="136.44" height="45" rx="7" ry="7" style="fill: #223654;"/>
    <g>
      <rect x="122.29" y="750.87" width="123.85" height="35.08" style="fill: none;"/>
      <path d="M141.79,762.71h2.79v4.75h4.25v-4.75h2.79v12.32h-2.79v-5.14h-4.25v5.14h-2.79v-12.32Z" style="fill: #fff;"/>
      <path d="M153.87,772.43c0-1.98,1.57-3.05,5.28-3.44-.06-.82-.46-1.36-1.48-1.36-.79,0-1.57.33-2.48.85l-.99-1.82c1.19-.73,2.53-1.23,4.01-1.23,2.4,0,3.73,1.37,3.73,4.24v5.36h-2.27l-.2-.96h-.07c-.79.69-1.67,1.19-2.73,1.19-1.71,0-2.8-1.25-2.8-2.83ZM159.15,772.31v-1.64c-1.98.27-2.62.83-2.62,1.54,0,.61.42.9,1.08.9s1.05-.31,1.54-.8Z" style="fill: #fff;"/>
      <path d="M164.27,765.65h2.27l.2,1.64h.07c.68-1.25,1.71-1.87,2.66-1.87.54,0,.85.07,1.12.19l-.46,2.4c-.33-.08-.61-.15-1.01-.15-.71,0-1.57.46-2.07,1.73v5.44h-2.78v-9.38Z" style="fill: #fff;"/>
      <path d="M171.12,770.34c0-3.07,1.92-4.92,3.89-4.92,1.03,0,1.67.38,2.3.98l-.1-1.42v-3.2h2.78v13.25h-2.27l-.2-.93h-.07c-.66.66-1.59,1.16-2.5,1.16-2.33,0-3.84-1.85-3.84-4.91ZM177.21,772.14v-3.85c-.49-.44-1.04-.59-1.55-.59-.9,0-1.69.83-1.69,2.61s.64,2.67,1.71,2.67c.59,0,1.07-.22,1.53-.84Z" style="fill: #fff;"/>
      <path d="M185.73,770.34c0-3.07,1.92-4.92,3.89-4.92,1.03,0,1.67.38,2.3.98l-.1-1.42v-3.2h2.78v13.25h-2.27l-.2-.93h-.07c-.66.66-1.59,1.16-2.5,1.16-2.33,0-3.84-1.85-3.84-4.91ZM191.82,772.14v-3.85c-.49-.44-1.04-.59-1.55-.59-.9,0-1.69.83-1.69,2.61s.64,2.67,1.71,2.67c.59,0,1.07-.22,1.53-.84Z" style="fill: #fff;"/>
      <path d="M197.05,765.65h2.27l.2,1.64h.07c.68-1.25,1.71-1.87,2.66-1.87.54,0,.85.07,1.12.19l-.46,2.4c-.33-.08-.61-.15-1.01-.15-.71,0-1.57.46-2.07,1.73v5.44h-2.78v-9.38Z" style="fill: #fff;"/>
      <path d="M204.36,762.83c0-.85.68-1.45,1.61-1.45s1.61.6,1.61,1.45-.68,1.45-1.61,1.45-1.61-.61-1.61-1.45ZM204.58,765.65h2.78v9.38h-2.78v-9.38Z" style="fill: #fff;"/>
      <path d="M208.8,765.65h2.79l1.22,4.43c.24.93.49,1.9.73,2.88h.08c.24-.98.49-1.95.73-2.88l1.22-4.43h2.66l-3.06,9.38h-3.2l-3.16-9.38Z" style="fill: #fff;"/>
      <path d="M218.99,770.34c0-3.04,2.17-4.92,4.42-4.92,2.67,0,3.99,1.94,3.99,4.5,0,.5-.06,1-.12,1.23h-5.61c.25,1.36,1.18,1.98,2.43,1.98.71,0,1.35-.22,2.03-.61l.92,1.67c-.96.67-2.22,1.06-3.33,1.06-2.67,0-4.74-1.81-4.74-4.91ZM225.03,769.32c0-1.03-.45-1.77-1.56-1.77-.88,0-1.64.59-1.83,1.77h3.38Z" style="fill: #fff;"/>
    </g>
  </g>
  <g>
    <rect x="292.66" y="323.35" width="199.04" height="40.04" rx="6.23" ry="6.23" transform="translate(-127.93 377.88) rotate(-45)" style="fill: #223654;"/>
    <g>
      <rect x="298.26" y="327.77" width="187.84" height="31.21" transform="translate(-127.93 377.88) rotate(-45)" style="fill: none;"/>
      <path d="M329.92,398.54l2.65-2.65c1.61-1.61,3.3-2.42,4.78-.94.7.7,1.05,1.82.65,2.69l.05.05c1-.59,2.19-.61,3.23.42,1.58,1.58.95,3.62-.74,5.3l-2.87,2.87-7.75-7.75ZM335.6,399.07c.85-.85.87-1.58.3-2.15-.6-.6-1.23-.43-2.04.38l-.83.83,1.75,1.75.82-.82ZM339.05,402.2c.96-.96,1.11-1.79.4-2.49s-1.44-.47-2.41.49l-.98.98,2,2,.98-.98Z" style="fill: #fff;"/>
      <path d="M341.43,396.63c-1.96-1.96-1.71-4.48-.22-5.97s4.01-1.74,5.97.22,1.71,4.47.22,5.96-4.01,1.74-5.96-.22ZM345.39,392.67c-1.02-1.02-2.04-1.33-2.77-.6s-.42,1.75.6,2.77,2.04,1.32,2.76.6.42-1.74-.6-2.76Z" style="fill: #fff;"/>
      <path d="M348.04,390.03c-1.96-1.96-1.71-4.47-.22-5.97s4.01-1.74,5.97.22,1.71,4.47.22,5.96-4.01,1.74-5.96-.22ZM351.99,386.07c-1.02-1.02-2.04-1.32-2.77-.6s-.42,1.75.6,2.77,2.04,1.32,2.76.6.42-1.74-.6-2.76Z" style="fill: #fff;"/>
      <path d="M355.71,383.96l-2.38-2.38-.81.81-1.3-1.3.84-.97-1.36-1.77,1.45-1.45,1.57,1.57,1.41-1.41,1.37,1.37-1.41,1.41,2.36,2.36c.67.67,1.24.63,1.7.17.19-.19.35-.46.45-.67l1.55.99c-.21.41-.52.95-1.1,1.52-1.46,1.46-2.96,1.12-4.32-.25Z" style="fill: #fff;"/>
      <path d="M360.03,380.66c-1.24-1.24-.93-2.91,1.16-5.48-.55-.48-1.15-.56-1.79.08-.5.5-.78,1.2-1.03,2.09l-1.77-.53c.29-1.21.82-2.37,1.74-3.3,1.51-1.51,3.21-1.48,5.01.33l3.37,3.37-1.43,1.43-.73-.48-.04.04c-.06.93-.31,1.8-.97,2.46-1.08,1.08-2.54.97-3.54-.02ZM363.27,377.26l-1.03-1.03c-1.07,1.41-1.13,2.17-.68,2.62.38.38.83.3,1.24-.11s.47-.86.47-1.48Z" style="fill: #fff;"/>
      <path d="M369.13,373.57l-.04.04.48.78-1.37,1.37-8.33-8.33,1.75-1.75,2.03,2.03.86.95c.05-.85.35-1.66.91-2.21,1.43-1.43,3.49-1.13,5.3.68,2.03,2.03,1.99,4.4.71,5.68-.53.53-1.34.81-2.31.77ZM368.97,368.94c-1.06-1.06-1.92-1.26-2.61-.56-.36.36-.51.83-.49,1.54l2.42,2.42c.59-.04,1.02-.27,1.31-.57.61-.61.58-1.61-.64-2.83Z" style="fill: #fff;"/>
      <path d="M373.09,367.2l-6.5-6.5,1.75-1.75,6.57,6.57c.37.37.67.32.81.18.07-.07.11-.11.19-.24l1.5,1.08c-.11.27-.33.63-.73,1.02-1.2,1.2-2.39.83-3.59-.37Z" style="fill: #fff;"/>
      <path d="M375.04,363.02c-1.91-1.91-1.73-4.46-.31-5.88,1.68-1.68,3.73-1.29,5.34.32.31.31.59.67.7.84l-3.53,3.53c1.01.7,1.99.51,2.78-.28.45-.45.71-.98.89-1.66l1.63.48c-.19,1.02-.73,2.06-1.43,2.76-1.68,1.68-4.12,1.85-6.07-.11ZM378.19,358.58c-.65-.65-1.4-.83-2.1-.14-.55.55-.66,1.4-.03,2.26l2.13-2.13Z" style="fill: #fff;"/>
      <path d="M379.26,349.19l2.19-2.19c2.37-2.37,5.07-2.71,7.73-.05s2.38,5.43.11,7.7l-2.29,2.29-7.75-7.75ZM387.69,353.45c1.31-1.31,1.56-2.85-.29-4.7s-3.32-1.54-4.63-.23l-.33.33,4.93,4.93.33-.33Z" style="fill: #fff;"/>
      <path d="M391.13,346.93c-1.91-1.91-1.73-4.46-.31-5.88,1.68-1.68,3.73-1.29,5.34.32.31.31.59.67.7.84l-3.53,3.53c1.01.7,1.99.51,2.78-.28.45-.45.71-.98.89-1.66l1.63.48c-.19,1.02-.73,2.06-1.43,2.76-1.68,1.68-4.12,1.85-6.07-.11ZM394.29,342.48c-.65-.65-1.4-.83-2.1-.14-.55.55-.66,1.4-.03,2.26l2.13-2.13Z" style="fill: #fff;"/>
      <path d="M393.99,338.17l1.76-1.76,3.55,2.02c.74.44,1.5.89,2.27,1.35l.05-.05c-.46-.77-.92-1.53-1.35-2.27l-2.02-3.55,1.67-1.67,3.97,7.82-2.02,2.02-7.89-3.91Z" style="fill: #fff;"/>
      <path d="M398.92,329.68c-.54-.54-.49-1.34.1-1.93s1.39-.63,1.92-.1.49,1.34-.1,1.92-1.39.63-1.93.1ZM400.83,331.32l1.75-1.75,5.9,5.9-1.75,1.75-5.9-5.9Z" style="fill: #fff;"/>
      <path d="M406.73,331.34c-1.96-1.96-1.65-4.54-.02-6.17.73-.73,1.54-1.03,2.36-1.09l.3,1.95c-.52.04-.87.17-1.15.45-.84.84-.72,2.04.3,3.06s2.24,1.12,3,.36c.39-.39.57-.95.63-1.5l1.83.46c-.07,1.08-.6,2.01-1.24,2.65-1.65,1.65-4.05,1.78-6.01-.17Z" style="fill: #fff;"/>
      <path d="M411.95,326.11c-1.91-1.91-1.73-4.46-.31-5.88,1.68-1.68,3.73-1.29,5.34.32.31.31.59.67.7.84l-3.53,3.53c1.01.7,1.99.51,2.78-.28.45-.45.71-.98.89-1.66l1.63.48c-.19,1.02-.73,2.06-1.43,2.76-1.68,1.68-4.12,1.85-6.07-.11ZM415.1,321.67c-.65-.65-1.4-.83-2.1-.14-.55.55-.66,1.4-.03,2.26l2.13-2.13Z" style="fill: #fff;"/>
      <path d="M416.18,312.28l4.89-4.89,1.47,1.47-3.14,3.14,1.8,1.8,2.68-2.68,1.47,1.47-2.68,2.68,3.01,3.01-1.75,1.75-7.75-7.75Z" style="fill: #fff;"/>
      <path d="M426.51,311.55c-1.96-1.96-1.71-4.48-.22-5.97s4.01-1.74,5.97.22,1.71,4.47.22,5.96-4.01,1.74-5.96-.22ZM430.46,307.6c-1.02-1.02-2.04-1.32-2.77-.6s-.42,1.75.6,2.77,2.04,1.32,2.76.6.42-1.74-.6-2.76Z" style="fill: #fff;"/>
      <path d="M434.11,305.38l-3.66-3.66,1.75-1.75,3.44,3.44c.85.85,1.34.89,1.85.38.44-.44.52-.89.4-1.7l-3.9-3.9,1.75-1.75,5.9,5.9-1.43,1.43-.94-.69-.04.04c.1,1.08-.09,2.01-.89,2.81-1.28,1.28-2.74.92-4.21-.55Z" style="fill: #fff;"/>
      <path d="M437.26,294.9l1.43-1.43.87.62.04-.04c.02-.97.2-1.98,1.01-2.79,1.28-1.28,2.73-.92,4.21.55l3.66,3.66-1.75,1.75-3.44-3.44c-.85-.85-1.34-.89-1.85-.38-.44.44-.5.91-.52,1.67l3.98,3.98-1.75,1.75-5.9-5.9Z" style="fill: #fff;"/>
      <path d="M446.71,291.35c-1.93-1.93-1.89-4.3-.65-5.54.65-.65,1.29-.81,2.06-.83l-.96-.83-2.01-2.01,1.75-1.75,8.33,8.33-1.43,1.43-.71-.46-.04.04c0,.83-.27,1.73-.84,2.3-1.47,1.47-3.58,1.25-5.5-.68ZM451.67,288.65l-2.42-2.42c-.59.03-1.03.28-1.35.6-.57.57-.54,1.59.58,2.71s2.08,1.28,2.76.6c.37-.37.53-.81.43-1.49Z" style="fill: #fff;"/>
    </g>
  </g>
  <g>
    <rect x="501.78" y="745.91" width="136.44" height="45" rx="7" ry="7" style="fill: #223654;"/>
    <g>
      <rect x="508.07" y="750.87" width="123.85" height="35.08" style="fill: none;"/>
      <path d="M554.22,769.32v-6.61h2.79v6.9c0,2.41.76,3.25,2.14,3.25s2.18-.83,2.18-3.25v-6.9h2.69v6.61c0,4.14-1.68,5.94-4.87,5.94s-4.92-1.8-4.92-5.94Z" style="fill: #fff;"/>
      <path d="M565.87,773.48l1.6-1.91c.88.76,2.01,1.29,3.03,1.29,1.16,0,1.73-.46,1.73-1.19,0-.78-.7-1.03-1.78-1.47l-1.6-.68c-1.28-.52-2.49-1.57-2.49-3.36,0-2.04,1.82-3.67,4.39-3.67,1.42,0,2.9.56,3.96,1.62l-1.41,1.75c-.81-.62-1.58-.96-2.56-.96s-1.57.4-1.57,1.1c0,.76.81,1.03,1.88,1.46l1.57.64c1.5.61,2.44,1.61,2.44,3.35,0,2.05-1.71,3.82-4.64,3.82-1.6,0-3.31-.61-4.56-1.78Z" style="fill: #fff;"/>
      <path d="M577.18,762.71h4.22c2.56,0,4.54.7,4.54,3.06,0,1.11-.62,2.28-1.62,2.66v.08c1.26.33,2.23,1.25,2.23,2.9,0,2.51-2.12,3.63-4.8,3.63h-4.57v-12.32ZM581.27,767.64c1.35,0,1.95-.57,1.95-1.47,0-.95-.63-1.32-1.93-1.32h-1.32v2.79h1.3ZM581.53,772.88c1.52,0,2.3-.54,2.3-1.66s-.77-1.52-2.3-1.52h-1.56v3.18h1.56Z" style="fill: #fff;"/>
    </g>
  </g>
  <g>
    <rect x="862.23" y="745.91" width="136.44" height="45" rx="7" ry="7" style="fill: #223654;"/>
    <g>
      <rect x="868.52" y="750.87" width="123.85" height="35.08" style="fill: none;"/>
      <path d="M914.76,773.48l1.6-1.91c.88.76,2.01,1.29,3.03,1.29,1.16,0,1.73-.46,1.73-1.19,0-.78-.7-1.03-1.78-1.47l-1.6-.68c-1.28-.52-2.49-1.57-2.49-3.36,0-2.04,1.82-3.67,4.39-3.67,1.42,0,2.9.56,3.96,1.62l-1.41,1.75c-.81-.62-1.58-.96-2.56-.96s-1.57.4-1.57,1.1c0,.76.81,1.03,1.88,1.46l1.57.64c1.5.61,2.44,1.61,2.44,3.35,0,2.05-1.71,3.82-4.64,3.82-1.6,0-3.31-.61-4.56-1.78Z" style="fill: #fff;"/>
      <path d="M924.94,773.48l1.6-1.91c.88.76,2.01,1.29,3.03,1.29,1.16,0,1.73-.46,1.73-1.19,0-.78-.7-1.03-1.78-1.47l-1.6-.68c-1.28-.52-2.49-1.57-2.49-3.36,0-2.04,1.82-3.67,4.39-3.67,1.42,0,2.9.56,3.96,1.62l-1.41,1.75c-.81-.62-1.58-.96-2.56-.96s-1.57.4-1.57,1.1c0,.76.81,1.03,1.88,1.46l1.57.64c1.5.61,2.44,1.61,2.44,3.35,0,2.05-1.71,3.82-4.64,3.82-1.6,0-3.31-.61-4.56-1.78Z" style="fill: #fff;"/>
      <path d="M936.24,762.71h3.48c3.76,0,6.19,1.87,6.19,6.11s-2.42,6.21-6.03,6.21h-3.64v-12.32ZM939.56,772.79c2.09,0,3.5-1.02,3.5-3.97s-1.41-3.86-3.5-3.86h-.53v7.84h.53Z" style="fill: #fff;"/>
    </g>
  </g>
  <g id="Disk">
    <g>
      <path d="M59.3,487.63l66.6,217.18,179.06-27.66c3.92-.61,6.27-4.68,4.84-8.38l-78.17-202.2c-.71-1.84-2.58-2.97-4.54-2.75l-164.54,18.83c-2.4.27-3.96,2.66-3.25,4.97Z" style="fill: #223654;"/>
      <path d="M295,630.46s-1.39,39.88-33.94,53.47l53.15-7.75-19.21-45.72Z" style="fill: #2a59be;"/>
      <path d="M231.92,499.79c-41.9-5.86-33.22,17.62-53.99,25.33s-47.08-18.91-47.08-18.91l39.55-27.06,58.56,6.32,2.95,14.32Z" style="fill: #2a59be;"/>
      <path d="M276.36,582.25l-18.75-12s-21.05-63.53-31.54-73.62c-10.5-10.09-59.83-4.34-77.74,1.08-17.91,5.42-54.89,24.87-54.89,24.87l-7.5,38.7,12.51,38.73,2.16,25.81-45.1-144.64,175.69-19.84,45.15,120.9Z" style="fill: #1c2538;"/>
      <path d="M264.95,552.74l-5.48-3.15s-18.49-62.77-32.72-70.61c-14.23-7.84-101.31,5.29-101.31,5.29l-14.26-8.42,119.2-14.71,34.26,86.58.32,5.03Z" style="fill: #727c92;"/>
      <path d="M318.46,675.62l-10.46,23.2c-1.2,2.66-3.67,4.54-6.55,4.99l-176.05,27.47c-3.85.6-7.57-1.69-8.76-5.4l-62.68-194.66,2.21-8.73-4.49-14.51.97-3.83,68.62,208.2,4.8-2.87,183.26-28.24,2.2-6.92,2.44,3.79,4.48-2.49Z" style="fill: #1c2538;"/>
      <path d="M174.96,697.23c-30.48-.28-39.97-7.82-39.97-7.82,0,0,3.85,2.42,5.96-5.92,0,0-6.74,4.61-13.09,2.78s-14.33-21.83-14.33-21.83l1.03,14.16,11.51,30.88,48.89-12.25Z" style="fill: #2a59be;"/>
      <polygon points="53.56 482.08 122.63 704.63 121.26 712.35 52.64 504.15 49.84 495.75 53.56 482.08" style="fill: #223654;"/>
      <polygon points="318.6 675.06 316.15 672 311.53 674.33 313.97 678.12 318.6 675.06" style="fill: #d4d8df;"/>
      <polygon points="122.37 700.7 128.58 699.71 131.75 706.35 126.37 708.11 122.93 704.04 122.37 700.7" style="fill: #d4d8df;"/>
      <path d="M311.53,674.33l-2.2,6.92-183.26,28.24-4.8,2.87,1.37-7.72-68.9-221.98c-.68-2.2.81-4.49,3.1-4.74l171.53-19.34c2.38-.27,4.63,1.1,5.49,3.33l81.28,210.62-3.6,1.81ZM59.3,487.63l66.6,217.18,179.06-27.66c3.92-.61,6.27-4.68,4.84-8.38l-78.17-202.2c-.71-1.84-2.58-2.97-4.54-2.75l-164.54,18.83c-2.4.27-3.96,2.66-3.25,4.97Z" style="fill: url(#linear-gradient-15);"/>
      <path d="M289.74,665.33c-.61,2.42,1.38,5.02,4.46,5.79s6.06-.56,6.68-2.98l.66-2.62s-3.29-2.71-5.12-3.18c-1.73-.44-6.01.36-6.01.36l-.66,2.62Z" style="fill: #525a6a;"/>
      <ellipse cx="295.97" cy="664.12" rx="4.52" ry="5.74" transform="translate(-420.44 788.26) rotate(-75.81)" style="fill: #727c92;"/>
      <ellipse cx="295.97" cy="664.12" rx="2.86" ry="3.63" transform="translate(-420.44 788.26) rotate(-75.81)" style="fill: #d4d8df;"/>
      <path d="M143.09,668.02c-2.18,10.96-6.02,19.73-15.55,15.4-9.53-4.33-6.38-14.79-.16-14.84,0,0-12.03-8.29-14.42-15.1-2.38-6.81,6.55-13.81,6.55-13.81l23.58,28.36Z" style="fill: url(#linear-gradient-16);"/>
      <line x1="296.42" y1="662.35" x2="295.53" y2="665.87" style="fill: none; stroke: #525a6a; stroke-miterlimit: 10; stroke-width: .5px;"/>
      <line x1="297.73" y1="664.55" x2="294.21" y2="663.66" style="fill: none; stroke: #525a6a; stroke-miterlimit: 10; stroke-width: .5px;"/>
      <path d="M124.85,674.76c-.61,2.42,1.38,5.02,4.46,5.79s6.06-.56,6.68-2.98l.66-2.62s-3.29-2.71-5.12-3.18c-1.73-.44-6.01.36-6.01.36l-.66,2.62Z" style="fill: #525a6a;"/>
      <ellipse cx="131.08" cy="673.55" rx="4.52" ry="5.74" transform="translate(-554.05 635.51) rotate(-75.81)" style="fill: #727c92;"/>
      <ellipse cx="131.08" cy="673.55" rx="2.86" ry="3.63" transform="translate(-554.05 635.51) rotate(-75.81)" style="fill: #d4d8df;"/>
      <line x1="131.52" y1="671.78" x2="130.63" y2="675.3" style="fill: none; stroke: #525a6a; stroke-miterlimit: 10; stroke-width: .5px;"/>
      <line x1="132.84" y1="673.98" x2="129.32" y2="673.09" style="fill: none; stroke: #525a6a; stroke-miterlimit: 10; stroke-width: .5px;"/>
      <path d="M119.51,639.66l23.58,28.36c-.36,1.81-.77,3.56-1.24,5.21-11.65-7.2-21.29-16.23-28.29-26.28,1.93-4.13,5.94-7.28,5.94-7.28Z" style="fill: #af6205;"/>
      <path d="M233.14,541.28c-.61,2.42,1.38,5.02,4.46,5.79,3.07.78,6.06-.56,6.68-2.98l.66-2.62s-3.29-2.71-5.12-3.18c-1.73-.44-6.01.36-6.01.36l-.66,2.62Z" style="fill: #525a6a;"/>
      <ellipse cx="239.36" cy="540.07" rx="4.52" ry="5.74" transform="translate(-342.9 639.74) rotate(-75.81)" style="fill: #727c92;"/>
      <ellipse cx="239.36" cy="540.07" rx="2.86" ry="3.63" transform="translate(-342.9 639.74) rotate(-75.81)" style="fill: #d4d8df;"/>
      <line x1="239.81" y1="538.3" x2="238.92" y2="541.82" style="fill: none; stroke: #525a6a; stroke-miterlimit: 10; stroke-width: .5px;"/>
      <line x1="241.13" y1="540.5" x2="237.61" y2="539.61" style="fill: none; stroke: #525a6a; stroke-miterlimit: 10; stroke-width: .5px;"/>
      <path d="M218.74,468.88c-.61,2.42,1.38,5.02,4.46,5.79,3.07.78,6.06-.56,6.68-2.98l.66-2.62s-3.29-2.71-5.12-3.18c-1.73-.44-6.01.36-6.01.36l-.66,2.62Z" style="fill: #525a6a;"/>
      <ellipse cx="224.97" cy="467.67" rx="4.52" ry="5.74" transform="translate(-283.58 571.13) rotate(-75.81)" style="fill: #727c92;"/>
      <ellipse cx="224.97" cy="467.67" rx="2.86" ry="3.63" transform="translate(-283.58 571.13) rotate(-75.81)" style="fill: #d4d8df;"/>
      <line x1="225.42" y1="465.9" x2="224.53" y2="469.42" style="fill: none; stroke: #525a6a; stroke-miterlimit: 10; stroke-width: .5px;"/>
      <line x1="226.73" y1="468.11" x2="223.21" y2="467.22" style="fill: none; stroke: #525a6a; stroke-miterlimit: 10; stroke-width: .5px;"/>
      <path d="M169.22,506.66c-.61,2.42,1.38,5.02,4.46,5.79s6.06-.56,6.68-2.98l.66-2.62s-3.29-2.71-5.12-3.18c-1.73-.44-6.01.36-6.01.36l-.66,2.62Z" style="fill: #525a6a;"/>
      <ellipse cx="175.45" cy="505.45" rx="4.52" ry="5.74" transform="translate(-357.59 551.65) rotate(-75.81)" style="fill: #727c92;"/>
      <ellipse cx="175.45" cy="505.45" rx="2.86" ry="3.63" transform="translate(-357.59 551.65) rotate(-75.81)" style="fill: #d4d8df;"/>
      <line x1="175.9" y1="503.68" x2="175.01" y2="507.2" style="fill: none; stroke: #525a6a; stroke-miterlimit: 10; stroke-width: .5px;"/>
      <line x1="177.21" y1="505.89" x2="173.69" y2="505" style="fill: none; stroke: #525a6a; stroke-miterlimit: 10; stroke-width: .5px;"/>
      <polygon points="240.03 520.89 238.04 528.73 210.06 533.14 212.14 524.9 240.03 520.89" style="fill: #af6205;"/>
      <polygon points="212.14 524.9 209.7 521.57 207.54 530.14 210.06 533.14 212.14 524.9" style="fill: #1c2538;"/>
      <path d="M97.6,580.76c-5.24-1.91-9.98-6.04-6.56-12.06,3.42-6.02,9.55,9.08,9.55,9.08l-2.99,2.98Z" style="fill: #af6205;"/>
      <polygon points="239.17 509.58 237.02 518.07 209.7 521.57 208.93 524.62 197.09 526.43 199.92 515.25 239.17 509.58" style="fill: #af6205;"/>
      <polygon points="234.65 505.6 236.27 499.21 192.52 505.1 189.26 517.97 194.89 516.7 234.65 505.6" style="fill: #af6205;"/>
      <polygon points="199.92 515.25 196.4 510.74 193.57 521.95 197.09 526.43 199.92 515.25" style="fill: #1c2538;"/>
      <path d="M136.7,543.68c-4.23,2.29-11.07,7.62-11.07,7.62,0,0-3.03-1.57-6.79,1.09-3.76,2.66-13.56,14.59-13.56,14.59,0,0-1.59-1.52-3.08-2.41s-11.15,4.13-11.15,4.13c0,0-.74,7.19,7.39,8.99,0,0-7.61,23.44,4.7,29.48,12.31,6.03,49.04-60.67,49.04-60.67l-15.49-2.82Z" style="fill: url(#linear-gradient-17);"/>
      <polygon points="215.23 542.73 214.15 547.01 185.61 545.23 175.38 534.44 176.05 528.98 215.23 542.73" style="fill: #af6205;"/>
      <ellipse cx="192.55" cy="614.23" rx="71.24" ry="91.9" transform="translate(-450.14 650.33) rotate(-75.81)" style="fill: #727c92;"/>
      <path d="M98.69,603.16c-2.34-17.54,11.99-41.08,41.83-58.78l11.67,2.12s-36.73,66.7-49.04,60.67c-1.95-.95-3.39-2.35-4.45-4.01Z" style="fill: #af6205;"/>
      <polygon points="192.52 505.1 188.94 500.44 185.83 512.74 189.26 517.97 192.52 505.1" style="fill: #1c2538;"/>
      <polygon points="215.23 542.73 213.67 535.43 176.05 528.98 188.49 537.75 215.23 542.73" style="fill: url(#linear-gradient-18);"/>
      <ellipse cx="192.55" cy="614.23" rx="68.05" ry="87.78" transform="translate(-451.13 620.18) rotate(-73.12)" style="fill: url(#linear-gradient-19);"/>
      <polygon points="211.6 562.27 221.85 569.74 209.2 564.95 208.19 560.66 211.6 562.27" style="fill: #525a6a;"/>
      <path d="M126.2,540.46l81.14,24.86c.67.21,1.4.04,1.92-.42l1.89-1.69-87.76-27.44,2.82,4.69Z" style="fill: #727c92;"/>
      <path d="M148.7,512.47l61.96,47.13c2.3,1.75.4,5.38-2.35,4.48l-84.5-27.67-7.35-11.36,10.68-23.6,21.56,11.02Z" style="fill: url(#linear-gradient-20);"/>
      <path d="M123.72,519.28c-2.07,2.11-3.43,4.14-4.25,6.07-.13-3.32,1.19-7.18,5.29-11.36,10.09-10.28,26.81-6.65,26.81-6.65,1.27-2.4,2.8-4.23,4.21-5.58l-3.09-2.05,5.61-1.98,1.75.89-1.04,5.29s-5.16,2.42-8.49,8.72c0,0-16.73-3.64-26.81,6.65Z" style="fill: #af6205;"/>
      <path d="M83.79,532.77s.51-13.11-8.01-24.89c-8.52-11.78-13.16-17.21-11.15-22.53s12.31-4.26,21.4-1.12c9.1,3.14,30.75,3.67,46.28-.09,15.52-3.76,22.93-.15,22.93-.15l4.82,14.62s-5.16,2.42-8.49,8.72c0,0-16.73-3.64-26.81,6.65-10.09,10.28-3.38,18.66.54,21.66s1.58,6.95-6.46,5.99c-8.04-.96-13.94-.85-13.31,8,.63,8.85,1.03,9.89,1.03,9.89l-20.63,1.76s-2.56-10.88-6.23-17.65c-4.83-8.91,4.08-10.86,4.08-10.86Z" style="fill: url(#linear-gradient-21);"/>
      <ellipse cx="144" cy="528.47" rx="10.91" ry="14.59" transform="translate(-403.65 538.53) rotate(-75.81)" style="fill: #525a6a;"/>
      <ellipse cx="144.35" cy="527.06" rx="10.91" ry="14.59" transform="translate(-402.01 537.81) rotate(-75.81)" style="fill: #727c92;"/>
      <ellipse cx="144.67" cy="525.8" rx="8.81" ry="11.78" transform="translate(-400.55 537.16) rotate(-75.81)" style="fill: #d4d8df;"/>
      <ellipse cx="144.67" cy="525.8" rx="5.07" ry="6.78" transform="translate(-400.55 537.16) rotate(-75.81)" style="fill: #525a6a;"/>
      <ellipse cx="144.67" cy="525.8" rx="2.5" ry="3.35" transform="translate(-400.55 537.16) rotate(-75.81)" style="fill: #727c92;"/>
      <ellipse cx="194.01" cy="613.56" rx="24.61" ry="31.74" transform="translate(-448.4 651.24) rotate(-75.81)" style="fill: #525a6a;"/>
      <ellipse cx="194.77" cy="609.89" rx="24.61" ry="31.74" transform="translate(-444.26 649.21) rotate(-75.81)" style="fill: #727c92;"/>
      <ellipse cx="194.77" cy="609.89" rx="19.31" ry="24.9" transform="translate(-444.26 649.21) rotate(-75.81)" style="fill: #d4d8df;"/>
      <ellipse cx="194.77" cy="609.89" rx="10.32" ry="13.31" transform="translate(-444.26 649.21) rotate(-75.81)" style="fill: #727c92;"/>
      <ellipse cx="194.77" cy="609.89" rx="3.94" ry="5.09" transform="translate(-444.26 649.21) rotate(-75.81)" style="fill: #525a6a;"/>
      <ellipse cx="194.77" cy="609.89" rx="2.06" ry="2.66" transform="translate(-444.26 649.21) rotate(-75.81)" style="fill: #d4d8df;"/>
      <ellipse cx="190.67" cy="624.21" rx="1.94" ry="2.66" transform="translate(-461.24 656.05) rotate(-75.81)" style="fill: #727c92;"/>
      <ellipse cx="200.07" cy="595.18" rx="1.94" ry="2.66" transform="translate(-426 643.24) rotate(-75.81)" style="fill: #727c92;"/>
      <ellipse cx="210.41" cy="602.34" rx="1.94" ry="2.66" transform="translate(-425.13 658.67) rotate(-75.81)" style="fill: #727c92;"/>
      <ellipse cx="213.39" cy="611.04" rx="1.94" ry="2.66" transform="translate(-431.32 668.13) rotate(-75.81)" style="fill: #727c92;"/>
      <ellipse cx="210.23" cy="619.21" rx="1.94" ry="2.66" transform="translate(-441.62 671.24) rotate(-75.81)" style="fill: #727c92;"/>
      <ellipse cx="202.13" cy="624.23" rx="1.94" ry="2.66" transform="translate(-452.6 667.17) rotate(-75.81)" style="fill: #727c92;"/>
      <ellipse cx="180.46" cy="616.92" rx="1.94" ry="2.66" transform="translate(-461.87 640.65) rotate(-75.81)" style="fill: #727c92;"/>
      <ellipse cx="176.08" cy="608.58" rx="1.94" ry="2.66" transform="translate(-457.09 630.1) rotate(-75.81)" style="fill: #727c92;"/>
      <ellipse cx="178.72" cy="599.09" rx="1.94" ry="2.66" transform="translate(-445.91 625.5) rotate(-75.81)" style="fill: #727c92;"/>
      <ellipse cx="187.65" cy="594.58" rx="1.94" ry="2.66" transform="translate(-434.79 630.76) rotate(-75.81)" style="fill: #727c92;"/>
      <path d="M181.66,548.05s-9.26-6.37-21.51-9.25c0,0,3.22,2.95,9.95,5.85s11.56,3.4,11.56,3.4Z" style="fill: #727c92;"/>
      <path d="M198.33,555.71s-6.31-4.34-14.65-6.3c0,0,2.19,2.01,6.78,3.98s7.88,2.32,7.88,2.32Z" style="fill: #727c92;"/>
      <polygon points="212.14 524.9 240.03 520.89 236.9 518.04 209.7 521.57 212.14 524.9" style="fill: #d6a60d;"/>
      <polygon points="239.17 509.58 234.65 505.6 196.4 510.74 199.92 515.25 239.17 509.58" style="fill: #d6a60d;"/>
      <polygon points="236.27 499.21 231.59 494.63 188.94 500.44 192.52 505.1 236.27 499.21" style="fill: #d6a60d;"/>
      <path d="M91.49,566.93c-.61,2.42,1.38,5.02,4.46,5.79s6.06-.56,6.68-2.98l.66-2.62s-3.29-2.71-5.12-3.18c-1.73-.44-6.01.36-6.01.36l-.66,2.62Z" style="fill: #525a6a;"/>
      <ellipse cx="97.72" cy="565.72" rx="4.52" ry="5.74" transform="translate(-474.69 521.78) rotate(-75.81)" style="fill: #727c92;"/>
      <ellipse cx="97.72" cy="565.72" rx="2.86" ry="3.63" transform="translate(-474.69 521.78) rotate(-75.81)" style="fill: #d4d8df;"/>
      <line x1="98.17" y1="563.95" x2="97.28" y2="567.47" style="fill: none; stroke: #525a6a; stroke-miterlimit: 10; stroke-width: .5px;"/>
      <line x1="99.48" y1="566.15" x2="95.96" y2="565.26" style="fill: none; stroke: #525a6a; stroke-miterlimit: 10; stroke-width: .5px;"/>
      <path d="M122.37,700.7l-6.09,24.08.35,1.1c1.19,3.71,4.91,6,8.76,5.4h.05s6.3-24.93,6.3-24.93c0,0-7.17,1.22-9.39-5.65Z" style="fill: #223654;"/>
      <path d="M82.76,541.38c-.61,2.42,1.38,5.02,4.46,5.79s6.06-.56,6.68-2.98l.66-2.62s-3.29-2.71-5.12-3.18c-1.73-.44-6.01.36-6.01.36l-.66,2.62Z" style="fill: #525a6a;"/>
      <ellipse cx="88.98" cy="540.17" rx="4.52" ry="5.74" transform="translate(-456.52 494.03) rotate(-75.81)" style="fill: #727c92;"/>
      <ellipse cx="88.98" cy="540.17" rx="2.86" ry="3.63" transform="translate(-456.52 494.03) rotate(-75.81)" style="fill: #d4d8df;"/>
      <line x1="89.43" y1="538.4" x2="88.54" y2="541.92" style="fill: none; stroke: #525a6a; stroke-miterlimit: 10; stroke-width: .5px;"/>
      <line x1="90.75" y1="540.61" x2="87.23" y2="539.72" style="fill: none; stroke: #525a6a; stroke-miterlimit: 10; stroke-width: .5px;"/>
      <path d="M115.76,535.67c-.28,1.12.64,2.31,2.06,2.67s2.8-.26,3.08-1.37l.31-1.21s-1.52-1.25-2.36-1.47c-.8-.2-2.77.17-2.77.17l-.31,1.21Z" style="fill: #525a6a;"/>
      <ellipse cx="118.63" cy="535.11" rx="2.09" ry="2.65" transform="translate(-429.24 518.95) rotate(-75.81)" style="fill: #727c92;"/>
      <ellipse cx="118.63" cy="535.11" rx="1.32" ry="1.67" transform="translate(-429.24 518.95) rotate(-75.81)" style="fill: #d4d8df;"/>
      <line x1="118.84" y1="534.3" x2="118.42" y2="535.92" style="fill: none; stroke: #525a6a; stroke-miterlimit: 10; stroke-width: .5px;"/>
      <line x1="119.44" y1="535.31" x2="117.82" y2="534.9" style="fill: none; stroke: #525a6a; stroke-miterlimit: 10; stroke-width: .5px;"/>
      <path d="M67.47,487c-.61,2.42,1.38,5.02,4.46,5.79s6.06-.56,6.68-2.98l.66-2.62s-3.29-2.71-5.12-3.18c-1.73-.44-6.01.36-6.01.36l-.66,2.62Z" style="fill: #525a6a;"/>
      <ellipse cx="73.7" cy="485.79" rx="4.52" ry="5.74" transform="translate(-415.33 438.16) rotate(-75.81)" style="fill: #727c92;"/>
      <ellipse cx="73.7" cy="485.79" rx="2.86" ry="3.63" transform="translate(-415.33 438.16) rotate(-75.81)" style="fill: #d4d8df;"/>
      <line x1="74.15" y1="484.02" x2="73.26" y2="487.53" style="fill: none; stroke: #525a6a; stroke-miterlimit: 10; stroke-width: .5px;"/>
      <line x1="75.46" y1="486.22" x2="71.95" y2="485.33" style="fill: none; stroke: #525a6a; stroke-miterlimit: 10; stroke-width: .5px;"/>
      <path d="M142.03,489.39c-.61,2.42,1.38,5.02,4.46,5.79s6.06-.56,6.68-2.98l.66-2.62s-3.29-2.71-5.12-3.18c-1.73-.44-6.01.36-6.01.36l-.66,2.62Z" style="fill: #525a6a;"/>
      <ellipse cx="148.26" cy="488.18" rx="4.52" ry="5.74" transform="translate(-361.36 512.24) rotate(-75.81)" style="fill: #727c92;"/>
      <ellipse cx="148.26" cy="488.18" rx="2.86" ry="3.63" transform="translate(-361.36 512.24) rotate(-75.81)" style="fill: #d4d8df;"/>
      <line x1="148.71" y1="486.41" x2="147.82" y2="489.93" style="fill: none; stroke: #525a6a; stroke-miterlimit: 10; stroke-width: .5px;"/>
      <line x1="150.02" y1="488.61" x2="146.5" y2="487.72" style="fill: none; stroke: #525a6a; stroke-miterlimit: 10; stroke-width: .5px;"/>
    </g>
  </g>
  <g>
    <polygon points="534.65 614.01 674.78 631.9 676.52 648.51 670.7 654.95 657.06 658.05 510.25 645.47 534.65 614.01" style="fill: #1c2538;"/>
    <path d="M492.36,661.24l127.8-69.65s2.92-2.15-4.33-13c-5.68-8.49-25.95-28.18-34.48-36.33-2.29-2.18-5.7-2.67-8.51-1.23l-121.42,62.43,40.95,57.77Z" style="fill: #223654;"/>
    <path d="M492.43,661.2c2.04-1.13,2.94-3.58,2.18-5.78-1.05-3.02-5.58-9.12-12.89-14.7-10.89-8.31-18.93-20.92-26.04-32.82,0,0-2.96-5.76-4.26-4.43-1.3,1.33-1.88,20.83,10.67,36.24,12.55,15.41,23.21,25.83,30.27,21.53,0,0,.03-.01.07-.04Z" style="fill: #1c2538;"/>
    <path d="M613.95,576.05l35.99-18.49-26.19-29.3c-.51-.57-1.35-.73-2.03-.38l-36.06,18.53,28.3,29.63Z" style="fill: url(#linear-gradient-22);"/>
    <path d="M649.93,557.55l-.49,8.78c-.03.6-.38,1.13-.91,1.41l-29.97,15.4s-3.06-4.94-4.78-7.15" style="fill: url(#linear-gradient-23);"/>
    <path d="M621.82,555.64l-2.22,1.14c-1.19.61-1.5,2.16-.63,3.18l2.67,3.15c.65.76,1.75.95,2.62.45l2.39-1.38c1.17-.68,1.39-2.27.44-3.24l-2.84-2.91c-.63-.65-1.62-.81-2.43-.39Z" style="fill: #1c2538;"/>
    <path d="M607.95,540.25l-2.22,1.14c-1.19.61-1.5,2.16-.63,3.18l2.67,3.15c.65.76,1.75.95,2.62.45l2.39-1.38c1.17-.68,1.39-2.27.44-3.24l-2.84-2.91c-.63-.65-1.62-.81-2.43-.39Z" style="fill: #1c2538;"/>
    <polygon points="614.34 566.11 616.65 564.92 614.57 562.68 612.4 563.79 614.34 566.11" style="fill: #727c92;"/>
    <polygon points="600.73 549.92 603.04 548.73 600.95 546.5 598.79 547.61 600.73 549.92" style="fill: #727c92;"/>
    <ellipse cx="465.46" cy="635.33" rx=".88" ry="2.95" transform="translate(-283.79 392.58) rotate(-35.82)" style="fill: #151c2b;"/>
    <path d="M535.13,622.04l-22.98-2.93c-3.22-.41-6.34-1.37-9.2-2.89-7.48-3.97-19.92-12.97-16.14-27.63,5.31-20.61,32.96-19.85,35.6-19.75s145.85,13.27,145.85,13.27c0,0,10.55,1.2,12.75,9.34,2.2,8.14-3.89,53-3.89,53,0,0-3.5-6.81-13.29-10.39-9.79-3.58-128.7-12.02-128.7-12.02Z" style="fill: url(#linear-gradient-24);"/>
    <path d="M677.12,644.45s1.42,9.42-12.9,13.03c-14.32,3.61-145.38-10.66-145.38-10.66l3.05-1.57s130.83,12.18,141.18,9.99c9.01-1.9,11.99-7.07,11.7-8.92-.28-1.84-3.23-6.29-10.38-9.9-7.15-3.61-108.84-9.62-108.84-9.62,0,0-39.38-4.29-40.17-4.55s-26.37-2.7-28.71-23.84c0,0,4.75,17.93,28.06,21.02l140.7,12.41c4.46.39,9.53,1.52,13.39,3.8,3.99,2.36,7.65,5.8,8.31,8.8Z" style="fill: url(#linear-gradient-25);"/>
    <path d="M636.45,624.45l-76-7.01c-6.3-.58-10.77-6.4-9.71-12.64l2.79-16.36c.95-5.56,5.99-9.47,11.61-9l75.95,6.34c6.3.53,10.82,6.3,9.82,12.55l-2.74,17.03c-.91,5.64-6.03,9.61-11.72,9.09Z" style="fill: #223654;"/>
    <path d="M520.06,580.57c12.08-.03,21.88,7.15,21.9,16.02,0,2.98-1.09,5.77-3,8.17,1.43-2.14,2.23-4.56,2.22-7.1-.02-8.87-9.82-16.05-21.9-16.02-8,.02-14.99,3.19-18.79,7.91,3.56-5.3,10.98-8.95,19.57-8.98Z" style="fill: #151c2b;"/>
    <path d="M519.29,581.63c12.08-.03,21.88,7.15,21.9,16.02,0,2.55-.8,4.96-2.22,7.1-3.79,4.74-10.8,7.94-18.82,7.96-12.07.03-21.88-7.14-21.9-16.02,0-2.56.8-4.97,2.24-7.12,0,0,0-.01.02-.02,3.8-4.72,10.79-7.9,18.79-7.91Z" style="fill: #223654;"/>
    <path d="M678.99,629.32s10.57-3.18,10.25-8.97c-.33-5.79-8.39-9.71-8.39-9.71l-.22,2.7s5.13,1.51,5.45,5.99-6.61,5.82-6.61,5.82l-.47,4.17Z" style="fill: #d4d8df;"/>
    <path d="M678.55,633.1s10.03-4.68,10.34-10.69c0,0-1.31,3.56-9.9,6.92l-.44,3.78Z" style="fill: #727c92;"/>
    <path d="M680.2,617.92s3.84,2.47,4.36,4.84c0,0,3.1-2.93.69-6.33-2.41-3.4-4.62-3.1-4.62-3.1l-.42,4.59Z" style="fill: #727c92;"/>
    <path d="M587.51,593.5s2.11-.24,2.65-1.29c0,0,.55-.38.93.48s-.4,1.78-1.08,2.1-2.5-1.28-2.5-1.28Z" style="fill: #223654;"/>
  </g>
  <g>
    <g>
      <polygon points="1077.43 592.69 1077.43 598.41 1066.83 601.39 1053.25 602.47 1052.16 601.66 1052.16 598.88 1059.77 596.5 1066.74 594.87 1077.43 592.69" style="fill: #223654;"/>
      <polygon points="1069.55 588.34 1069.55 593.52 1063.06 596.63 1052.7 598.13 1046.31 599.21 1045.64 597.58 1047.44 593.24 1069.55 588.34" style="fill: #223654;"/>
      <polygon points="1062.49 583.72 1062.49 589.57 1045.09 593.24 1038.78 593.24 1038.03 591.06 1040.29 588.35 1062.49 583.72" style="fill: #223654;"/>
      <polygon points="1054.88 579.65 1054.88 584.81 1041.56 588.07 1031.51 590.25 1030.69 586.44 1033.2 583.87 1054.88 579.65" style="fill: #223654;"/>
      <polygon points="1048.63 575.84 1048.63 580.35 1029.06 584.81 1023.9 584 1023.9 580.79 1048.63 575.84" style="fill: #223654;"/>
      <polygon points="1040.74 571.77 1040.74 576.86 1020.63 581.55 1016.83 578.56 1018.98 576.18 1040.74 571.77" style="fill: #223654;"/>
      <polygon points="1034.22 567.42 1034.22 572.72 1013.3 577.47 1008.68 574.76 1011.02 572.45 1034.22 567.42" style="fill: #223654;"/>
      <polygon points="1016.83 566.06 1016.83 570.82 996.18 575.3 993.73 572.31 997.81 570.41 1016.83 566.06" style="fill: #223654;"/>
      <path d="M886.66,594.87l53.99,35.91c2.32,1.54,5.16,2.08,7.88,1.51l140.59-29.81v3.1s1.63,2.07.82,5.06l-47.29,12.5-3.8-3.53-8.7,1.63-1.09,6.25-80.26,15.28c-2.55.49-5.19-.06-7.34-1.52l-54.8-37.19s.54-1.84-1.09-2.92v-5.32s.27-.66,1.09-.93Z" style="fill: url(#linear-gradient-26);"/>
      <path d="M886.66,594.87l128.54-29.62,1.63.82-19.02,4.35s-2.72,1.63-.27,2.17,34.79-5.71,34.79-5.71l1.9.54-22.28,5.98s-1.9,2.45,3.26,2.17c5.16-.27,23.37-4.35,23.37-4.35l2.17.54-21.74,5.71s-1.9,2.17,2.99,2.17l24.19-4.35,2.45.54-22.56,5.71s-.82,2.17,2.72,1.9l23.91-4.35,2.17.54-22.56,5.71s-1.9,3.26,3.26,2.72l25-4.89,1.9.54-22.28,6.25s-1.9,2.45,2.17,2.45l25-4.62,2.17.54-21.83,6.52s-1.82,2.45,2.26,2.45l25-5.44,2.45.82-22.83,6.25s-3.26,2.99,2.72,2.72l21.47-4.08,10.33,4.89-140.61,29.81c-2.71.57-5.53.03-7.84-1.5l-54.01-35.92Z" style="fill: url(#linear-gradient-27);"/>
      <polygon points="1041.07 621.66 1041.07 613.54 1057.59 610.58 1057.59 619.18 1042.65 623.13 1041.07 621.66" style="fill: #d4d8df;"/>
      <path d="M909.75,594.87c1.64.82,44.03,31.25,44.03,31.25l4.62-.82-45.25-31.52-3.41,1.09Z" style="fill: #d4d8df;"/>
      <path d="M918.44,592.96c1.64.82,44.03,31.25,44.03,31.25l4.62-.82-45.25-31.52-3.41,1.09Z" style="fill: #d4d8df;"/>
    </g>
    <polygon points="770.74 578.66 882.16 621.6 882.16 627.46 770.74 584.34 770.74 578.66" style="fill: #223654;"/>
    <polygon points="957.98 592.79 957.98 598.79 882.16 627.46 882.16 621.6 957.98 592.79" style="fill: #727c92;"/>
    <polygon points="770.74 578.66 856.89 549.86 943.58 581.11 875.26 610.13 893.81 617.17 882.16 621.6 770.74 578.66" style="fill: url(#linear-gradient-28);"/>
    <polygon points="770.74 578.66 857.16 546.99 956.89 580.29 956.89 590.44 957.98 592.79 893.81 617.17 890.19 615.8 953.9 589.53 940.55 585.73 940.45 582.44 943.58 581.11 856.89 549.86 770.74 578.66" style="fill: url(#linear-gradient-29);"/>
    <polygon points="882.94 606.87 897.14 612.93 890.19 615.8 875.26 610.13 882.94 606.87" style="fill: url(#linear-gradient-30);"/>
    <polygon points="892.51 602.79 906.1 609.24 897.14 612.93 882.94 606.87 892.51 602.79" style="fill: url(#linear-gradient-31);"/>
    <polygon points="901.62 598.93 915.16 605.5 906.1 609.24 892.51 602.79 901.62 598.93" style="fill: url(#linear-gradient-32);"/>
    <polygon points="911.38 594.79 925.11 601.4 915.16 605.5 901.62 598.93 911.38 594.79" style="fill: url(#linear-gradient-33);"/>
    <polygon points="918.95 591.56 933.57 597.92 925.1 601.4 911.38 594.77 918.95 591.56" style="fill: url(#linear-gradient-34);"/>
    <polygon points="928.25 587.63 942.65 594.19 933.57 597.92 918.95 591.56 928.25 587.63" style="fill: url(#linear-gradient-35);"/>
    <polygon points="953.9 589.53 938.41 584.37 928.24 587.63 942.64 594.17 953.9 589.53" style="fill: url(#linear-gradient-36);"/>
    <polygon points="940.45 582.44 940.45 585.05 938.41 584.37 928.24 587.63 940.45 582.44" style="fill: #727c92;"/>
  </g>
  <g>
    <path d="M832.08,593.12l-2.39-2.84c3.09.03,5.82-.48,7.32-1.25,1.6-.82,1.32-1.56-.3-2.14-1.75-.63-3.25-.35-5.85.06l-3.9.55c-3.11.51-7.43.43-11.72-1.16-4.95-1.84-6.31-4.68-2.61-6.59,2.08-1.07,5.45-1.64,9.31-1.53l2.47,2.8c-2.59.09-4.58.42-5.67.98-1.29.66-1.26,1.41.3,1.98,1.74.64,3.43.29,6.05-.13l3.69-.57c3.64-.58,7.42-.34,11.62,1.17,5.05,1.81,7,4.64,2.73,6.83-2.41,1.23-6.18,1.95-11.04,1.82Z" style="fill: #727c92;"/>
    <path d="M846.73,585.61l-2.49-2.8c3.08.03,5.78-.47,7.24-1.22,1.56-.81,1.25-1.54-.38-2.12-1.77-.63-3.25-.35-5.82.05l-3.86.54c-3.08.5-7.38.41-11.71-1.16-5-1.82-6.46-4.63-2.86-6.5,2.03-1.05,5.36-1.61,9.2-1.5l2.57,2.77c-2.58.08-4.54.41-5.61.96-1.26.65-1.19,1.39.37,1.96,1.75.63,3.43.29,6.02-.12l3.65-.55c3.6-.57,7.37-.33,11.61,1.17,5.1,1.79,7.15,4.59,2.99,6.74-2.35,1.21-6.07,1.91-10.92,1.78Z" style="fill: #727c92;"/>
    <path d="M836.14,568.04l4.77-2.5c5.03-2.64,12.84-2.77,23.44.93,10.62,3.67,12.15,7.09,7.25,9.65l-5.1,2.65-30.36-10.74ZM865.24,574.33c2.71-1.41,2.32-3.22-4.92-5.74-7.26-2.55-11.16-2.26-13.84-.86l-.56.29,18.75,6.6.57-.3Z" style="fill: #727c92;"/>
  </g>
</svg>